G04 #@! TF.GenerationSoftware,KiCad,Pcbnew,8.0.6*
G04 #@! TF.CreationDate,2025-05-27T16:28:13+10:00*
G04 #@! TF.ProjectId,JofleKeyboard,4a6f666c-654b-4657-9962-6f6172642e6b,rev?*
G04 #@! TF.SameCoordinates,Original*
G04 #@! TF.FileFunction,Legend,Top*
G04 #@! TF.FilePolarity,Positive*
%FSLAX46Y46*%
G04 Gerber Fmt 4.6, Leading zero omitted, Abs format (unit mm)*
G04 Created by KiCad (PCBNEW 8.0.6) date 2025-05-27 16:28:13*
%MOMM*%
%LPD*%
G01*
G04 APERTURE LIST*
G04 Aperture macros list*
%AMRoundRect*
0 Rectangle with rounded corners*
0 $1 Rounding radius*
0 $2 $3 $4 $5 $6 $7 $8 $9 X,Y pos of 4 corners*
0 Add a 4 corners polygon primitive as box body*
4,1,4,$2,$3,$4,$5,$6,$7,$8,$9,$2,$3,0*
0 Add four circle primitives for the rounded corners*
1,1,$1+$1,$2,$3*
1,1,$1+$1,$4,$5*
1,1,$1+$1,$6,$7*
1,1,$1+$1,$8,$9*
0 Add four rect primitives between the rounded corners*
20,1,$1+$1,$2,$3,$4,$5,0*
20,1,$1+$1,$4,$5,$6,$7,0*
20,1,$1+$1,$6,$7,$8,$9,0*
20,1,$1+$1,$8,$9,$2,$3,0*%
G04 Aperture macros list end*
%ADD10C,0.200000*%
%ADD11C,0.150000*%
%ADD12C,0.100000*%
%ADD13C,0.120000*%
%ADD14C,0.127000*%
%ADD15C,1.397000*%
%ADD16C,1.200000*%
%ADD17O,2.500000X1.700000*%
%ADD18C,1.524000*%
%ADD19C,1.797000*%
%ADD20C,1.600000*%
%ADD21O,2.900000X2.100000*%
%ADD22C,5.100000*%
%ADD23C,1.924000*%
%ADD24RoundRect,0.200000X0.571500X-0.317500X0.571500X0.317500X-0.571500X0.317500X-0.571500X-0.317500X0*%
%ADD25C,2.400000*%
%ADD26RoundRect,0.200000X-0.571500X0.317500X-0.571500X-0.317500X0.571500X-0.317500X0.571500X0.317500X0*%
%ADD27RoundRect,0.200000X-0.475000X0.650000X-0.475000X-0.650000X0.475000X-0.650000X0.475000X0.650000X0*%
%ADD28RoundRect,0.200000X-0.650000X-0.475000X0.650000X-0.475000X0.650000X0.475000X-0.650000X0.475000X0*%
%ADD29RoundRect,0.200000X0.325417X0.736362X-0.800417X0.086362X-0.325417X-0.736362X0.800417X-0.086362X0*%
%ADD30C,2.200000*%
%ADD31C,1.400000*%
%ADD32C,3.400000*%
%ADD33C,3.800000*%
%ADD34RoundRect,0.200000X0.850000X0.500000X-0.850000X0.500000X-0.850000X-0.500000X0.850000X-0.500000X0*%
%ADD35RoundRect,0.200000X0.800000X1.100000X-0.800000X1.100000X-0.800000X-1.100000X0.800000X-1.100000X0*%
%ADD36RoundRect,0.200000X0.858013X-0.486122X0.008013X0.986122X-0.858013X0.486122X-0.008013X-0.986122X0*%
%ADD37RoundRect,0.200000X1.352628X-0.142820X0.552628X1.242820X-1.352628X0.142820X-0.552628X-1.242820X0*%
%ADD38C,4.400000*%
%ADD39RoundRect,0.200000X0.691627X0.702959X-0.950446X0.262967X-0.691627X-0.702959X0.950446X-0.262967X0*%
%ADD40RoundRect,0.200000X0.488040X1.269574X-1.057442X0.855463X-0.488040X-1.269574X1.057442X-0.855463X0*%
%ADD41RoundRect,0.200000X-0.627047X0.504913X-0.290582X-0.750791X0.627047X-0.504913X0.290582X0.750791X0*%
%ADD42RoundRect,0.200000X0.500000X0.400000X-0.500000X0.400000X-0.500000X-0.400000X0.500000X-0.400000X0*%
%ADD43C,1.300000*%
%ADD44RoundRect,0.200000X0.350000X0.750000X-0.350000X0.750000X-0.350000X-0.750000X0.350000X-0.750000X0*%
%ADD45C,2.600000*%
%ADD46RoundRect,0.200000X1.000000X-1.600000X1.000000X1.600000X-1.000000X1.600000X-1.000000X-1.600000X0*%
%ADD47C,2.700000*%
%ADD48C,2.178000*%
%ADD49RoundRect,0.333333X0.466667X0.741667X-0.466667X0.741667X-0.466667X-0.741667X0.466667X-0.741667X0*%
%ADD50O,1.600000X2.150000*%
G04 APERTURE END LIST*
D10*
X190947784Y-131638035D02*
X191098218Y-131631296D01*
X191098218Y-131631296D02*
X191320499Y-131545970D01*
X191320499Y-131545970D02*
X191392346Y-131467383D01*
X191392346Y-131467383D02*
X191419737Y-131405862D01*
X191419737Y-131405862D02*
X191430063Y-131299884D01*
X191430063Y-131299884D02*
X191395933Y-131210972D01*
X191395933Y-131210972D02*
X191317346Y-131139125D01*
X191317346Y-131139125D02*
X191255825Y-131111734D01*
X191255825Y-131111734D02*
X191149848Y-131101408D01*
X191149848Y-131101408D02*
X190954958Y-131125212D01*
X190954958Y-131125212D02*
X190848980Y-131114886D01*
X190848980Y-131114886D02*
X190787459Y-131087495D01*
X190787459Y-131087495D02*
X190708872Y-131015648D01*
X190708872Y-131015648D02*
X190674742Y-130926735D01*
X190674742Y-130926735D02*
X190685068Y-130820758D01*
X190685068Y-130820758D02*
X190712459Y-130759236D01*
X190712459Y-130759236D02*
X190784306Y-130680650D01*
X190784306Y-130680650D02*
X191006587Y-130595324D01*
X191006587Y-130595324D02*
X191157021Y-130588585D01*
X192031798Y-131272928D02*
X191925821Y-131262602D01*
X191925821Y-131262602D02*
X191864299Y-131235211D01*
X191864299Y-131235211D02*
X191785713Y-131163363D01*
X191785713Y-131163363D02*
X191683322Y-130896626D01*
X191683322Y-130896626D02*
X191693648Y-130790648D01*
X191693648Y-130790648D02*
X191721039Y-130729127D01*
X191721039Y-130729127D02*
X191792886Y-130650541D01*
X191792886Y-130650541D02*
X191926255Y-130599345D01*
X191926255Y-130599345D02*
X192032233Y-130609671D01*
X192032233Y-130609671D02*
X192093754Y-130637062D01*
X192093754Y-130637062D02*
X192172340Y-130708909D01*
X192172340Y-130708909D02*
X192274731Y-130975647D01*
X192274731Y-130975647D02*
X192264405Y-131081624D01*
X192264405Y-131081624D02*
X192237014Y-131143146D01*
X192237014Y-131143146D02*
X192165167Y-131221732D01*
X192165167Y-131221732D02*
X192031798Y-131272928D01*
X192370817Y-130428694D02*
X192726467Y-130292173D01*
X192743098Y-130999885D02*
X192435925Y-130199673D01*
X192435925Y-130199673D02*
X192446251Y-130093696D01*
X192446251Y-130093696D02*
X192518099Y-130015109D01*
X192518099Y-130015109D02*
X192607011Y-129980979D01*
X193409941Y-130743908D02*
X193303964Y-130733582D01*
X193303964Y-130733582D02*
X193225377Y-130661735D01*
X193225377Y-130661735D02*
X192918205Y-129861523D01*
X194104176Y-130426409D02*
X194032329Y-130504996D01*
X194032329Y-130504996D02*
X193854504Y-130573256D01*
X193854504Y-130573256D02*
X193748526Y-130562931D01*
X193748526Y-130562931D02*
X193669940Y-130491083D01*
X193669940Y-130491083D02*
X193533419Y-130135434D01*
X193533419Y-130135434D02*
X193543745Y-130029456D01*
X193543745Y-130029456D02*
X193615592Y-129950869D01*
X193615592Y-129950869D02*
X193793417Y-129882609D01*
X193793417Y-129882609D02*
X193899394Y-129892935D01*
X193899394Y-129892935D02*
X193977981Y-129964782D01*
X193977981Y-129964782D02*
X194012111Y-130053695D01*
X194012111Y-130053695D02*
X193601679Y-130313258D01*
X195776447Y-129733478D02*
X195749056Y-129794999D01*
X195749056Y-129794999D02*
X195632753Y-129890651D01*
X195632753Y-129890651D02*
X195543840Y-129924781D01*
X195543840Y-129924781D02*
X195393407Y-129931520D01*
X195393407Y-129931520D02*
X195270364Y-129876738D01*
X195270364Y-129876738D02*
X195191777Y-129804891D01*
X195191777Y-129804891D02*
X195079061Y-129644131D01*
X195079061Y-129644131D02*
X195027865Y-129510762D01*
X195027865Y-129510762D02*
X195004061Y-129315872D01*
X195004061Y-129315872D02*
X195014387Y-129209895D01*
X195014387Y-129209895D02*
X195069169Y-129086852D01*
X195069169Y-129086852D02*
X195185472Y-128991201D01*
X195185472Y-128991201D02*
X195274385Y-128957070D01*
X195274385Y-128957070D02*
X195424819Y-128950331D01*
X195424819Y-128950331D02*
X195486340Y-128977722D01*
X196210683Y-129668804D02*
X195852316Y-128735223D01*
X196610789Y-129515218D02*
X196423073Y-129026199D01*
X196423073Y-129026199D02*
X196344486Y-128954352D01*
X196344486Y-128954352D02*
X196238509Y-128944026D01*
X196238509Y-128944026D02*
X196105140Y-128995221D01*
X196105140Y-128995221D02*
X196033293Y-129073808D01*
X196033293Y-129073808D02*
X196005902Y-129135329D01*
X197188720Y-129293371D02*
X197082743Y-129283045D01*
X197082743Y-129283045D02*
X197021221Y-129255654D01*
X197021221Y-129255654D02*
X196942635Y-129183806D01*
X196942635Y-129183806D02*
X196840244Y-128917069D01*
X196840244Y-128917069D02*
X196850570Y-128811092D01*
X196850570Y-128811092D02*
X196877961Y-128749570D01*
X196877961Y-128749570D02*
X196949808Y-128670984D01*
X196949808Y-128670984D02*
X197083177Y-128619788D01*
X197083177Y-128619788D02*
X197189154Y-128630114D01*
X197189154Y-128630114D02*
X197250676Y-128657505D01*
X197250676Y-128657505D02*
X197329262Y-128729353D01*
X197329262Y-128729353D02*
X197431653Y-128996090D01*
X197431653Y-128996090D02*
X197421327Y-129102067D01*
X197421327Y-129102067D02*
X197393936Y-129163589D01*
X197393936Y-129163589D02*
X197322089Y-129242175D01*
X197322089Y-129242175D02*
X197188720Y-129293371D01*
X198283060Y-128822286D02*
X198211213Y-128900872D01*
X198211213Y-128900872D02*
X198033388Y-128969133D01*
X198033388Y-128969133D02*
X197927411Y-128958807D01*
X197927411Y-128958807D02*
X197865889Y-128931416D01*
X197865889Y-128931416D02*
X197787303Y-128859569D01*
X197787303Y-128859569D02*
X197684912Y-128592831D01*
X197684912Y-128592831D02*
X197695238Y-128486854D01*
X197695238Y-128486854D02*
X197722629Y-128425333D01*
X197722629Y-128425333D02*
X197794476Y-128346746D01*
X197794476Y-128346746D02*
X197972301Y-128278486D01*
X197972301Y-128278486D02*
X198078279Y-128288811D01*
X199083707Y-127851857D02*
X199544900Y-128388918D01*
X199544900Y-128388918D02*
X199528269Y-127681205D01*
X199754137Y-127339468D02*
X199781528Y-127277947D01*
X199781528Y-127277947D02*
X199853375Y-127199360D01*
X199853375Y-127199360D02*
X200075656Y-127114035D01*
X200075656Y-127114035D02*
X200181634Y-127124361D01*
X200181634Y-127124361D02*
X200243155Y-127151752D01*
X200243155Y-127151752D02*
X200321742Y-127223599D01*
X200321742Y-127223599D02*
X200355872Y-127312511D01*
X200355872Y-127312511D02*
X200362611Y-127462945D01*
X200362611Y-127462945D02*
X200033918Y-128201201D01*
X200033918Y-128201201D02*
X200611849Y-127979355D01*
X200977825Y-127736856D02*
X201039346Y-127764247D01*
X201039346Y-127764247D02*
X201011955Y-127825768D01*
X201011955Y-127825768D02*
X200950434Y-127798377D01*
X200950434Y-127798377D02*
X200977825Y-127736856D01*
X200977825Y-127736856D02*
X201011955Y-127825768D01*
X201945535Y-127467401D02*
X201412060Y-127672182D01*
X201678798Y-127569791D02*
X201320430Y-126636211D01*
X201320430Y-126636211D02*
X201282713Y-126803710D01*
X201282713Y-126803710D02*
X201227931Y-126926753D01*
X201227931Y-126926753D02*
X201156083Y-127005339D01*
X203056941Y-127040772D02*
X202698573Y-126107192D01*
X202835094Y-126462841D02*
X202906941Y-126384255D01*
X202906941Y-126384255D02*
X203084766Y-126315994D01*
X203084766Y-126315994D02*
X203190743Y-126326320D01*
X203190743Y-126326320D02*
X203252265Y-126353711D01*
X203252265Y-126353711D02*
X203330851Y-126425558D01*
X203330851Y-126425558D02*
X203433242Y-126692296D01*
X203433242Y-126692296D02*
X203422916Y-126798273D01*
X203422916Y-126798273D02*
X203395525Y-126859795D01*
X203395525Y-126859795D02*
X203323678Y-126938381D01*
X203323678Y-126938381D02*
X203145853Y-127006642D01*
X203145853Y-127006642D02*
X203039875Y-126996316D01*
X203573784Y-126128278D02*
X204034977Y-126665339D01*
X204018346Y-125957626D02*
X204034977Y-126665339D01*
X204034977Y-126665339D02*
X204031391Y-126921750D01*
X204031391Y-126921750D02*
X204003999Y-126983272D01*
X204003999Y-126983272D02*
X203932152Y-127061858D01*
X205447685Y-125561975D02*
X205598119Y-125555236D01*
X205598119Y-125555236D02*
X205659640Y-125582627D01*
X205659640Y-125582627D02*
X205738226Y-125654474D01*
X205738226Y-125654474D02*
X205789422Y-125787843D01*
X205789422Y-125787843D02*
X205779096Y-125893821D01*
X205779096Y-125893821D02*
X205751705Y-125955342D01*
X205751705Y-125955342D02*
X205679858Y-126033928D01*
X205679858Y-126033928D02*
X205324208Y-126170450D01*
X205324208Y-126170450D02*
X204965840Y-125236869D01*
X204965840Y-125236869D02*
X205277033Y-125117413D01*
X205277033Y-125117413D02*
X205383011Y-125127739D01*
X205383011Y-125127739D02*
X205444532Y-125155130D01*
X205444532Y-125155130D02*
X205523119Y-125226977D01*
X205523119Y-125226977D02*
X205557249Y-125315890D01*
X205557249Y-125315890D02*
X205546923Y-125421867D01*
X205546923Y-125421867D02*
X205519532Y-125483389D01*
X205519532Y-125483389D02*
X205447685Y-125561975D01*
X205447685Y-125561975D02*
X205136491Y-125681431D01*
X206257788Y-125812082D02*
X206018876Y-125189695D01*
X206087137Y-125367520D02*
X206097463Y-125261542D01*
X206097463Y-125261542D02*
X206124854Y-125200021D01*
X206124854Y-125200021D02*
X206196701Y-125121434D01*
X206196701Y-125121434D02*
X206285614Y-125087304D01*
X206835719Y-125590235D02*
X206596807Y-124967848D01*
X206477351Y-124656654D02*
X206449960Y-124718176D01*
X206449960Y-124718176D02*
X206511482Y-124745567D01*
X206511482Y-124745567D02*
X206538873Y-124684045D01*
X206538873Y-124684045D02*
X206477351Y-124656654D01*
X206477351Y-124656654D02*
X206511482Y-124745567D01*
X207680387Y-125265997D02*
X207492670Y-124776979D01*
X207492670Y-124776979D02*
X207414084Y-124705132D01*
X207414084Y-124705132D02*
X207308106Y-124694806D01*
X207308106Y-124694806D02*
X207130281Y-124763066D01*
X207130281Y-124763066D02*
X207058434Y-124841653D01*
X207663322Y-125221541D02*
X207591475Y-125300127D01*
X207591475Y-125300127D02*
X207369193Y-125385453D01*
X207369193Y-125385453D02*
X207263216Y-125375127D01*
X207263216Y-125375127D02*
X207184629Y-125303280D01*
X207184629Y-125303280D02*
X207150499Y-125214368D01*
X207150499Y-125214368D02*
X207160825Y-125108390D01*
X207160825Y-125108390D02*
X207232672Y-125029804D01*
X207232672Y-125029804D02*
X207454953Y-124944478D01*
X207454953Y-124944478D02*
X207526801Y-124865891D01*
X207886037Y-124472959D02*
X208124949Y-125095346D01*
X207920167Y-124561871D02*
X207947559Y-124500350D01*
X207947559Y-124500350D02*
X208019406Y-124421763D01*
X208019406Y-124421763D02*
X208152774Y-124370568D01*
X208152774Y-124370568D02*
X208258752Y-124380894D01*
X208258752Y-124380894D02*
X208337338Y-124452741D01*
X208337338Y-124452741D02*
X208525055Y-124941760D01*
X210125479Y-124327414D02*
X209680917Y-124498066D01*
X209680917Y-124498066D02*
X209322549Y-123564485D01*
X210570041Y-124156763D02*
X210464064Y-124146437D01*
X210464064Y-124146437D02*
X210402542Y-124119046D01*
X210402542Y-124119046D02*
X210323956Y-124047199D01*
X210323956Y-124047199D02*
X210221565Y-123780461D01*
X210221565Y-123780461D02*
X210231891Y-123674484D01*
X210231891Y-123674484D02*
X210259282Y-123612962D01*
X210259282Y-123612962D02*
X210331129Y-123534376D01*
X210331129Y-123534376D02*
X210464498Y-123483180D01*
X210464498Y-123483180D02*
X210570475Y-123493506D01*
X210570475Y-123493506D02*
X210631997Y-123520897D01*
X210631997Y-123520897D02*
X210710583Y-123592745D01*
X210710583Y-123592745D02*
X210812974Y-123859482D01*
X210812974Y-123859482D02*
X210802648Y-123965460D01*
X210802648Y-123965460D02*
X210775257Y-124026981D01*
X210775257Y-124026981D02*
X210703410Y-124105567D01*
X210703410Y-124105567D02*
X210570041Y-124156763D01*
X210953516Y-123295464D02*
X211370253Y-123849590D01*
X211370253Y-123849590D02*
X211377427Y-123336768D01*
X211377427Y-123336768D02*
X211725903Y-123713069D01*
X211725903Y-123713069D02*
X211664816Y-123022422D01*
D11*
X97864533Y-80668216D02*
X97593600Y-80281169D01*
X97400076Y-80668216D02*
X97400076Y-79855416D01*
X97400076Y-79855416D02*
X97709714Y-79855416D01*
X97709714Y-79855416D02*
X97787124Y-79894121D01*
X97787124Y-79894121D02*
X97825829Y-79932826D01*
X97825829Y-79932826D02*
X97864533Y-80010235D01*
X97864533Y-80010235D02*
X97864533Y-80126350D01*
X97864533Y-80126350D02*
X97825829Y-80203759D01*
X97825829Y-80203759D02*
X97787124Y-80242464D01*
X97787124Y-80242464D02*
X97709714Y-80281169D01*
X97709714Y-80281169D02*
X97400076Y-80281169D01*
X98638629Y-80668216D02*
X98174172Y-80668216D01*
X98406400Y-80668216D02*
X98406400Y-79855416D01*
X98406400Y-79855416D02*
X98328991Y-79971531D01*
X98328991Y-79971531D02*
X98251581Y-80048940D01*
X98251581Y-80048940D02*
X98174172Y-80087645D01*
X97864533Y-78468216D02*
X97593600Y-78081169D01*
X97400076Y-78468216D02*
X97400076Y-77655416D01*
X97400076Y-77655416D02*
X97709714Y-77655416D01*
X97709714Y-77655416D02*
X97787124Y-77694121D01*
X97787124Y-77694121D02*
X97825829Y-77732826D01*
X97825829Y-77732826D02*
X97864533Y-77810235D01*
X97864533Y-77810235D02*
X97864533Y-77926350D01*
X97864533Y-77926350D02*
X97825829Y-78003759D01*
X97825829Y-78003759D02*
X97787124Y-78042464D01*
X97787124Y-78042464D02*
X97709714Y-78081169D01*
X97709714Y-78081169D02*
X97400076Y-78081169D01*
X98174172Y-77732826D02*
X98212876Y-77694121D01*
X98212876Y-77694121D02*
X98290286Y-77655416D01*
X98290286Y-77655416D02*
X98483810Y-77655416D01*
X98483810Y-77655416D02*
X98561219Y-77694121D01*
X98561219Y-77694121D02*
X98599924Y-77732826D01*
X98599924Y-77732826D02*
X98638629Y-77810235D01*
X98638629Y-77810235D02*
X98638629Y-77887645D01*
X98638629Y-77887645D02*
X98599924Y-78003759D01*
X98599924Y-78003759D02*
X98135467Y-78468216D01*
X98135467Y-78468216D02*
X98638629Y-78468216D01*
X93904819Y-88161904D02*
X93904819Y-87590476D01*
X94904819Y-87876190D02*
X93904819Y-87876190D01*
X94904819Y-86685714D02*
X94428628Y-87019047D01*
X94904819Y-87257142D02*
X93904819Y-87257142D01*
X93904819Y-87257142D02*
X93904819Y-86876190D01*
X93904819Y-86876190D02*
X93952438Y-86780952D01*
X93952438Y-86780952D02*
X94000057Y-86733333D01*
X94000057Y-86733333D02*
X94095295Y-86685714D01*
X94095295Y-86685714D02*
X94238152Y-86685714D01*
X94238152Y-86685714D02*
X94333390Y-86733333D01*
X94333390Y-86733333D02*
X94381009Y-86780952D01*
X94381009Y-86780952D02*
X94428628Y-86876190D01*
X94428628Y-86876190D02*
X94428628Y-87257142D01*
X94904819Y-85685714D02*
X94428628Y-86019047D01*
X94904819Y-86257142D02*
X93904819Y-86257142D01*
X93904819Y-86257142D02*
X93904819Y-85876190D01*
X93904819Y-85876190D02*
X93952438Y-85780952D01*
X93952438Y-85780952D02*
X94000057Y-85733333D01*
X94000057Y-85733333D02*
X94095295Y-85685714D01*
X94095295Y-85685714D02*
X94238152Y-85685714D01*
X94238152Y-85685714D02*
X94333390Y-85733333D01*
X94333390Y-85733333D02*
X94381009Y-85780952D01*
X94381009Y-85780952D02*
X94428628Y-85876190D01*
X94428628Y-85876190D02*
X94428628Y-86257142D01*
X94857200Y-85304761D02*
X94904819Y-85161904D01*
X94904819Y-85161904D02*
X94904819Y-84923809D01*
X94904819Y-84923809D02*
X94857200Y-84828571D01*
X94857200Y-84828571D02*
X94809580Y-84780952D01*
X94809580Y-84780952D02*
X94714342Y-84733333D01*
X94714342Y-84733333D02*
X94619104Y-84733333D01*
X94619104Y-84733333D02*
X94523866Y-84780952D01*
X94523866Y-84780952D02*
X94476247Y-84828571D01*
X94476247Y-84828571D02*
X94428628Y-84923809D01*
X94428628Y-84923809D02*
X94381009Y-85114285D01*
X94381009Y-85114285D02*
X94333390Y-85209523D01*
X94333390Y-85209523D02*
X94285771Y-85257142D01*
X94285771Y-85257142D02*
X94190533Y-85304761D01*
X94190533Y-85304761D02*
X94095295Y-85304761D01*
X94095295Y-85304761D02*
X94000057Y-85257142D01*
X94000057Y-85257142D02*
X93952438Y-85209523D01*
X93952438Y-85209523D02*
X93904819Y-85114285D01*
X93904819Y-85114285D02*
X93904819Y-84876190D01*
X93904819Y-84876190D02*
X93952438Y-84733333D01*
X104740160Y-80899923D02*
X103927360Y-80899923D01*
X103927360Y-80899923D02*
X103927360Y-80590285D01*
X103927360Y-80590285D02*
X103966065Y-80512875D01*
X103966065Y-80512875D02*
X104004770Y-80474170D01*
X104004770Y-80474170D02*
X104082179Y-80435466D01*
X104082179Y-80435466D02*
X104198294Y-80435466D01*
X104198294Y-80435466D02*
X104275703Y-80474170D01*
X104275703Y-80474170D02*
X104314408Y-80512875D01*
X104314408Y-80512875D02*
X104353113Y-80590285D01*
X104353113Y-80590285D02*
X104353113Y-80899923D01*
X104740160Y-79661370D02*
X104740160Y-80125827D01*
X104740160Y-79893599D02*
X103927360Y-79893599D01*
X103927360Y-79893599D02*
X104043475Y-79971008D01*
X104043475Y-79971008D02*
X104120884Y-80048418D01*
X104120884Y-80048418D02*
X104159589Y-80125827D01*
X104740160Y-78699923D02*
X103927360Y-78699923D01*
X103927360Y-78699923D02*
X103927360Y-78390285D01*
X103927360Y-78390285D02*
X103966065Y-78312875D01*
X103966065Y-78312875D02*
X104004770Y-78274170D01*
X104004770Y-78274170D02*
X104082179Y-78235466D01*
X104082179Y-78235466D02*
X104198294Y-78235466D01*
X104198294Y-78235466D02*
X104275703Y-78274170D01*
X104275703Y-78274170D02*
X104314408Y-78312875D01*
X104314408Y-78312875D02*
X104353113Y-78390285D01*
X104353113Y-78390285D02*
X104353113Y-78699923D01*
X104004770Y-77925827D02*
X103966065Y-77887123D01*
X103966065Y-77887123D02*
X103927360Y-77809713D01*
X103927360Y-77809713D02*
X103927360Y-77616189D01*
X103927360Y-77616189D02*
X103966065Y-77538780D01*
X103966065Y-77538780D02*
X104004770Y-77500075D01*
X104004770Y-77500075D02*
X104082179Y-77461370D01*
X104082179Y-77461370D02*
X104159589Y-77461370D01*
X104159589Y-77461370D02*
X104275703Y-77500075D01*
X104275703Y-77500075D02*
X104740160Y-77964532D01*
X104740160Y-77964532D02*
X104740160Y-77461370D01*
X90362295Y-78661904D02*
X89981342Y-78928571D01*
X90362295Y-79119047D02*
X89562295Y-79119047D01*
X89562295Y-79119047D02*
X89562295Y-78814285D01*
X89562295Y-78814285D02*
X89600390Y-78738095D01*
X89600390Y-78738095D02*
X89638485Y-78700000D01*
X89638485Y-78700000D02*
X89714676Y-78661904D01*
X89714676Y-78661904D02*
X89828961Y-78661904D01*
X89828961Y-78661904D02*
X89905152Y-78700000D01*
X89905152Y-78700000D02*
X89943247Y-78738095D01*
X89943247Y-78738095D02*
X89981342Y-78814285D01*
X89981342Y-78814285D02*
X89981342Y-79119047D01*
X89943247Y-78319047D02*
X89943247Y-78052381D01*
X90362295Y-77938095D02*
X90362295Y-78319047D01*
X90362295Y-78319047D02*
X89562295Y-78319047D01*
X89562295Y-78319047D02*
X89562295Y-77938095D01*
X90324200Y-77633333D02*
X90362295Y-77519047D01*
X90362295Y-77519047D02*
X90362295Y-77328571D01*
X90362295Y-77328571D02*
X90324200Y-77252380D01*
X90324200Y-77252380D02*
X90286104Y-77214285D01*
X90286104Y-77214285D02*
X90209914Y-77176190D01*
X90209914Y-77176190D02*
X90133723Y-77176190D01*
X90133723Y-77176190D02*
X90057533Y-77214285D01*
X90057533Y-77214285D02*
X90019438Y-77252380D01*
X90019438Y-77252380D02*
X89981342Y-77328571D01*
X89981342Y-77328571D02*
X89943247Y-77480952D01*
X89943247Y-77480952D02*
X89905152Y-77557142D01*
X89905152Y-77557142D02*
X89867057Y-77595237D01*
X89867057Y-77595237D02*
X89790866Y-77633333D01*
X89790866Y-77633333D02*
X89714676Y-77633333D01*
X89714676Y-77633333D02*
X89638485Y-77595237D01*
X89638485Y-77595237D02*
X89600390Y-77557142D01*
X89600390Y-77557142D02*
X89562295Y-77480952D01*
X89562295Y-77480952D02*
X89562295Y-77290475D01*
X89562295Y-77290475D02*
X89600390Y-77176190D01*
X89943247Y-76833332D02*
X89943247Y-76566666D01*
X90362295Y-76452380D02*
X90362295Y-76833332D01*
X90362295Y-76833332D02*
X89562295Y-76833332D01*
X89562295Y-76833332D02*
X89562295Y-76452380D01*
X89562295Y-76223808D02*
X89562295Y-75766665D01*
X90362295Y-75995237D02*
X89562295Y-75995237D01*
D12*
X99577215Y-103560059D02*
X99577215Y-104369582D01*
X99577215Y-104369582D02*
X99624834Y-104464820D01*
X99624834Y-104464820D02*
X99672453Y-104512440D01*
X99672453Y-104512440D02*
X99767691Y-104560059D01*
X99767691Y-104560059D02*
X99958167Y-104560059D01*
X99958167Y-104560059D02*
X100053405Y-104512440D01*
X100053405Y-104512440D02*
X100101024Y-104464820D01*
X100101024Y-104464820D02*
X100148643Y-104369582D01*
X100148643Y-104369582D02*
X100148643Y-103560059D01*
X100577215Y-103655297D02*
X100624834Y-103607678D01*
X100624834Y-103607678D02*
X100720072Y-103560059D01*
X100720072Y-103560059D02*
X100958167Y-103560059D01*
X100958167Y-103560059D02*
X101053405Y-103607678D01*
X101053405Y-103607678D02*
X101101024Y-103655297D01*
X101101024Y-103655297D02*
X101148643Y-103750535D01*
X101148643Y-103750535D02*
X101148643Y-103845773D01*
X101148643Y-103845773D02*
X101101024Y-103988630D01*
X101101024Y-103988630D02*
X100529596Y-104560059D01*
X100529596Y-104560059D02*
X101148643Y-104560059D01*
D11*
X96538132Y-79311205D02*
X96538132Y-81312725D01*
X96538132Y-81312725D02*
X99540412Y-81312725D01*
X99540412Y-79311205D02*
X96538132Y-79311205D01*
X99540412Y-81312725D02*
X99540412Y-79311205D01*
X96538132Y-77061205D02*
X96538132Y-79062725D01*
X96538132Y-79062725D02*
X99540412Y-79062725D01*
X99540412Y-77061205D02*
X96538132Y-77061205D01*
X99540412Y-79062725D02*
X99540412Y-77061205D01*
X88000000Y-82650000D02*
X100000000Y-82650000D01*
X88000000Y-88650000D02*
X88000000Y-82650000D01*
X100000000Y-82650000D02*
X100000000Y-88650000D01*
X100000000Y-88650000D02*
X88000000Y-88650000D01*
X101700000Y-79300000D02*
X101700000Y-81300000D01*
X101700000Y-81300000D02*
X103700000Y-81300000D01*
X103700000Y-79300000D02*
X101700000Y-79300000D01*
X103700000Y-81300000D02*
X103700000Y-79300000D01*
X101700000Y-77100000D02*
X101700000Y-79100000D01*
X101700000Y-79100000D02*
X103700000Y-79100000D01*
X103700000Y-77100000D02*
X101700000Y-77100000D01*
X103700000Y-79100000D02*
X103700000Y-77100000D01*
X92208815Y-38615745D02*
X92208815Y-71635745D01*
X92208815Y-41155745D02*
X92208815Y-71635745D01*
X92208815Y-71635745D02*
X94748815Y-71635745D01*
X94748815Y-41155745D02*
X92208815Y-41155745D01*
X94748815Y-71635745D02*
X94748815Y-41155745D01*
X107448815Y-41155745D02*
X107448815Y-71635745D01*
X107448815Y-71635745D02*
X109988815Y-71635745D01*
X109988815Y-38615745D02*
X92208815Y-38615745D01*
X109988815Y-41155745D02*
X107448815Y-41155745D01*
X109988815Y-71635745D02*
X109988815Y-38615745D01*
X109988815Y-71635745D02*
X109988815Y-41155745D01*
X103411000Y-68157000D02*
X105189000Y-68157000D01*
X103411000Y-70443000D02*
X103411000Y-68157000D01*
X105189000Y-68157000D02*
X105189000Y-70443000D01*
X105189000Y-70443000D02*
X103411000Y-70443000D01*
X100811000Y-68157000D02*
X102589000Y-68157000D01*
X100811000Y-70443000D02*
X100811000Y-68157000D01*
X102589000Y-68157000D02*
X102589000Y-70443000D01*
X102589000Y-70443000D02*
X100811000Y-70443000D01*
X98311000Y-68157000D02*
X100089000Y-68157000D01*
X98311000Y-70443000D02*
X98311000Y-68157000D01*
X100089000Y-68157000D02*
X100089000Y-70443000D01*
X100089000Y-70443000D02*
X98311000Y-70443000D01*
X88300000Y-74500000D02*
X88300000Y-80500000D01*
X88300000Y-74500000D02*
X88900000Y-74500000D01*
X88300000Y-80500000D02*
X88900000Y-80500000D01*
X91800000Y-74500000D02*
X91100000Y-74500000D01*
X91800000Y-80500000D02*
X91100000Y-80500000D01*
X91800000Y-80500000D02*
X91800000Y-74500000D01*
X93111000Y-73857000D02*
X94889000Y-73857000D01*
X93111000Y-76143000D02*
X93111000Y-73857000D01*
X94889000Y-73857000D02*
X94889000Y-76143000D01*
X94889000Y-76143000D02*
X93111000Y-76143000D01*
X127955000Y-43527000D02*
X127955000Y-48927000D01*
X128205000Y-46727000D02*
X128705000Y-45827000D01*
X128705000Y-45827000D02*
X129205000Y-46727000D01*
X129205000Y-45727000D02*
X128205000Y-45727000D01*
X129205000Y-46727000D02*
X128205000Y-46727000D01*
X129455000Y-43527000D02*
X127955000Y-43527000D01*
X129455000Y-48927000D02*
X127955000Y-48927000D01*
X129455000Y-48927000D02*
X129455000Y-43527000D01*
X130495000Y-43530000D02*
X130495000Y-48930000D01*
X130745000Y-46730000D02*
X131245000Y-45830000D01*
X131245000Y-45830000D02*
X131745000Y-46730000D01*
X131745000Y-45730000D02*
X130745000Y-45730000D01*
X131745000Y-46730000D02*
X130745000Y-46730000D01*
X131995000Y-43530000D02*
X130495000Y-43530000D01*
X131995000Y-48930000D02*
X130495000Y-48930000D01*
X131995000Y-48930000D02*
X131995000Y-43530000D01*
X149595000Y-41030000D02*
X149595000Y-46430000D01*
X149845000Y-44230000D02*
X150345000Y-43330000D01*
X150345000Y-43330000D02*
X150845000Y-44230000D01*
X150845000Y-43230000D02*
X149845000Y-43230000D01*
X150845000Y-44230000D02*
X149845000Y-44230000D01*
X151095000Y-41030000D02*
X149595000Y-41030000D01*
X151095000Y-46430000D02*
X149595000Y-46430000D01*
X151095000Y-46430000D02*
X151095000Y-41030000D01*
X168595000Y-43530000D02*
X168595000Y-48930000D01*
X168845000Y-46730000D02*
X169345000Y-45830000D01*
X169345000Y-45830000D02*
X169845000Y-46730000D01*
X169845000Y-45730000D02*
X168845000Y-45730000D01*
X169845000Y-46730000D02*
X168845000Y-46730000D01*
X170095000Y-43530000D02*
X168595000Y-43530000D01*
X170095000Y-48930000D02*
X168595000Y-48930000D01*
X170095000Y-48930000D02*
X170095000Y-43530000D01*
X187695000Y-48300000D02*
X187695000Y-53700000D01*
X187945000Y-51500000D02*
X188445000Y-50600000D01*
X188445000Y-50600000D02*
X188945000Y-51500000D01*
X188945000Y-50500000D02*
X187945000Y-50500000D01*
X188945000Y-51500000D02*
X187945000Y-51500000D01*
X189195000Y-48300000D02*
X187695000Y-48300000D01*
X189195000Y-53700000D02*
X187695000Y-53700000D01*
X189195000Y-53700000D02*
X189195000Y-48300000D01*
X206795000Y-48430000D02*
X206795000Y-53830000D01*
X207045000Y-51630000D02*
X207545000Y-50730000D01*
X207545000Y-50730000D02*
X208045000Y-51630000D01*
X208045000Y-50630000D02*
X207045000Y-50630000D01*
X208045000Y-51630000D02*
X207045000Y-51630000D01*
X208295000Y-48430000D02*
X206795000Y-48430000D01*
X208295000Y-53830000D02*
X206795000Y-53830000D01*
X208295000Y-53830000D02*
X208295000Y-48430000D01*
X127955000Y-81630000D02*
X127955000Y-87030000D01*
X128205000Y-84830000D02*
X128705000Y-83930000D01*
X128705000Y-83930000D02*
X129205000Y-84830000D01*
X129205000Y-83830000D02*
X128205000Y-83830000D01*
X129205000Y-84830000D02*
X128205000Y-84830000D01*
X129455000Y-81630000D02*
X127955000Y-81630000D01*
X129455000Y-87030000D02*
X127955000Y-87030000D01*
X129455000Y-87030000D02*
X129455000Y-81630000D01*
X127955000Y-100730000D02*
X127955000Y-106130000D01*
X128205000Y-103930000D02*
X128705000Y-103030000D01*
X128705000Y-103030000D02*
X129205000Y-103930000D01*
X129205000Y-102930000D02*
X128205000Y-102930000D01*
X129205000Y-103930000D02*
X128205000Y-103930000D01*
X129455000Y-100730000D02*
X127955000Y-100730000D01*
X129455000Y-106130000D02*
X127955000Y-106130000D01*
X129455000Y-106130000D02*
X129455000Y-100730000D01*
X104300000Y-96250000D02*
X104300000Y-97750000D01*
X104300000Y-97750000D02*
X109700000Y-97750000D01*
X106500000Y-96500000D02*
X106500000Y-97500000D01*
X106600000Y-97000000D02*
X107500000Y-96500000D01*
X107500000Y-96500000D02*
X107500000Y-97500000D01*
X107500000Y-97500000D02*
X106600000Y-97000000D01*
X109700000Y-96250000D02*
X104300000Y-96250000D01*
X109700000Y-96250000D02*
X109700000Y-97750000D01*
X92043731Y-127350519D02*
X91293731Y-126051481D01*
X92043731Y-127350519D02*
X96720269Y-124650519D01*
X93323987Y-125167987D02*
X94353410Y-125151000D01*
X93823987Y-126034013D02*
X93323987Y-125167987D01*
X94353410Y-125151000D02*
X93823987Y-126034013D01*
X94690013Y-125534013D02*
X94190013Y-124667987D01*
X95970269Y-123351481D02*
X91293731Y-126051481D01*
X96720269Y-124650519D02*
X95970269Y-123351481D01*
D13*
X116650000Y-42948460D02*
X124950000Y-42948460D01*
D11*
X118250000Y-54600000D02*
X119275000Y-53575000D01*
X118250000Y-57200000D02*
X118250000Y-54600000D01*
X118250000Y-57200000D02*
X119275000Y-58225000D01*
X118400000Y-54450000D02*
X118400000Y-57350000D01*
X118550000Y-54350000D02*
X118550000Y-57500000D01*
X118700000Y-54150000D02*
X118700000Y-57650000D01*
X118850000Y-54000000D02*
X118850000Y-57800000D01*
X119000000Y-53850000D02*
X119000000Y-57950000D01*
X119150000Y-53750000D02*
X119150000Y-58100000D01*
X119300000Y-53600000D02*
X119300000Y-58200000D01*
X119450000Y-53600000D02*
X119450000Y-58200000D01*
X119600000Y-53600000D02*
X119600000Y-58200000D01*
X119750000Y-53600000D02*
X119750000Y-58200000D01*
X119900000Y-53600000D02*
X119900000Y-58200000D01*
X120050000Y-53600000D02*
X120050000Y-58200000D01*
X120200000Y-53600000D02*
X120200000Y-58200000D01*
X120350000Y-53600000D02*
X120350000Y-58200000D01*
X120500000Y-53600000D02*
X120500000Y-58200000D01*
X120650000Y-53600000D02*
X120650000Y-58200000D01*
X120800000Y-53600000D02*
X120800000Y-58200000D01*
X120950000Y-53600000D02*
X120950000Y-58200000D01*
X121100000Y-53600000D02*
X121100000Y-58200000D01*
X121250000Y-53575000D02*
X119275000Y-53575000D01*
X121250000Y-53600000D02*
X121250000Y-58200000D01*
X121400000Y-53600000D02*
X121400000Y-58150000D01*
X121550000Y-53550000D02*
X121550000Y-58200000D01*
X121700000Y-53550000D02*
X121700000Y-58200000D01*
X121825000Y-58225000D02*
X119275000Y-58225000D01*
X121825000Y-58225000D02*
X123100000Y-57200000D01*
X121850000Y-53550000D02*
X121850000Y-58150000D01*
X122000000Y-53500000D02*
X122000000Y-58050000D01*
X122150000Y-53400000D02*
X122150000Y-57950000D01*
X122300000Y-53350000D02*
X122300000Y-57800000D01*
X122450000Y-53250000D02*
X122450000Y-57700000D01*
X122600000Y-53150000D02*
X122600000Y-57550000D01*
X122750000Y-53050000D02*
X122750000Y-57450000D01*
X122900000Y-52900000D02*
X122900000Y-57350000D01*
X123050000Y-52750000D02*
X123050000Y-57200000D01*
X123150000Y-52550000D02*
X123150000Y-56700000D01*
X123250000Y-52400000D02*
X123250000Y-56550000D01*
X123350000Y-52200000D02*
X123350000Y-56350000D01*
X123450000Y-52050000D02*
X123450000Y-56250000D01*
X123550000Y-51800000D02*
X123550000Y-56200000D01*
X123650000Y-51650000D02*
X123650000Y-56150000D01*
X123800000Y-51550000D02*
X123800000Y-56100000D01*
X123950000Y-51450000D02*
X123950000Y-56000000D01*
X124100000Y-51400000D02*
X124100000Y-56000000D01*
X124250000Y-51400000D02*
X124250000Y-56000000D01*
X124400000Y-51400000D02*
X124400000Y-55950000D01*
X124550000Y-51400000D02*
X124550000Y-56000000D01*
X124700000Y-51400000D02*
X124700000Y-56000000D01*
X124850000Y-51400000D02*
X124850000Y-56000000D01*
D13*
X124950000Y-42948460D02*
X124950000Y-44599460D01*
X124950000Y-47651000D02*
X116650000Y-47648460D01*
D11*
X125000000Y-51400000D02*
X125000000Y-56000000D01*
X125150000Y-51400000D02*
X125150000Y-56000000D01*
X125300000Y-51400000D02*
X125300000Y-56000000D01*
X125450000Y-51400000D02*
X125450000Y-56000000D01*
X125600000Y-51400000D02*
X125600000Y-56000000D01*
X125750000Y-51400000D02*
X125750000Y-56000000D01*
X125900000Y-51400000D02*
X125900000Y-56000000D01*
X126050000Y-51400000D02*
X126050000Y-56000000D01*
X126200000Y-51400000D02*
X126200000Y-56000000D01*
X126350000Y-51400000D02*
X126350000Y-56000000D01*
X126500000Y-51400000D02*
X126500000Y-56000000D01*
X126650000Y-51400000D02*
X126650000Y-56000000D01*
X126800000Y-51400000D02*
X126800000Y-56000000D01*
X126850000Y-51375000D02*
X124250000Y-51375000D01*
X126850000Y-56025000D02*
X124275000Y-56025000D01*
X126950000Y-51400000D02*
X126950000Y-55950000D01*
X127100000Y-51450000D02*
X127100000Y-55950000D01*
X127250000Y-51500000D02*
X127250000Y-55900000D01*
X127400000Y-51600000D02*
X127400000Y-55800000D01*
X127500000Y-51700000D02*
X127500000Y-55650000D01*
X127600000Y-51800000D02*
X127600000Y-55550000D01*
X127700000Y-51950000D02*
X127700000Y-55500000D01*
X127850000Y-55025000D02*
X127850000Y-52375000D01*
X123100000Y-57200000D02*
G75*
G02*
X124275000Y-56025000I1175002J-2D01*
G01*
X123387801Y-52078096D02*
G75*
G02*
X121250000Y-53575000I-2137800J778095D01*
G01*
X123387801Y-52078096D02*
G75*
G02*
X124249005Y-51376209I900000J-225000D01*
G01*
X126850000Y-51375000D02*
G75*
G02*
X127850000Y-52375000I1J-999999D01*
G01*
X127850000Y-55025000D02*
G75*
G02*
X126850000Y-56025000I-999999J-1D01*
G01*
D12*
X124950000Y-43964460D02*
X123942000Y-42951000D01*
X124950000Y-42948460D01*
X124950000Y-43964460D01*
G36*
X124950000Y-43964460D02*
G01*
X123942000Y-42951000D01*
X124950000Y-42948460D01*
X124950000Y-43964460D01*
G37*
D13*
X154750000Y-37948460D02*
X163050000Y-37948460D01*
D11*
X156350000Y-49600000D02*
X157375000Y-48575000D01*
X156350000Y-52200000D02*
X156350000Y-49600000D01*
X156350000Y-52200000D02*
X157375000Y-53225000D01*
X156500000Y-49450000D02*
X156500000Y-52350000D01*
X156650000Y-49350000D02*
X156650000Y-52500000D01*
X156800000Y-49150000D02*
X156800000Y-52650000D01*
X156950000Y-49000000D02*
X156950000Y-52800000D01*
X157100000Y-48850000D02*
X157100000Y-52950000D01*
X157250000Y-48750000D02*
X157250000Y-53100000D01*
X157400000Y-48600000D02*
X157400000Y-53200000D01*
X157550000Y-48600000D02*
X157550000Y-53200000D01*
X157700000Y-48600000D02*
X157700000Y-53200000D01*
X157850000Y-48600000D02*
X157850000Y-53200000D01*
X158000000Y-48600000D02*
X158000000Y-53200000D01*
X158150000Y-48600000D02*
X158150000Y-53200000D01*
X158300000Y-48600000D02*
X158300000Y-53200000D01*
X158450000Y-48600000D02*
X158450000Y-53200000D01*
X158600000Y-48600000D02*
X158600000Y-53200000D01*
X158750000Y-48600000D02*
X158750000Y-53200000D01*
X158900000Y-48600000D02*
X158900000Y-53200000D01*
X159050000Y-48600000D02*
X159050000Y-53200000D01*
X159200000Y-48600000D02*
X159200000Y-53200000D01*
X159350000Y-48575000D02*
X157375000Y-48575000D01*
X159350000Y-48600000D02*
X159350000Y-53200000D01*
X159500000Y-48600000D02*
X159500000Y-53150000D01*
X159650000Y-48550000D02*
X159650000Y-53200000D01*
X159800000Y-48550000D02*
X159800000Y-53200000D01*
X159925000Y-53225000D02*
X157375000Y-53225000D01*
X159925000Y-53225000D02*
X161200000Y-52200000D01*
X159950000Y-48550000D02*
X159950000Y-53150000D01*
X160100000Y-48500000D02*
X160100000Y-53050000D01*
X160250000Y-48400000D02*
X160250000Y-52950000D01*
X160400000Y-48350000D02*
X160400000Y-52800000D01*
X160550000Y-48250000D02*
X160550000Y-52700000D01*
X160700000Y-48150000D02*
X160700000Y-52550000D01*
X160850000Y-48050000D02*
X160850000Y-52450000D01*
X161000000Y-47900000D02*
X161000000Y-52350000D01*
X161150000Y-47750000D02*
X161150000Y-52200000D01*
X161250000Y-47550000D02*
X161250000Y-51700000D01*
X161350000Y-47400000D02*
X161350000Y-51550000D01*
X161450000Y-47200000D02*
X161450000Y-51350000D01*
X161550000Y-47050000D02*
X161550000Y-51250000D01*
X161650000Y-46800000D02*
X161650000Y-51200000D01*
X161750000Y-46650000D02*
X161750000Y-51150000D01*
X161900000Y-46550000D02*
X161900000Y-51100000D01*
X162050000Y-46450000D02*
X162050000Y-51000000D01*
X162200000Y-46400000D02*
X162200000Y-51000000D01*
X162350000Y-46400000D02*
X162350000Y-51000000D01*
X162500000Y-46400000D02*
X162500000Y-50950000D01*
X162650000Y-46400000D02*
X162650000Y-51000000D01*
X162800000Y-46400000D02*
X162800000Y-51000000D01*
X162950000Y-46400000D02*
X162950000Y-51000000D01*
D13*
X163050000Y-37948460D02*
X163050000Y-39599460D01*
X163050000Y-42651000D02*
X154750000Y-42648460D01*
D11*
X163100000Y-46400000D02*
X163100000Y-51000000D01*
X163250000Y-46400000D02*
X163250000Y-51000000D01*
X163400000Y-46400000D02*
X163400000Y-51000000D01*
X163550000Y-46400000D02*
X163550000Y-51000000D01*
X163700000Y-46400000D02*
X163700000Y-51000000D01*
X163850000Y-46400000D02*
X163850000Y-51000000D01*
X164000000Y-46400000D02*
X164000000Y-51000000D01*
X164150000Y-46400000D02*
X164150000Y-51000000D01*
X164300000Y-46400000D02*
X164300000Y-51000000D01*
X164450000Y-46400000D02*
X164450000Y-51000000D01*
X164600000Y-46400000D02*
X164600000Y-51000000D01*
X164750000Y-46400000D02*
X164750000Y-51000000D01*
X164900000Y-46400000D02*
X164900000Y-51000000D01*
X164950000Y-46375000D02*
X162350000Y-46375000D01*
X164950000Y-51025000D02*
X162375000Y-51025000D01*
X165050000Y-46400000D02*
X165050000Y-50950000D01*
X165200000Y-46450000D02*
X165200000Y-50950000D01*
X165350000Y-46500000D02*
X165350000Y-50900000D01*
X165500000Y-46600000D02*
X165500000Y-50800000D01*
X165600000Y-46700000D02*
X165600000Y-50650000D01*
X165700000Y-46800000D02*
X165700000Y-50550000D01*
X165800000Y-46950000D02*
X165800000Y-50500000D01*
X165950000Y-50025000D02*
X165950000Y-47375000D01*
X161200000Y-52200000D02*
G75*
G02*
X162375000Y-51025000I1175002J-2D01*
G01*
X161487801Y-47078096D02*
G75*
G02*
X159350000Y-48575000I-2137800J778095D01*
G01*
X161487801Y-47078096D02*
G75*
G02*
X162349005Y-46376209I900000J-225000D01*
G01*
X164950000Y-46375000D02*
G75*
G02*
X165950000Y-47375000I1J-999999D01*
G01*
X165950000Y-50025000D02*
G75*
G02*
X164950000Y-51025000I-999999J-1D01*
G01*
D12*
X163050000Y-38964460D02*
X162042000Y-37951000D01*
X163050000Y-37948460D01*
X163050000Y-38964460D01*
G36*
X163050000Y-38964460D02*
G01*
X162042000Y-37951000D01*
X163050000Y-37948460D01*
X163050000Y-38964460D01*
G37*
D13*
X116650000Y-81048460D02*
X124950000Y-81048460D01*
D11*
X118250000Y-92700000D02*
X119275000Y-91675000D01*
X118250000Y-95300000D02*
X118250000Y-92700000D01*
X118250000Y-95300000D02*
X119275000Y-96325000D01*
X118400000Y-92550000D02*
X118400000Y-95450000D01*
X118550000Y-92450000D02*
X118550000Y-95600000D01*
X118700000Y-92250000D02*
X118700000Y-95750000D01*
X118850000Y-92100000D02*
X118850000Y-95900000D01*
X119000000Y-91950000D02*
X119000000Y-96050000D01*
X119150000Y-91850000D02*
X119150000Y-96200000D01*
X119300000Y-91700000D02*
X119300000Y-96300000D01*
X119450000Y-91700000D02*
X119450000Y-96300000D01*
X119600000Y-91700000D02*
X119600000Y-96300000D01*
X119750000Y-91700000D02*
X119750000Y-96300000D01*
X119900000Y-91700000D02*
X119900000Y-96300000D01*
X120050000Y-91700000D02*
X120050000Y-96300000D01*
X120200000Y-91700000D02*
X120200000Y-96300000D01*
X120350000Y-91700000D02*
X120350000Y-96300000D01*
X120500000Y-91700000D02*
X120500000Y-96300000D01*
X120650000Y-91700000D02*
X120650000Y-96300000D01*
X120800000Y-91700000D02*
X120800000Y-96300000D01*
X120950000Y-91700000D02*
X120950000Y-96300000D01*
X121100000Y-91700000D02*
X121100000Y-96300000D01*
X121250000Y-91675000D02*
X119275000Y-91675000D01*
X121250000Y-91700000D02*
X121250000Y-96300000D01*
X121400000Y-91700000D02*
X121400000Y-96250000D01*
X121550000Y-91650000D02*
X121550000Y-96300000D01*
X121700000Y-91650000D02*
X121700000Y-96300000D01*
X121825000Y-96325000D02*
X119275000Y-96325000D01*
X121825000Y-96325000D02*
X123100000Y-95300000D01*
X121850000Y-91650000D02*
X121850000Y-96250000D01*
X122000000Y-91600000D02*
X122000000Y-96150000D01*
X122150000Y-91500000D02*
X122150000Y-96050000D01*
X122300000Y-91450000D02*
X122300000Y-95900000D01*
X122450000Y-91350000D02*
X122450000Y-95800000D01*
X122600000Y-91250000D02*
X122600000Y-95650000D01*
X122750000Y-91150000D02*
X122750000Y-95550000D01*
X122900000Y-91000000D02*
X122900000Y-95450000D01*
X123050000Y-90850000D02*
X123050000Y-95300000D01*
X123150000Y-90650000D02*
X123150000Y-94800000D01*
X123250000Y-90500000D02*
X123250000Y-94650000D01*
X123350000Y-90300000D02*
X123350000Y-94450000D01*
X123450000Y-90150000D02*
X123450000Y-94350000D01*
X123550000Y-89900000D02*
X123550000Y-94300000D01*
X123650000Y-89750000D02*
X123650000Y-94250000D01*
X123800000Y-89650000D02*
X123800000Y-94200000D01*
X123950000Y-89550000D02*
X123950000Y-94100000D01*
X124100000Y-89500000D02*
X124100000Y-94100000D01*
X124250000Y-89500000D02*
X124250000Y-94100000D01*
X124400000Y-89500000D02*
X124400000Y-94050000D01*
X124550000Y-89500000D02*
X124550000Y-94100000D01*
X124700000Y-89500000D02*
X124700000Y-94100000D01*
X124850000Y-89500000D02*
X124850000Y-94100000D01*
D13*
X124950000Y-81048460D02*
X124950000Y-82699460D01*
X124950000Y-85751000D02*
X116650000Y-85748460D01*
D11*
X125000000Y-89500000D02*
X125000000Y-94100000D01*
X125150000Y-89500000D02*
X125150000Y-94100000D01*
X125300000Y-89500000D02*
X125300000Y-94100000D01*
X125450000Y-89500000D02*
X125450000Y-94100000D01*
X125600000Y-89500000D02*
X125600000Y-94100000D01*
X125750000Y-89500000D02*
X125750000Y-94100000D01*
X125900000Y-89500000D02*
X125900000Y-94100000D01*
X126050000Y-89500000D02*
X126050000Y-94100000D01*
X126200000Y-89500000D02*
X126200000Y-94100000D01*
X126350000Y-89500000D02*
X126350000Y-94100000D01*
X126500000Y-89500000D02*
X126500000Y-94100000D01*
X126650000Y-89500000D02*
X126650000Y-94100000D01*
X126800000Y-89500000D02*
X126800000Y-94100000D01*
X126850000Y-89475000D02*
X124250000Y-89475000D01*
X126850000Y-94125000D02*
X124275000Y-94125000D01*
X126950000Y-89500000D02*
X126950000Y-94050000D01*
X127100000Y-89550000D02*
X127100000Y-94050000D01*
X127250000Y-89600000D02*
X127250000Y-94000000D01*
X127400000Y-89700000D02*
X127400000Y-93900000D01*
X127500000Y-89800000D02*
X127500000Y-93750000D01*
X127600000Y-89900000D02*
X127600000Y-93650000D01*
X127700000Y-90050000D02*
X127700000Y-93600000D01*
X127850000Y-93125000D02*
X127850000Y-90475000D01*
X123100000Y-95300000D02*
G75*
G02*
X124275000Y-94125000I1175002J-2D01*
G01*
X123387801Y-90178096D02*
G75*
G02*
X121250000Y-91675000I-2137800J778095D01*
G01*
X123387801Y-90178096D02*
G75*
G02*
X124249005Y-89476209I900000J-225000D01*
G01*
X126850000Y-89475000D02*
G75*
G02*
X127850000Y-90475000I1J-999999D01*
G01*
X127850000Y-93125000D02*
G75*
G02*
X126850000Y-94125000I-999999J-1D01*
G01*
D12*
X124950000Y-82064460D02*
X123942000Y-81051000D01*
X124950000Y-81048460D01*
X124950000Y-82064460D01*
G36*
X124950000Y-82064460D02*
G01*
X123942000Y-81051000D01*
X124950000Y-81048460D01*
X124950000Y-82064460D01*
G37*
D13*
X135700000Y-78548460D02*
X144000000Y-78548460D01*
D11*
X137300000Y-90200000D02*
X138325000Y-89175000D01*
X137300000Y-92800000D02*
X137300000Y-90200000D01*
X137300000Y-92800000D02*
X138325000Y-93825000D01*
X137450000Y-90050000D02*
X137450000Y-92950000D01*
X137600000Y-89950000D02*
X137600000Y-93100000D01*
X137750000Y-89750000D02*
X137750000Y-93250000D01*
X137900000Y-89600000D02*
X137900000Y-93400000D01*
X138050000Y-89450000D02*
X138050000Y-93550000D01*
X138200000Y-89350000D02*
X138200000Y-93700000D01*
X138350000Y-89200000D02*
X138350000Y-93800000D01*
X138500000Y-89200000D02*
X138500000Y-93800000D01*
X138650000Y-89200000D02*
X138650000Y-93800000D01*
X138800000Y-89200000D02*
X138800000Y-93800000D01*
X138950000Y-89200000D02*
X138950000Y-93800000D01*
X139100000Y-89200000D02*
X139100000Y-93800000D01*
X139250000Y-89200000D02*
X139250000Y-93800000D01*
X139400000Y-89200000D02*
X139400000Y-93800000D01*
X139550000Y-89200000D02*
X139550000Y-93800000D01*
X139700000Y-89200000D02*
X139700000Y-93800000D01*
X139850000Y-89200000D02*
X139850000Y-93800000D01*
X140000000Y-89200000D02*
X140000000Y-93800000D01*
X140150000Y-89200000D02*
X140150000Y-93800000D01*
X140300000Y-89175000D02*
X138325000Y-89175000D01*
X140300000Y-89200000D02*
X140300000Y-93800000D01*
X140450000Y-89200000D02*
X140450000Y-93750000D01*
X140600000Y-89150000D02*
X140600000Y-93800000D01*
X140750000Y-89150000D02*
X140750000Y-93800000D01*
X140875000Y-93825000D02*
X138325000Y-93825000D01*
X140875000Y-93825000D02*
X142150000Y-92800000D01*
X140900000Y-89150000D02*
X140900000Y-93750000D01*
X141050000Y-89100000D02*
X141050000Y-93650000D01*
X141200000Y-89000000D02*
X141200000Y-93550000D01*
X141350000Y-88950000D02*
X141350000Y-93400000D01*
X141500000Y-88850000D02*
X141500000Y-93300000D01*
X141650000Y-88750000D02*
X141650000Y-93150000D01*
X141800000Y-88650000D02*
X141800000Y-93050000D01*
X141950000Y-88500000D02*
X141950000Y-92950000D01*
X142100000Y-88350000D02*
X142100000Y-92800000D01*
X142200000Y-88150000D02*
X142200000Y-92300000D01*
X142300000Y-88000000D02*
X142300000Y-92150000D01*
X142400000Y-87800000D02*
X142400000Y-91950000D01*
X142500000Y-87650000D02*
X142500000Y-91850000D01*
X142600000Y-87400000D02*
X142600000Y-91800000D01*
X142700000Y-87250000D02*
X142700000Y-91750000D01*
X142850000Y-87150000D02*
X142850000Y-91700000D01*
X143000000Y-87050000D02*
X143000000Y-91600000D01*
X143150000Y-87000000D02*
X143150000Y-91600000D01*
X143300000Y-87000000D02*
X143300000Y-91600000D01*
X143450000Y-87000000D02*
X143450000Y-91550000D01*
X143600000Y-87000000D02*
X143600000Y-91600000D01*
X143750000Y-87000000D02*
X143750000Y-91600000D01*
X143900000Y-87000000D02*
X143900000Y-91600000D01*
D13*
X144000000Y-78548460D02*
X144000000Y-80199460D01*
X144000000Y-83251000D02*
X135700000Y-83248460D01*
D11*
X144050000Y-87000000D02*
X144050000Y-91600000D01*
X144200000Y-87000000D02*
X144200000Y-91600000D01*
X144350000Y-87000000D02*
X144350000Y-91600000D01*
X144500000Y-87000000D02*
X144500000Y-91600000D01*
X144650000Y-87000000D02*
X144650000Y-91600000D01*
X144800000Y-87000000D02*
X144800000Y-91600000D01*
X144950000Y-87000000D02*
X144950000Y-91600000D01*
X145100000Y-87000000D02*
X145100000Y-91600000D01*
X145250000Y-87000000D02*
X145250000Y-91600000D01*
X145400000Y-87000000D02*
X145400000Y-91600000D01*
X145550000Y-87000000D02*
X145550000Y-91600000D01*
X145700000Y-87000000D02*
X145700000Y-91600000D01*
X145850000Y-87000000D02*
X145850000Y-91600000D01*
X145900000Y-86975000D02*
X143300000Y-86975000D01*
X145900000Y-91625000D02*
X143325000Y-91625000D01*
X146000000Y-87000000D02*
X146000000Y-91550000D01*
X146150000Y-87050000D02*
X146150000Y-91550000D01*
X146300000Y-87100000D02*
X146300000Y-91500000D01*
X146450000Y-87200000D02*
X146450000Y-91400000D01*
X146550000Y-87300000D02*
X146550000Y-91250000D01*
X146650000Y-87400000D02*
X146650000Y-91150000D01*
X146750000Y-87550000D02*
X146750000Y-91100000D01*
X146900000Y-90625000D02*
X146900000Y-87975000D01*
X142150000Y-92800000D02*
G75*
G02*
X143325000Y-91625000I1175002J-2D01*
G01*
X142437801Y-87678096D02*
G75*
G02*
X140300000Y-89175000I-2137800J778095D01*
G01*
X142437801Y-87678096D02*
G75*
G02*
X143299005Y-86976209I900000J-225000D01*
G01*
X145900000Y-86975000D02*
G75*
G02*
X146900000Y-87975000I1J-999999D01*
G01*
X146900000Y-90625000D02*
G75*
G02*
X145900000Y-91625000I-999999J-1D01*
G01*
D12*
X144000000Y-79564460D02*
X142992000Y-78551000D01*
X144000000Y-78548460D01*
X144000000Y-79564460D01*
G36*
X144000000Y-79564460D02*
G01*
X142992000Y-78551000D01*
X144000000Y-78548460D01*
X144000000Y-79564460D01*
G37*
D13*
X116650000Y-100098460D02*
X124950000Y-100098460D01*
D11*
X118250000Y-111750000D02*
X119275000Y-110725000D01*
X118250000Y-114350000D02*
X118250000Y-111750000D01*
X118250000Y-114350000D02*
X119275000Y-115375000D01*
X118400000Y-111600000D02*
X118400000Y-114500000D01*
X118550000Y-111500000D02*
X118550000Y-114650000D01*
X118700000Y-111300000D02*
X118700000Y-114800000D01*
X118850000Y-111150000D02*
X118850000Y-114950000D01*
X119000000Y-111000000D02*
X119000000Y-115100000D01*
X119150000Y-110900000D02*
X119150000Y-115250000D01*
X119300000Y-110750000D02*
X119300000Y-115350000D01*
X119450000Y-110750000D02*
X119450000Y-115350000D01*
X119600000Y-110750000D02*
X119600000Y-115350000D01*
X119750000Y-110750000D02*
X119750000Y-115350000D01*
X119900000Y-110750000D02*
X119900000Y-115350000D01*
X120050000Y-110750000D02*
X120050000Y-115350000D01*
X120200000Y-110750000D02*
X120200000Y-115350000D01*
X120350000Y-110750000D02*
X120350000Y-115350000D01*
X120500000Y-110750000D02*
X120500000Y-115350000D01*
X120650000Y-110750000D02*
X120650000Y-115350000D01*
X120800000Y-110750000D02*
X120800000Y-115350000D01*
X120950000Y-110750000D02*
X120950000Y-115350000D01*
X121100000Y-110750000D02*
X121100000Y-115350000D01*
X121250000Y-110725000D02*
X119275000Y-110725000D01*
X121250000Y-110750000D02*
X121250000Y-115350000D01*
X121400000Y-110750000D02*
X121400000Y-115300000D01*
X121550000Y-110700000D02*
X121550000Y-115350000D01*
X121700000Y-110700000D02*
X121700000Y-115350000D01*
X121825000Y-115375000D02*
X119275000Y-115375000D01*
X121825000Y-115375000D02*
X123100000Y-114350000D01*
X121850000Y-110700000D02*
X121850000Y-115300000D01*
X122000000Y-110650000D02*
X122000000Y-115200000D01*
X122150000Y-110550000D02*
X122150000Y-115100000D01*
X122300000Y-110500000D02*
X122300000Y-114950000D01*
X122450000Y-110400000D02*
X122450000Y-114850000D01*
X122600000Y-110300000D02*
X122600000Y-114700000D01*
X122750000Y-110200000D02*
X122750000Y-114600000D01*
X122900000Y-110050000D02*
X122900000Y-114500000D01*
X123050000Y-109900000D02*
X123050000Y-114350000D01*
X123150000Y-109700000D02*
X123150000Y-113850000D01*
X123250000Y-109550000D02*
X123250000Y-113700000D01*
X123350000Y-109350000D02*
X123350000Y-113500000D01*
X123450000Y-109200000D02*
X123450000Y-113400000D01*
X123550000Y-108950000D02*
X123550000Y-113350000D01*
X123650000Y-108800000D02*
X123650000Y-113300000D01*
X123800000Y-108700000D02*
X123800000Y-113250000D01*
X123950000Y-108600000D02*
X123950000Y-113150000D01*
X124100000Y-108550000D02*
X124100000Y-113150000D01*
X124250000Y-108550000D02*
X124250000Y-113150000D01*
X124400000Y-108550000D02*
X124400000Y-113100000D01*
X124550000Y-108550000D02*
X124550000Y-113150000D01*
X124700000Y-108550000D02*
X124700000Y-113150000D01*
X124850000Y-108550000D02*
X124850000Y-113150000D01*
D13*
X124950000Y-100098460D02*
X124950000Y-101749460D01*
X124950000Y-104801000D02*
X116650000Y-104798460D01*
D11*
X125000000Y-108550000D02*
X125000000Y-113150000D01*
X125150000Y-108550000D02*
X125150000Y-113150000D01*
X125300000Y-108550000D02*
X125300000Y-113150000D01*
X125450000Y-108550000D02*
X125450000Y-113150000D01*
X125600000Y-108550000D02*
X125600000Y-113150000D01*
X125750000Y-108550000D02*
X125750000Y-113150000D01*
X125900000Y-108550000D02*
X125900000Y-113150000D01*
X126050000Y-108550000D02*
X126050000Y-113150000D01*
X126200000Y-108550000D02*
X126200000Y-113150000D01*
X126350000Y-108550000D02*
X126350000Y-113150000D01*
X126500000Y-108550000D02*
X126500000Y-113150000D01*
X126650000Y-108550000D02*
X126650000Y-113150000D01*
X126800000Y-108550000D02*
X126800000Y-113150000D01*
X126850000Y-108525000D02*
X124250000Y-108525000D01*
X126850000Y-113175000D02*
X124275000Y-113175000D01*
X126950000Y-108550000D02*
X126950000Y-113100000D01*
X127100000Y-108600000D02*
X127100000Y-113100000D01*
X127250000Y-108650000D02*
X127250000Y-113050000D01*
X127400000Y-108750000D02*
X127400000Y-112950000D01*
X127500000Y-108850000D02*
X127500000Y-112800000D01*
X127600000Y-108950000D02*
X127600000Y-112700000D01*
X127700000Y-109100000D02*
X127700000Y-112650000D01*
X127850000Y-112175000D02*
X127850000Y-109525000D01*
X123100000Y-114350000D02*
G75*
G02*
X124275000Y-113175000I1175002J-2D01*
G01*
X123387801Y-109228096D02*
G75*
G02*
X121250000Y-110725000I-2137800J778095D01*
G01*
X123387801Y-109228096D02*
G75*
G02*
X124249005Y-108526209I900000J-225000D01*
G01*
X126850000Y-108525000D02*
G75*
G02*
X127850000Y-109525000I1J-999999D01*
G01*
X127850000Y-112175000D02*
G75*
G02*
X126850000Y-113175000I-999999J-1D01*
G01*
D12*
X124950000Y-101114460D02*
X123942000Y-100101000D01*
X124950000Y-100098460D01*
X124950000Y-101114460D01*
G36*
X124950000Y-101114460D02*
G01*
X123942000Y-100101000D01*
X124950000Y-100098460D01*
X124950000Y-101114460D01*
G37*
D13*
X154750000Y-95098460D02*
X163050000Y-95098460D01*
D11*
X156350000Y-106750000D02*
X157375000Y-105725000D01*
X156350000Y-109350000D02*
X156350000Y-106750000D01*
X156350000Y-109350000D02*
X157375000Y-110375000D01*
X156500000Y-106600000D02*
X156500000Y-109500000D01*
X156650000Y-106500000D02*
X156650000Y-109650000D01*
X156800000Y-106300000D02*
X156800000Y-109800000D01*
X156950000Y-106150000D02*
X156950000Y-109950000D01*
X157100000Y-106000000D02*
X157100000Y-110100000D01*
X157250000Y-105900000D02*
X157250000Y-110250000D01*
X157400000Y-105750000D02*
X157400000Y-110350000D01*
X157550000Y-105750000D02*
X157550000Y-110350000D01*
X157700000Y-105750000D02*
X157700000Y-110350000D01*
X157850000Y-105750000D02*
X157850000Y-110350000D01*
X158000000Y-105750000D02*
X158000000Y-110350000D01*
X158150000Y-105750000D02*
X158150000Y-110350000D01*
X158300000Y-105750000D02*
X158300000Y-110350000D01*
X158450000Y-105750000D02*
X158450000Y-110350000D01*
X158600000Y-105750000D02*
X158600000Y-110350000D01*
X158750000Y-105750000D02*
X158750000Y-110350000D01*
X158900000Y-105750000D02*
X158900000Y-110350000D01*
X159050000Y-105750000D02*
X159050000Y-110350000D01*
X159200000Y-105750000D02*
X159200000Y-110350000D01*
X159350000Y-105725000D02*
X157375000Y-105725000D01*
X159350000Y-105750000D02*
X159350000Y-110350000D01*
X159500000Y-105750000D02*
X159500000Y-110300000D01*
X159650000Y-105700000D02*
X159650000Y-110350000D01*
X159800000Y-105700000D02*
X159800000Y-110350000D01*
X159925000Y-110375000D02*
X157375000Y-110375000D01*
X159925000Y-110375000D02*
X161200000Y-109350000D01*
X159950000Y-105700000D02*
X159950000Y-110300000D01*
X160100000Y-105650000D02*
X160100000Y-110200000D01*
X160250000Y-105550000D02*
X160250000Y-110100000D01*
X160400000Y-105500000D02*
X160400000Y-109950000D01*
X160550000Y-105400000D02*
X160550000Y-109850000D01*
X160700000Y-105300000D02*
X160700000Y-109700000D01*
X160850000Y-105200000D02*
X160850000Y-109600000D01*
X161000000Y-105050000D02*
X161000000Y-109500000D01*
X161150000Y-104900000D02*
X161150000Y-109350000D01*
X161250000Y-104700000D02*
X161250000Y-108850000D01*
X161350000Y-104550000D02*
X161350000Y-108700000D01*
X161450000Y-104350000D02*
X161450000Y-108500000D01*
X161550000Y-104200000D02*
X161550000Y-108400000D01*
X161650000Y-103950000D02*
X161650000Y-108350000D01*
X161750000Y-103800000D02*
X161750000Y-108300000D01*
X161900000Y-103700000D02*
X161900000Y-108250000D01*
X162050000Y-103600000D02*
X162050000Y-108150000D01*
X162200000Y-103550000D02*
X162200000Y-108150000D01*
X162350000Y-103550000D02*
X162350000Y-108150000D01*
X162500000Y-103550000D02*
X162500000Y-108100000D01*
X162650000Y-103550000D02*
X162650000Y-108150000D01*
X162800000Y-103550000D02*
X162800000Y-108150000D01*
X162950000Y-103550000D02*
X162950000Y-108150000D01*
D13*
X163050000Y-95098460D02*
X163050000Y-96749460D01*
X163050000Y-99801000D02*
X154750000Y-99798460D01*
D11*
X163100000Y-103550000D02*
X163100000Y-108150000D01*
X163250000Y-103550000D02*
X163250000Y-108150000D01*
X163400000Y-103550000D02*
X163400000Y-108150000D01*
X163550000Y-103550000D02*
X163550000Y-108150000D01*
X163700000Y-103550000D02*
X163700000Y-108150000D01*
X163850000Y-103550000D02*
X163850000Y-108150000D01*
X164000000Y-103550000D02*
X164000000Y-108150000D01*
X164150000Y-103550000D02*
X164150000Y-108150000D01*
X164300000Y-103550000D02*
X164300000Y-108150000D01*
X164450000Y-103550000D02*
X164450000Y-108150000D01*
X164600000Y-103550000D02*
X164600000Y-108150000D01*
X164750000Y-103550000D02*
X164750000Y-108150000D01*
X164900000Y-103550000D02*
X164900000Y-108150000D01*
X164950000Y-103525000D02*
X162350000Y-103525000D01*
X164950000Y-108175000D02*
X162375000Y-108175000D01*
X165050000Y-103550000D02*
X165050000Y-108100000D01*
X165200000Y-103600000D02*
X165200000Y-108100000D01*
X165350000Y-103650000D02*
X165350000Y-108050000D01*
X165500000Y-103750000D02*
X165500000Y-107950000D01*
X165600000Y-103850000D02*
X165600000Y-107800000D01*
X165700000Y-103950000D02*
X165700000Y-107700000D01*
X165800000Y-104100000D02*
X165800000Y-107650000D01*
X165950000Y-107175000D02*
X165950000Y-104525000D01*
X161200000Y-109350000D02*
G75*
G02*
X162375000Y-108175000I1175002J-2D01*
G01*
X161487801Y-104228096D02*
G75*
G02*
X159350000Y-105725000I-2137800J778095D01*
G01*
X161487801Y-104228096D02*
G75*
G02*
X162349005Y-103526209I900000J-225000D01*
G01*
X164950000Y-103525000D02*
G75*
G02*
X165950000Y-104525000I1J-999999D01*
G01*
X165950000Y-107175000D02*
G75*
G02*
X164950000Y-108175000I-999999J-1D01*
G01*
D12*
X163050000Y-96114460D02*
X162042000Y-95101000D01*
X163050000Y-95098460D01*
X163050000Y-96114460D01*
G36*
X163050000Y-96114460D02*
G01*
X162042000Y-95101000D01*
X163050000Y-95098460D01*
X163050000Y-96114460D01*
G37*
D13*
X192850000Y-102498460D02*
X201150000Y-102498460D01*
D11*
X194450000Y-114150000D02*
X195475000Y-113125000D01*
X194450000Y-116750000D02*
X194450000Y-114150000D01*
X194450000Y-116750000D02*
X195475000Y-117775000D01*
X194600000Y-114000000D02*
X194600000Y-116900000D01*
X194750000Y-113900000D02*
X194750000Y-117050000D01*
X194900000Y-113700000D02*
X194900000Y-117200000D01*
X195050000Y-113550000D02*
X195050000Y-117350000D01*
X195200000Y-113400000D02*
X195200000Y-117500000D01*
X195350000Y-113300000D02*
X195350000Y-117650000D01*
X195500000Y-113150000D02*
X195500000Y-117750000D01*
X195650000Y-113150000D02*
X195650000Y-117750000D01*
X195800000Y-113150000D02*
X195800000Y-117750000D01*
X195950000Y-113150000D02*
X195950000Y-117750000D01*
X196100000Y-113150000D02*
X196100000Y-117750000D01*
X196250000Y-113150000D02*
X196250000Y-117750000D01*
X196400000Y-113150000D02*
X196400000Y-117750000D01*
X196550000Y-113150000D02*
X196550000Y-117750000D01*
X196700000Y-113150000D02*
X196700000Y-117750000D01*
X196850000Y-113150000D02*
X196850000Y-117750000D01*
X197000000Y-113150000D02*
X197000000Y-117750000D01*
X197150000Y-113150000D02*
X197150000Y-117750000D01*
X197300000Y-113150000D02*
X197300000Y-117750000D01*
X197450000Y-113125000D02*
X195475000Y-113125000D01*
X197450000Y-113150000D02*
X197450000Y-117750000D01*
X197600000Y-113150000D02*
X197600000Y-117700000D01*
X197750000Y-113100000D02*
X197750000Y-117750000D01*
X197900000Y-113100000D02*
X197900000Y-117750000D01*
X198025000Y-117775000D02*
X195475000Y-117775000D01*
X198025000Y-117775000D02*
X199300000Y-116750000D01*
X198050000Y-113100000D02*
X198050000Y-117700000D01*
X198200000Y-113050000D02*
X198200000Y-117600000D01*
X198350000Y-112950000D02*
X198350000Y-117500000D01*
X198500000Y-112900000D02*
X198500000Y-117350000D01*
X198650000Y-112800000D02*
X198650000Y-117250000D01*
X198800000Y-112700000D02*
X198800000Y-117100000D01*
X198950000Y-112600000D02*
X198950000Y-117000000D01*
X199100000Y-112450000D02*
X199100000Y-116900000D01*
X199250000Y-112300000D02*
X199250000Y-116750000D01*
X199350000Y-112100000D02*
X199350000Y-116250000D01*
X199450000Y-111950000D02*
X199450000Y-116100000D01*
X199550000Y-111750000D02*
X199550000Y-115900000D01*
X199650000Y-111600000D02*
X199650000Y-115800000D01*
X199750000Y-111350000D02*
X199750000Y-115750000D01*
X199850000Y-111200000D02*
X199850000Y-115700000D01*
X200000000Y-111100000D02*
X200000000Y-115650000D01*
X200150000Y-111000000D02*
X200150000Y-115550000D01*
X200300000Y-110950000D02*
X200300000Y-115550000D01*
X200450000Y-110950000D02*
X200450000Y-115550000D01*
X200600000Y-110950000D02*
X200600000Y-115500000D01*
X200750000Y-110950000D02*
X200750000Y-115550000D01*
X200900000Y-110950000D02*
X200900000Y-115550000D01*
X201050000Y-110950000D02*
X201050000Y-115550000D01*
D13*
X201150000Y-102498460D02*
X201150000Y-104149460D01*
X201150000Y-107201000D02*
X192850000Y-107198460D01*
D11*
X201200000Y-110950000D02*
X201200000Y-115550000D01*
X201350000Y-110950000D02*
X201350000Y-115550000D01*
X201500000Y-110950000D02*
X201500000Y-115550000D01*
X201650000Y-110950000D02*
X201650000Y-115550000D01*
X201800000Y-110950000D02*
X201800000Y-115550000D01*
X201950000Y-110950000D02*
X201950000Y-115550000D01*
X202100000Y-110950000D02*
X202100000Y-115550000D01*
X202250000Y-110950000D02*
X202250000Y-115550000D01*
X202400000Y-110950000D02*
X202400000Y-115550000D01*
X202550000Y-110950000D02*
X202550000Y-115550000D01*
X202700000Y-110950000D02*
X202700000Y-115550000D01*
X202850000Y-110950000D02*
X202850000Y-115550000D01*
X203000000Y-110950000D02*
X203000000Y-115550000D01*
X203050000Y-110925000D02*
X200450000Y-110925000D01*
X203050000Y-115575000D02*
X200475000Y-115575000D01*
X203150000Y-110950000D02*
X203150000Y-115500000D01*
X203300000Y-111000000D02*
X203300000Y-115500000D01*
X203450000Y-111050000D02*
X203450000Y-115450000D01*
X203600000Y-111150000D02*
X203600000Y-115350000D01*
X203700000Y-111250000D02*
X203700000Y-115200000D01*
X203800000Y-111350000D02*
X203800000Y-115100000D01*
X203900000Y-111500000D02*
X203900000Y-115050000D01*
X204050000Y-114575000D02*
X204050000Y-111925000D01*
X199300000Y-116750000D02*
G75*
G02*
X200475000Y-115575000I1175002J-2D01*
G01*
X199587801Y-111628096D02*
G75*
G02*
X197450000Y-113125000I-2137800J778095D01*
G01*
X199587801Y-111628096D02*
G75*
G02*
X200449005Y-110926209I900000J-225000D01*
G01*
X203050000Y-110925000D02*
G75*
G02*
X204050000Y-111925000I1J-999999D01*
G01*
X204050000Y-114575000D02*
G75*
G02*
X203050000Y-115575000I-999999J-1D01*
G01*
D12*
X201150000Y-103514460D02*
X200142000Y-102501000D01*
X201150000Y-102498460D01*
X201150000Y-103514460D01*
G36*
X201150000Y-103514460D02*
G01*
X200142000Y-102501000D01*
X201150000Y-102498460D01*
X201150000Y-103514460D01*
G37*
D11*
X89324617Y-135008142D02*
X88949441Y-136408318D01*
X89324617Y-135008142D02*
X91576283Y-133708142D01*
X90224441Y-138616682D02*
X88949441Y-136408318D01*
X90224441Y-138616682D02*
X91749617Y-139208365D01*
X91576283Y-133708142D02*
X92976459Y-134083318D01*
X91781187Y-133763045D02*
X89269713Y-135213045D01*
X91942789Y-133842949D02*
X89214809Y-135417949D01*
X92190995Y-133872853D02*
X89159906Y-135622853D01*
X92395898Y-133927757D02*
X89105002Y-135827757D01*
X92600802Y-133982661D02*
X89050098Y-136032661D01*
X92762405Y-134062564D02*
X88995194Y-136237564D01*
X92967309Y-134117468D02*
X88983592Y-136417468D01*
X93042309Y-134247372D02*
X89058592Y-136547372D01*
X93117309Y-134377276D02*
X89133592Y-136677276D01*
X93192309Y-134507181D02*
X89208592Y-136807180D01*
X93267309Y-134637083D02*
X89283593Y-136937083D01*
X93342309Y-134766987D02*
X89358592Y-137066987D01*
X93417309Y-134896891D02*
X89433592Y-137196891D01*
X93492309Y-135026795D02*
X89508592Y-137326795D01*
X93567309Y-135156699D02*
X89583592Y-137456699D01*
X93642309Y-135286603D02*
X89658592Y-137586603D01*
X93717309Y-135416506D02*
X89733592Y-137716506D01*
X93792309Y-135546410D02*
X89808592Y-137846410D01*
X93867309Y-135676314D02*
X89883592Y-137976314D01*
X93942309Y-135806218D02*
X89958592Y-138106218D01*
X93963959Y-135793718D02*
X92976459Y-134083318D01*
X94017309Y-135936122D02*
X90076893Y-138211122D01*
X94135610Y-136041025D02*
X90108592Y-138366025D01*
X94210610Y-136170929D02*
X90183592Y-138495929D01*
X94285610Y-136300833D02*
X90301893Y-138600833D01*
X94403911Y-136405737D02*
X90463495Y-138680737D01*
X94565514Y-136485641D02*
X90625098Y-138760641D01*
X94642197Y-141868460D02*
X93354697Y-139638445D01*
X94683815Y-136590544D02*
X90830002Y-138815544D01*
X94845417Y-136670448D02*
X90991604Y-138895448D01*
X95007020Y-136750352D02*
X91196508Y-138950352D01*
X95168623Y-136830256D02*
X91358111Y-139030256D01*
X95373526Y-136885160D02*
X91519713Y-139110160D01*
X95578430Y-136940064D02*
X91724617Y-139165064D01*
X95801635Y-136926666D02*
X92207630Y-139001666D01*
X95981539Y-136938269D02*
X92387534Y-139013269D01*
X96008222Y-142234485D02*
X98303191Y-140909485D01*
X96204744Y-136924871D02*
X92610739Y-138999871D01*
X96384648Y-136936474D02*
X92747341Y-139036474D01*
X96651154Y-136898076D02*
X92840642Y-139098076D01*
X96831058Y-136909679D02*
X92933944Y-139159679D01*
X96992661Y-136989583D02*
X93052245Y-139264583D01*
X97154263Y-137069486D02*
X93213848Y-139344486D01*
X97272564Y-137174390D02*
X93288848Y-139474390D01*
X97347564Y-137304294D02*
X93363848Y-139604294D01*
X97422564Y-137434198D02*
X93482149Y-139709198D01*
X97497564Y-137564102D02*
X93513848Y-139864102D01*
X97572564Y-137694005D02*
X93588848Y-139994005D01*
X97647564Y-137823909D02*
X93663848Y-140123909D01*
X97722564Y-137953813D02*
X93738848Y-140253813D01*
X97797564Y-138083717D02*
X93813848Y-140383717D01*
X97872564Y-138213621D02*
X93888848Y-140513621D01*
X97947564Y-138343524D02*
X93963848Y-140643524D01*
X98022564Y-138473428D02*
X94038848Y-140773428D01*
X98097564Y-138603332D02*
X94113848Y-140903332D01*
X98172564Y-138733236D02*
X94188848Y-141033236D01*
X98247564Y-138863140D02*
X94263848Y-141163140D01*
X98322564Y-138993044D02*
X94338848Y-141293044D01*
X98397564Y-139122946D02*
X94413848Y-141422947D01*
X98472564Y-139252851D02*
X94488848Y-141552851D01*
X98547564Y-139382755D02*
X94563848Y-141682755D01*
X98596250Y-140567082D02*
X95521860Y-142342082D01*
X98622564Y-139512659D02*
X94638848Y-141812659D01*
X98669215Y-139543460D02*
X97369215Y-137291794D01*
X98676154Y-140405479D02*
X95428559Y-142280479D01*
X98697564Y-139642563D02*
X94757149Y-141917563D01*
X98712757Y-140268877D02*
X95291956Y-142243877D01*
X98729263Y-139797466D02*
X94832149Y-142047466D01*
X98749359Y-140132274D02*
X95112053Y-142232274D01*
X98760962Y-139952370D02*
X94950450Y-142152370D01*
D13*
X100866813Y-126496731D02*
X105016813Y-133684742D01*
X100944294Y-136036012D02*
X96796493Y-128846731D01*
X105016813Y-133684742D02*
X103587005Y-134510242D01*
D11*
X91749617Y-139208365D02*
G75*
G02*
X93354697Y-139638445I587500J-1017580D01*
G01*
X96008222Y-142234485D02*
G75*
G02*
X94642196Y-141868460I-500001J866023D01*
G01*
X96329217Y-136896656D02*
G75*
G02*
X93963960Y-135793718I-395052J2240432D01*
G01*
X96329217Y-136896656D02*
G75*
G02*
X97367671Y-137291537I255144J-891923D01*
G01*
X98669215Y-139543460D02*
G75*
G02*
X98303191Y-140909484I-866024J-500000D01*
G01*
D12*
X105016813Y-133684742D02*
X104136931Y-134192742D01*
X104510613Y-132813058D01*
X105016813Y-133684742D01*
G36*
X105016813Y-133684742D02*
G01*
X104136931Y-134192742D01*
X104510613Y-132813058D01*
X105016813Y-133684742D01*
G37*
D11*
X95811000Y-68157000D02*
X97589000Y-68157000D01*
X95811000Y-70443000D02*
X95811000Y-68157000D01*
X97589000Y-68157000D02*
X97589000Y-70443000D01*
X97589000Y-70443000D02*
X95811000Y-70443000D01*
X95430000Y-73330000D02*
X105590000Y-73330000D01*
X95430000Y-75870000D02*
X95430000Y-73330000D01*
X95430000Y-75870000D02*
X105590000Y-75870000D01*
X105590000Y-73330000D02*
X105590000Y-75870000D01*
D13*
X112007816Y-122598130D02*
X120025001Y-120449932D01*
D11*
X116568938Y-133438543D02*
X117293723Y-132183179D01*
X116675004Y-133254831D02*
X117425579Y-136056016D01*
X116794011Y-133119415D02*
X117609291Y-136162082D01*
X116887136Y-132887407D02*
X117793003Y-136268148D01*
X116993202Y-132703696D02*
X117976715Y-136374214D01*
X117099268Y-132519984D02*
X118160426Y-136480280D01*
X117218275Y-132384569D02*
X118344138Y-136586346D01*
X117241868Y-135949950D02*
X116568938Y-133438543D01*
X117241868Y-135949950D02*
X118497231Y-136674734D01*
X117324341Y-132200857D02*
X118514909Y-136644116D01*
X117469230Y-132162034D02*
X118659798Y-136605293D01*
X117614119Y-132123211D02*
X118804687Y-136566470D01*
X117759008Y-132084388D02*
X118949576Y-136527647D01*
X117903897Y-132045565D02*
X119094464Y-136488824D01*
X118048786Y-132006742D02*
X119239353Y-136450001D01*
X118193675Y-131967920D02*
X119384242Y-136411178D01*
X118338563Y-131929097D02*
X119529131Y-136372356D01*
X118483452Y-131890274D02*
X119674020Y-136333533D01*
X118628341Y-131851451D02*
X119818909Y-136294710D01*
X118773230Y-131812628D02*
X119963798Y-136255887D01*
X118918119Y-131773805D02*
X120108687Y-136217064D01*
X119063008Y-131734982D02*
X120253575Y-136178241D01*
X119201426Y-131672011D02*
X117293723Y-132183179D01*
X119207897Y-131696160D02*
X120398464Y-136139418D01*
X119352786Y-131657337D02*
X120530412Y-136052299D01*
X119484732Y-131570218D02*
X120688242Y-136061773D01*
X119629622Y-131531395D02*
X120833131Y-136022950D01*
X119774511Y-131492572D02*
X120965079Y-135935831D01*
X119906459Y-131405453D02*
X121084086Y-135800415D01*
D13*
X120025001Y-120449932D02*
X120452311Y-122044675D01*
D11*
X120025466Y-131270037D02*
X121203093Y-135665000D01*
X120157414Y-131182918D02*
X121309159Y-135481288D01*
X120276421Y-131047503D02*
X121428166Y-135345873D01*
X120395428Y-130912087D02*
X121534232Y-135162161D01*
X120514435Y-130776672D02*
X121653239Y-135026746D01*
X120620501Y-130592960D02*
X121772246Y-134891330D01*
X120726567Y-130409248D02*
X121878312Y-134707618D01*
X120771396Y-130190181D02*
X121845495Y-134198774D01*
X120829164Y-130019411D02*
X121903264Y-134028003D01*
X120873994Y-129800343D02*
X121948093Y-133808936D01*
X120931764Y-129629573D02*
X122018804Y-133686461D01*
X120960342Y-136014746D02*
X118497231Y-136674734D01*
X120960342Y-136014746D02*
X121926608Y-134694677D01*
X120963652Y-129362209D02*
X122102456Y-133612283D01*
X121021421Y-129191439D02*
X122186107Y-133538105D01*
X121140428Y-129056023D02*
X122318055Y-133450986D01*
D13*
X121242108Y-124992236D02*
X113224266Y-127137981D01*
D11*
X121259435Y-128920608D02*
X122437062Y-133315570D01*
X121391383Y-128833489D02*
X122581951Y-133276747D01*
X121536272Y-128794666D02*
X122726840Y-133237924D01*
X121681161Y-128755843D02*
X122858788Y-133150805D01*
X121826050Y-128717020D02*
X123016618Y-133160279D01*
X121970939Y-128678197D02*
X123161506Y-133121456D01*
X122115828Y-128639374D02*
X123306395Y-133082633D01*
X122260718Y-128600551D02*
X123451284Y-133043810D01*
X122405604Y-128561729D02*
X123596173Y-133004987D01*
X122550494Y-128522906D02*
X123741062Y-132966164D01*
X122695383Y-128484083D02*
X123885951Y-132927342D01*
X122840272Y-128445260D02*
X124030840Y-132888519D01*
X122985161Y-128406437D02*
X124175729Y-132849696D01*
X123130050Y-128367614D02*
X124320617Y-132810873D01*
X123274939Y-128328791D02*
X124465506Y-132772050D01*
X123419828Y-128289970D02*
X124610395Y-132733227D01*
X123564715Y-128251146D02*
X124755284Y-132694404D01*
X123709605Y-128212323D02*
X124900173Y-132655582D01*
X123854494Y-128173500D02*
X125045062Y-132616759D01*
X123999383Y-128134677D02*
X125189951Y-132577936D01*
X124041209Y-128097588D02*
X121529802Y-128770519D01*
X124144272Y-128095854D02*
X125321899Y-132490817D01*
X124302102Y-128105328D02*
X125466787Y-132451994D01*
X124459932Y-128114801D02*
X125598735Y-132364875D01*
X124630702Y-128172571D02*
X125717742Y-132229459D01*
X124753177Y-128243282D02*
X125775512Y-132058689D01*
X124875651Y-128313992D02*
X125846223Y-131936214D01*
X125011067Y-128432999D02*
X125929874Y-131862036D01*
X125244717Y-132589143D02*
X122757458Y-133255602D01*
X125951824Y-131364398D02*
X125265954Y-128804695D01*
X120878956Y-129672810D02*
G75*
G02*
X119201426Y-131672010I-2266341J198280D01*
G01*
X120878956Y-129672810D02*
G75*
G02*
X121529154Y-128771942I927568J15604D01*
G01*
X121926608Y-134694677D02*
G75*
G02*
X122757458Y-133255602I1134967J304110D01*
G01*
X124041209Y-128097588D02*
G75*
G02*
X125265954Y-128804695I258818J-965927D01*
G01*
X125951824Y-131364398D02*
G75*
G02*
X125244717Y-132589143I-965935J-258814D01*
G01*
D12*
X120287961Y-121431312D02*
X119052005Y-120713275D01*
X120025001Y-120449932D01*
X120287961Y-121431312D01*
G36*
X120287961Y-121431312D02*
G01*
X119052005Y-120713275D01*
X120025001Y-120449932D01*
X120287961Y-121431312D01*
G37*
D13*
X211900000Y-64398460D02*
X220200000Y-64398460D01*
D11*
X213500000Y-76050000D02*
X214525000Y-75025000D01*
X213500000Y-78650000D02*
X213500000Y-76050000D01*
X213500000Y-78650000D02*
X214525000Y-79675000D01*
X213650000Y-75900000D02*
X213650000Y-78800000D01*
X213800000Y-75800000D02*
X213800000Y-78950000D01*
X213950000Y-75600000D02*
X213950000Y-79100000D01*
X214100000Y-75450000D02*
X214100000Y-79250000D01*
X214250000Y-75300000D02*
X214250000Y-79400000D01*
X214400000Y-75200000D02*
X214400000Y-79550000D01*
X214550000Y-75050000D02*
X214550000Y-79650000D01*
X214700000Y-75050000D02*
X214700000Y-79650000D01*
X214850000Y-75050000D02*
X214850000Y-79650000D01*
X215000000Y-75050000D02*
X215000000Y-79650000D01*
X215150000Y-75050000D02*
X215150000Y-79650000D01*
X215300000Y-75050000D02*
X215300000Y-79650000D01*
X215450000Y-75050000D02*
X215450000Y-79650000D01*
X215600000Y-75050000D02*
X215600000Y-79650000D01*
X215750000Y-75050000D02*
X215750000Y-79650000D01*
X215900000Y-75050000D02*
X215900000Y-79650000D01*
X216050000Y-75050000D02*
X216050000Y-79650000D01*
X216200000Y-75050000D02*
X216200000Y-79650000D01*
X216350000Y-75050000D02*
X216350000Y-79650000D01*
X216500000Y-75025000D02*
X214525000Y-75025000D01*
X216500000Y-75050000D02*
X216500000Y-79650000D01*
X216650000Y-75050000D02*
X216650000Y-79600000D01*
X216800000Y-75000000D02*
X216800000Y-79650000D01*
X216950000Y-75000000D02*
X216950000Y-79650000D01*
X217075000Y-79675000D02*
X214525000Y-79675000D01*
X217075000Y-79675000D02*
X218350000Y-78650000D01*
X217100000Y-75000000D02*
X217100000Y-79600000D01*
X217250000Y-74950000D02*
X217250000Y-79500000D01*
X217400000Y-74850000D02*
X217400000Y-79400000D01*
X217550000Y-74800000D02*
X217550000Y-79250000D01*
X217700000Y-74700000D02*
X217700000Y-79150000D01*
X217850000Y-74600000D02*
X217850000Y-79000000D01*
X218000000Y-74500000D02*
X218000000Y-78900000D01*
X218150000Y-74350000D02*
X218150000Y-78800000D01*
X218300000Y-74200000D02*
X218300000Y-78650000D01*
X218400000Y-74000000D02*
X218400000Y-78150000D01*
X218500000Y-73850000D02*
X218500000Y-78000000D01*
X218600000Y-73650000D02*
X218600000Y-77800000D01*
X218700000Y-73500000D02*
X218700000Y-77700000D01*
X218800000Y-73250000D02*
X218800000Y-77650000D01*
X218900000Y-73100000D02*
X218900000Y-77600000D01*
X219050000Y-73000000D02*
X219050000Y-77550000D01*
X219200000Y-72900000D02*
X219200000Y-77450000D01*
X219350000Y-72850000D02*
X219350000Y-77450000D01*
X219500000Y-72850000D02*
X219500000Y-77450000D01*
X219650000Y-72850000D02*
X219650000Y-77400000D01*
X219800000Y-72850000D02*
X219800000Y-77450000D01*
X219950000Y-72850000D02*
X219950000Y-77450000D01*
X220100000Y-72850000D02*
X220100000Y-77450000D01*
D13*
X220200000Y-64398460D02*
X220200000Y-66049460D01*
X220200000Y-69101000D02*
X211900000Y-69098460D01*
D11*
X220250000Y-72850000D02*
X220250000Y-77450000D01*
X220400000Y-72850000D02*
X220400000Y-77450000D01*
X220550000Y-72850000D02*
X220550000Y-77450000D01*
X220700000Y-72850000D02*
X220700000Y-77450000D01*
X220850000Y-72850000D02*
X220850000Y-77450000D01*
X221000000Y-72850000D02*
X221000000Y-77450000D01*
X221150000Y-72850000D02*
X221150000Y-77450000D01*
X221300000Y-72850000D02*
X221300000Y-77450000D01*
X221450000Y-72850000D02*
X221450000Y-77450000D01*
X221600000Y-72850000D02*
X221600000Y-77450000D01*
X221750000Y-72850000D02*
X221750000Y-77450000D01*
X221900000Y-72850000D02*
X221900000Y-77450000D01*
X222050000Y-72850000D02*
X222050000Y-77450000D01*
X222100000Y-72825000D02*
X219500000Y-72825000D01*
X222100000Y-77475000D02*
X219525000Y-77475000D01*
X222200000Y-72850000D02*
X222200000Y-77400000D01*
X222350000Y-72900000D02*
X222350000Y-77400000D01*
X222500000Y-72950000D02*
X222500000Y-77350000D01*
X222650000Y-73050000D02*
X222650000Y-77250000D01*
X222750000Y-73150000D02*
X222750000Y-77100000D01*
X222850000Y-73250000D02*
X222850000Y-77000000D01*
X222950000Y-73400000D02*
X222950000Y-76950000D01*
X223100000Y-76475000D02*
X223100000Y-73825000D01*
X218350000Y-78650000D02*
G75*
G02*
X219525000Y-77475000I1175002J-2D01*
G01*
X218637801Y-73528096D02*
G75*
G02*
X216500000Y-75025000I-2137800J778095D01*
G01*
X218637801Y-73528096D02*
G75*
G02*
X219499005Y-72826209I900000J-225000D01*
G01*
X222100000Y-72825000D02*
G75*
G02*
X223100000Y-73825000I1J-999999D01*
G01*
X223100000Y-76475000D02*
G75*
G02*
X222100000Y-77475000I-999999J-1D01*
G01*
D12*
X220200000Y-65414460D02*
X219192000Y-64401000D01*
X220200000Y-64398460D01*
X220200000Y-65414460D01*
G36*
X220200000Y-65414460D02*
G01*
X219192000Y-64401000D01*
X220200000Y-64398460D01*
X220200000Y-65414460D01*
G37*
D13*
X211900000Y-83448460D02*
X220200000Y-83448460D01*
D11*
X213500000Y-95100000D02*
X214525000Y-94075000D01*
X213500000Y-97700000D02*
X213500000Y-95100000D01*
X213500000Y-97700000D02*
X214525000Y-98725000D01*
X213650000Y-94950000D02*
X213650000Y-97850000D01*
X213800000Y-94850000D02*
X213800000Y-98000000D01*
X213950000Y-94650000D02*
X213950000Y-98150000D01*
X214100000Y-94500000D02*
X214100000Y-98300000D01*
X214250000Y-94350000D02*
X214250000Y-98450000D01*
X214400000Y-94250000D02*
X214400000Y-98600000D01*
X214550000Y-94100000D02*
X214550000Y-98700000D01*
X214700000Y-94100000D02*
X214700000Y-98700000D01*
X214850000Y-94100000D02*
X214850000Y-98700000D01*
X215000000Y-94100000D02*
X215000000Y-98700000D01*
X215150000Y-94100000D02*
X215150000Y-98700000D01*
X215300000Y-94100000D02*
X215300000Y-98700000D01*
X215450000Y-94100000D02*
X215450000Y-98700000D01*
X215600000Y-94100000D02*
X215600000Y-98700000D01*
X215750000Y-94100000D02*
X215750000Y-98700000D01*
X215900000Y-94100000D02*
X215900000Y-98700000D01*
X216050000Y-94100000D02*
X216050000Y-98700000D01*
X216200000Y-94100000D02*
X216200000Y-98700000D01*
X216350000Y-94100000D02*
X216350000Y-98700000D01*
X216500000Y-94075000D02*
X214525000Y-94075000D01*
X216500000Y-94100000D02*
X216500000Y-98700000D01*
X216650000Y-94100000D02*
X216650000Y-98650000D01*
X216800000Y-94050000D02*
X216800000Y-98700000D01*
X216950000Y-94050000D02*
X216950000Y-98700000D01*
X217075000Y-98725000D02*
X214525000Y-98725000D01*
X217075000Y-98725000D02*
X218350000Y-97700000D01*
X217100000Y-94050000D02*
X217100000Y-98650000D01*
X217250000Y-94000000D02*
X217250000Y-98550000D01*
X217400000Y-93900000D02*
X217400000Y-98450000D01*
X217550000Y-93850000D02*
X217550000Y-98300000D01*
X217700000Y-93750000D02*
X217700000Y-98200000D01*
X217850000Y-93650000D02*
X217850000Y-98050000D01*
X218000000Y-93550000D02*
X218000000Y-97950000D01*
X218150000Y-93400000D02*
X218150000Y-97850000D01*
X218300000Y-93250000D02*
X218300000Y-97700000D01*
X218400000Y-93050000D02*
X218400000Y-97200000D01*
X218500000Y-92900000D02*
X218500000Y-97050000D01*
X218600000Y-92700000D02*
X218600000Y-96850000D01*
X218700000Y-92550000D02*
X218700000Y-96750000D01*
X218800000Y-92300000D02*
X218800000Y-96700000D01*
X218900000Y-92150000D02*
X218900000Y-96650000D01*
X219050000Y-92050000D02*
X219050000Y-96600000D01*
X219200000Y-91950000D02*
X219200000Y-96500000D01*
X219350000Y-91900000D02*
X219350000Y-96500000D01*
X219500000Y-91900000D02*
X219500000Y-96500000D01*
X219650000Y-91900000D02*
X219650000Y-96450000D01*
X219800000Y-91900000D02*
X219800000Y-96500000D01*
X219950000Y-91900000D02*
X219950000Y-96500000D01*
X220100000Y-91900000D02*
X220100000Y-96500000D01*
D13*
X220200000Y-83448460D02*
X220200000Y-85099460D01*
X220200000Y-88151000D02*
X211900000Y-88148460D01*
D11*
X220250000Y-91900000D02*
X220250000Y-96500000D01*
X220400000Y-91900000D02*
X220400000Y-96500000D01*
X220550000Y-91900000D02*
X220550000Y-96500000D01*
X220700000Y-91900000D02*
X220700000Y-96500000D01*
X220850000Y-91900000D02*
X220850000Y-96500000D01*
X221000000Y-91900000D02*
X221000000Y-96500000D01*
X221150000Y-91900000D02*
X221150000Y-96500000D01*
X221300000Y-91900000D02*
X221300000Y-96500000D01*
X221450000Y-91900000D02*
X221450000Y-96500000D01*
X221600000Y-91900000D02*
X221600000Y-96500000D01*
X221750000Y-91900000D02*
X221750000Y-96500000D01*
X221900000Y-91900000D02*
X221900000Y-96500000D01*
X222050000Y-91900000D02*
X222050000Y-96500000D01*
X222100000Y-91875000D02*
X219500000Y-91875000D01*
X222100000Y-96525000D02*
X219525000Y-96525000D01*
X222200000Y-91900000D02*
X222200000Y-96450000D01*
X222350000Y-91950000D02*
X222350000Y-96450000D01*
X222500000Y-92000000D02*
X222500000Y-96400000D01*
X222650000Y-92100000D02*
X222650000Y-96300000D01*
X222750000Y-92200000D02*
X222750000Y-96150000D01*
X222850000Y-92300000D02*
X222850000Y-96050000D01*
X222950000Y-92450000D02*
X222950000Y-96000000D01*
X223100000Y-95525000D02*
X223100000Y-92875000D01*
X218350000Y-97700000D02*
G75*
G02*
X219525000Y-96525000I1175002J-2D01*
G01*
X218637801Y-92578096D02*
G75*
G02*
X216500000Y-94075000I-2137800J778095D01*
G01*
X218637801Y-92578096D02*
G75*
G02*
X219499005Y-91876209I900000J-225000D01*
G01*
X222100000Y-91875000D02*
G75*
G02*
X223100000Y-92875000I1J-999999D01*
G01*
X223100000Y-95525000D02*
G75*
G02*
X222100000Y-96525000I-999999J-1D01*
G01*
D12*
X220200000Y-84464460D02*
X219192000Y-83451000D01*
X220200000Y-83448460D01*
X220200000Y-84464460D01*
G36*
X220200000Y-84464460D02*
G01*
X219192000Y-83451000D01*
X220200000Y-83448460D01*
X220200000Y-84464460D01*
G37*
D13*
X211900000Y-102498460D02*
X220200000Y-102498460D01*
D11*
X213500000Y-114150000D02*
X214525000Y-113125000D01*
X213500000Y-116750000D02*
X213500000Y-114150000D01*
X213500000Y-116750000D02*
X214525000Y-117775000D01*
X213650000Y-114000000D02*
X213650000Y-116900000D01*
X213800000Y-113900000D02*
X213800000Y-117050000D01*
X213950000Y-113700000D02*
X213950000Y-117200000D01*
X214100000Y-113550000D02*
X214100000Y-117350000D01*
X214250000Y-113400000D02*
X214250000Y-117500000D01*
X214400000Y-113300000D02*
X214400000Y-117650000D01*
X214550000Y-113150000D02*
X214550000Y-117750000D01*
X214700000Y-113150000D02*
X214700000Y-117750000D01*
X214850000Y-113150000D02*
X214850000Y-117750000D01*
X215000000Y-113150000D02*
X215000000Y-117750000D01*
X215150000Y-113150000D02*
X215150000Y-117750000D01*
X215300000Y-113150000D02*
X215300000Y-117750000D01*
X215450000Y-113150000D02*
X215450000Y-117750000D01*
X215600000Y-113150000D02*
X215600000Y-117750000D01*
X215750000Y-113150000D02*
X215750000Y-117750000D01*
X215900000Y-113150000D02*
X215900000Y-117750000D01*
X216050000Y-113150000D02*
X216050000Y-117750000D01*
X216200000Y-113150000D02*
X216200000Y-117750000D01*
X216350000Y-113150000D02*
X216350000Y-117750000D01*
X216500000Y-113125000D02*
X214525000Y-113125000D01*
X216500000Y-113150000D02*
X216500000Y-117750000D01*
X216650000Y-113150000D02*
X216650000Y-117700000D01*
X216800000Y-113100000D02*
X216800000Y-117750000D01*
X216950000Y-113100000D02*
X216950000Y-117750000D01*
X217075000Y-117775000D02*
X214525000Y-117775000D01*
X217075000Y-117775000D02*
X218350000Y-116750000D01*
X217100000Y-113100000D02*
X217100000Y-117700000D01*
X217250000Y-113050000D02*
X217250000Y-117600000D01*
X217400000Y-112950000D02*
X217400000Y-117500000D01*
X217550000Y-112900000D02*
X217550000Y-117350000D01*
X217700000Y-112800000D02*
X217700000Y-117250000D01*
X217850000Y-112700000D02*
X217850000Y-117100000D01*
X218000000Y-112600000D02*
X218000000Y-117000000D01*
X218150000Y-112450000D02*
X218150000Y-116900000D01*
X218300000Y-112300000D02*
X218300000Y-116750000D01*
X218400000Y-112100000D02*
X218400000Y-116250000D01*
X218500000Y-111950000D02*
X218500000Y-116100000D01*
X218600000Y-111750000D02*
X218600000Y-115900000D01*
X218700000Y-111600000D02*
X218700000Y-115800000D01*
X218800000Y-111350000D02*
X218800000Y-115750000D01*
X218900000Y-111200000D02*
X218900000Y-115700000D01*
X219050000Y-111100000D02*
X219050000Y-115650000D01*
X219200000Y-111000000D02*
X219200000Y-115550000D01*
X219350000Y-110950000D02*
X219350000Y-115550000D01*
X219500000Y-110950000D02*
X219500000Y-115550000D01*
X219650000Y-110950000D02*
X219650000Y-115500000D01*
X219800000Y-110950000D02*
X219800000Y-115550000D01*
X219950000Y-110950000D02*
X219950000Y-115550000D01*
X220100000Y-110950000D02*
X220100000Y-115550000D01*
D13*
X220200000Y-102498460D02*
X220200000Y-104149460D01*
X220200000Y-107201000D02*
X211900000Y-107198460D01*
D11*
X220250000Y-110950000D02*
X220250000Y-115550000D01*
X220400000Y-110950000D02*
X220400000Y-115550000D01*
X220550000Y-110950000D02*
X220550000Y-115550000D01*
X220700000Y-110950000D02*
X220700000Y-115550000D01*
X220850000Y-110950000D02*
X220850000Y-115550000D01*
X221000000Y-110950000D02*
X221000000Y-115550000D01*
X221150000Y-110950000D02*
X221150000Y-115550000D01*
X221300000Y-110950000D02*
X221300000Y-115550000D01*
X221450000Y-110950000D02*
X221450000Y-115550000D01*
X221600000Y-110950000D02*
X221600000Y-115550000D01*
X221750000Y-110950000D02*
X221750000Y-115550000D01*
X221900000Y-110950000D02*
X221900000Y-115550000D01*
X222050000Y-110950000D02*
X222050000Y-115550000D01*
X222100000Y-110925000D02*
X219500000Y-110925000D01*
X222100000Y-115575000D02*
X219525000Y-115575000D01*
X222200000Y-110950000D02*
X222200000Y-115500000D01*
X222350000Y-111000000D02*
X222350000Y-115500000D01*
X222500000Y-111050000D02*
X222500000Y-115450000D01*
X222650000Y-111150000D02*
X222650000Y-115350000D01*
X222750000Y-111250000D02*
X222750000Y-115200000D01*
X222850000Y-111350000D02*
X222850000Y-115100000D01*
X222950000Y-111500000D02*
X222950000Y-115050000D01*
X223100000Y-114575000D02*
X223100000Y-111925000D01*
X218350000Y-116750000D02*
G75*
G02*
X219525000Y-115575000I1175002J-2D01*
G01*
X218637801Y-111628096D02*
G75*
G02*
X216500000Y-113125000I-2137800J778095D01*
G01*
X218637801Y-111628096D02*
G75*
G02*
X219499005Y-110926209I900000J-225000D01*
G01*
X222100000Y-110925000D02*
G75*
G02*
X223100000Y-111925000I1J-999999D01*
G01*
X223100000Y-114575000D02*
G75*
G02*
X222100000Y-115575000I-999999J-1D01*
G01*
D12*
X220200000Y-103514460D02*
X219192000Y-102501000D01*
X220200000Y-102498460D01*
X220200000Y-103514460D01*
G36*
X220200000Y-103514460D02*
G01*
X219192000Y-102501000D01*
X220200000Y-102498460D01*
X220200000Y-103514460D01*
G37*
D13*
X173800000Y-40448460D02*
X182100000Y-40448460D01*
D11*
X175400000Y-52100000D02*
X176425000Y-51075000D01*
X175400000Y-54700000D02*
X175400000Y-52100000D01*
X175400000Y-54700000D02*
X176425000Y-55725000D01*
X175550000Y-51950000D02*
X175550000Y-54850000D01*
X175700000Y-51850000D02*
X175700000Y-55000000D01*
X175850000Y-51650000D02*
X175850000Y-55150000D01*
X176000000Y-51500000D02*
X176000000Y-55300000D01*
X176150000Y-51350000D02*
X176150000Y-55450000D01*
X176300000Y-51250000D02*
X176300000Y-55600000D01*
X176450000Y-51100000D02*
X176450000Y-55700000D01*
X176600000Y-51100000D02*
X176600000Y-55700000D01*
X176750000Y-51100000D02*
X176750000Y-55700000D01*
X176900000Y-51100000D02*
X176900000Y-55700000D01*
X177050000Y-51100000D02*
X177050000Y-55700000D01*
X177200000Y-51100000D02*
X177200000Y-55700000D01*
X177350000Y-51100000D02*
X177350000Y-55700000D01*
X177500000Y-51100000D02*
X177500000Y-55700000D01*
X177650000Y-51100000D02*
X177650000Y-55700000D01*
X177800000Y-51100000D02*
X177800000Y-55700000D01*
X177950000Y-51100000D02*
X177950000Y-55700000D01*
X178100000Y-51100000D02*
X178100000Y-55700000D01*
X178250000Y-51100000D02*
X178250000Y-55700000D01*
X178400000Y-51075000D02*
X176425000Y-51075000D01*
X178400000Y-51100000D02*
X178400000Y-55700000D01*
X178550000Y-51100000D02*
X178550000Y-55650000D01*
X178700000Y-51050000D02*
X178700000Y-55700000D01*
X178850000Y-51050000D02*
X178850000Y-55700000D01*
X178975000Y-55725000D02*
X176425000Y-55725000D01*
X178975000Y-55725000D02*
X180250000Y-54700000D01*
X179000000Y-51050000D02*
X179000000Y-55650000D01*
X179150000Y-51000000D02*
X179150000Y-55550000D01*
X179300000Y-50900000D02*
X179300000Y-55450000D01*
X179450000Y-50850000D02*
X179450000Y-55300000D01*
X179600000Y-50750000D02*
X179600000Y-55200000D01*
X179750000Y-50650000D02*
X179750000Y-55050000D01*
X179900000Y-50550000D02*
X179900000Y-54950000D01*
X180050000Y-50400000D02*
X180050000Y-54850000D01*
X180200000Y-50250000D02*
X180200000Y-54700000D01*
X180300000Y-50050000D02*
X180300000Y-54200000D01*
X180400000Y-49900000D02*
X180400000Y-54050000D01*
X180500000Y-49700000D02*
X180500000Y-53850000D01*
X180600000Y-49550000D02*
X180600000Y-53750000D01*
X180700000Y-49300000D02*
X180700000Y-53700000D01*
X180800000Y-49150000D02*
X180800000Y-53650000D01*
X180950000Y-49050000D02*
X180950000Y-53600000D01*
X181100000Y-48950000D02*
X181100000Y-53500000D01*
X181250000Y-48900000D02*
X181250000Y-53500000D01*
X181400000Y-48900000D02*
X181400000Y-53500000D01*
X181550000Y-48900000D02*
X181550000Y-53450000D01*
X181700000Y-48900000D02*
X181700000Y-53500000D01*
X181850000Y-48900000D02*
X181850000Y-53500000D01*
X182000000Y-48900000D02*
X182000000Y-53500000D01*
D13*
X182100000Y-40448460D02*
X182100000Y-42099460D01*
X182100000Y-45151000D02*
X173800000Y-45148460D01*
D11*
X182150000Y-48900000D02*
X182150000Y-53500000D01*
X182300000Y-48900000D02*
X182300000Y-53500000D01*
X182450000Y-48900000D02*
X182450000Y-53500000D01*
X182600000Y-48900000D02*
X182600000Y-53500000D01*
X182750000Y-48900000D02*
X182750000Y-53500000D01*
X182900000Y-48900000D02*
X182900000Y-53500000D01*
X183050000Y-48900000D02*
X183050000Y-53500000D01*
X183200000Y-48900000D02*
X183200000Y-53500000D01*
X183350000Y-48900000D02*
X183350000Y-53500000D01*
X183500000Y-48900000D02*
X183500000Y-53500000D01*
X183650000Y-48900000D02*
X183650000Y-53500000D01*
X183800000Y-48900000D02*
X183800000Y-53500000D01*
X183950000Y-48900000D02*
X183950000Y-53500000D01*
X184000000Y-48875000D02*
X181400000Y-48875000D01*
X184000000Y-53525000D02*
X181425000Y-53525000D01*
X184100000Y-48900000D02*
X184100000Y-53450000D01*
X184250000Y-48950000D02*
X184250000Y-53450000D01*
X184400000Y-49000000D02*
X184400000Y-53400000D01*
X184550000Y-49100000D02*
X184550000Y-53300000D01*
X184650000Y-49200000D02*
X184650000Y-53150000D01*
X184750000Y-49300000D02*
X184750000Y-53050000D01*
X184850000Y-49450000D02*
X184850000Y-53000000D01*
X185000000Y-52525000D02*
X185000000Y-49875000D01*
X180250000Y-54700000D02*
G75*
G02*
X181425000Y-53525000I1175002J-2D01*
G01*
X180537801Y-49578096D02*
G75*
G02*
X178400000Y-51075000I-2137800J778095D01*
G01*
X180537801Y-49578096D02*
G75*
G02*
X181399005Y-48876209I900000J-225000D01*
G01*
X184000000Y-48875000D02*
G75*
G02*
X185000000Y-49875000I1J-999999D01*
G01*
X185000000Y-52525000D02*
G75*
G02*
X184000000Y-53525000I-999999J-1D01*
G01*
D12*
X182100000Y-41464460D02*
X181092000Y-40451000D01*
X182100000Y-40448460D01*
X182100000Y-41464460D01*
G36*
X182100000Y-41464460D02*
G01*
X181092000Y-40451000D01*
X182100000Y-40448460D01*
X182100000Y-41464460D01*
G37*
D11*
X127955000Y-62630000D02*
X127955000Y-68030000D01*
X128205000Y-65830000D02*
X128705000Y-64930000D01*
X128705000Y-64930000D02*
X129205000Y-65830000D01*
X129205000Y-64830000D02*
X128205000Y-64830000D01*
X129205000Y-65830000D02*
X128205000Y-65830000D01*
X129455000Y-62630000D02*
X127955000Y-62630000D01*
X129455000Y-68030000D02*
X127955000Y-68030000D01*
X129455000Y-68030000D02*
X129455000Y-62630000D01*
X130495000Y-62630000D02*
X130495000Y-68030000D01*
X130745000Y-65830000D02*
X131245000Y-64930000D01*
X131245000Y-64930000D02*
X131745000Y-65830000D01*
X131745000Y-64830000D02*
X130745000Y-64830000D01*
X131745000Y-65830000D02*
X130745000Y-65830000D01*
X131995000Y-62630000D02*
X130495000Y-62630000D01*
X131995000Y-68030000D02*
X130495000Y-68030000D01*
X131995000Y-68030000D02*
X131995000Y-62630000D01*
X149595000Y-60120000D02*
X149595000Y-65520000D01*
X149845000Y-63320000D02*
X150345000Y-62420000D01*
X150345000Y-62420000D02*
X150845000Y-63320000D01*
X150845000Y-62320000D02*
X149845000Y-62320000D01*
X150845000Y-63320000D02*
X149845000Y-63320000D01*
X151095000Y-60120000D02*
X149595000Y-60120000D01*
X151095000Y-65520000D02*
X149595000Y-65520000D01*
X151095000Y-65520000D02*
X151095000Y-60120000D01*
X168595000Y-62530000D02*
X168595000Y-67930000D01*
X168845000Y-65730000D02*
X169345000Y-64830000D01*
X169345000Y-64830000D02*
X169845000Y-65730000D01*
X169845000Y-64730000D02*
X168845000Y-64730000D01*
X169845000Y-65730000D02*
X168845000Y-65730000D01*
X170095000Y-62530000D02*
X168595000Y-62530000D01*
X170095000Y-67930000D02*
X168595000Y-67930000D01*
X170095000Y-67930000D02*
X170095000Y-62530000D01*
X187695000Y-67330000D02*
X187695000Y-72730000D01*
X187945000Y-70530000D02*
X188445000Y-69630000D01*
X188445000Y-69630000D02*
X188945000Y-70530000D01*
X188945000Y-69530000D02*
X187945000Y-69530000D01*
X188945000Y-70530000D02*
X187945000Y-70530000D01*
X189195000Y-67330000D02*
X187695000Y-67330000D01*
X189195000Y-72730000D02*
X187695000Y-72730000D01*
X189195000Y-72730000D02*
X189195000Y-67330000D01*
X206695000Y-67330000D02*
X206695000Y-72730000D01*
X206945000Y-70530000D02*
X207445000Y-69630000D01*
X207445000Y-69630000D02*
X207945000Y-70530000D01*
X207945000Y-69530000D02*
X206945000Y-69530000D01*
X207945000Y-70530000D02*
X206945000Y-70530000D01*
X208195000Y-67330000D02*
X206695000Y-67330000D01*
X208195000Y-72730000D02*
X206695000Y-72730000D01*
X208195000Y-72730000D02*
X208195000Y-67330000D01*
D13*
X192850000Y-45348460D02*
X201150000Y-45348460D01*
D11*
X194450000Y-57000000D02*
X195475000Y-55975000D01*
X194450000Y-59600000D02*
X194450000Y-57000000D01*
X194450000Y-59600000D02*
X195475000Y-60625000D01*
X194600000Y-56850000D02*
X194600000Y-59750000D01*
X194750000Y-56750000D02*
X194750000Y-59900000D01*
X194900000Y-56550000D02*
X194900000Y-60050000D01*
X195050000Y-56400000D02*
X195050000Y-60200000D01*
X195200000Y-56250000D02*
X195200000Y-60350000D01*
X195350000Y-56150000D02*
X195350000Y-60500000D01*
X195500000Y-56000000D02*
X195500000Y-60600000D01*
X195650000Y-56000000D02*
X195650000Y-60600000D01*
X195800000Y-56000000D02*
X195800000Y-60600000D01*
X195950000Y-56000000D02*
X195950000Y-60600000D01*
X196100000Y-56000000D02*
X196100000Y-60600000D01*
X196250000Y-56000000D02*
X196250000Y-60600000D01*
X196400000Y-56000000D02*
X196400000Y-60600000D01*
X196550000Y-56000000D02*
X196550000Y-60600000D01*
X196700000Y-56000000D02*
X196700000Y-60600000D01*
X196850000Y-56000000D02*
X196850000Y-60600000D01*
X197000000Y-56000000D02*
X197000000Y-60600000D01*
X197150000Y-56000000D02*
X197150000Y-60600000D01*
X197300000Y-56000000D02*
X197300000Y-60600000D01*
X197450000Y-55975000D02*
X195475000Y-55975000D01*
X197450000Y-56000000D02*
X197450000Y-60600000D01*
X197600000Y-56000000D02*
X197600000Y-60550000D01*
X197750000Y-55950000D02*
X197750000Y-60600000D01*
X197900000Y-55950000D02*
X197900000Y-60600000D01*
X198025000Y-60625000D02*
X195475000Y-60625000D01*
X198025000Y-60625000D02*
X199300000Y-59600000D01*
X198050000Y-55950000D02*
X198050000Y-60550000D01*
X198200000Y-55900000D02*
X198200000Y-60450000D01*
X198350000Y-55800000D02*
X198350000Y-60350000D01*
X198500000Y-55750000D02*
X198500000Y-60200000D01*
X198650000Y-55650000D02*
X198650000Y-60100000D01*
X198800000Y-55550000D02*
X198800000Y-59950000D01*
X198950000Y-55450000D02*
X198950000Y-59850000D01*
X199100000Y-55300000D02*
X199100000Y-59750000D01*
X199250000Y-55150000D02*
X199250000Y-59600000D01*
X199350000Y-54950000D02*
X199350000Y-59100000D01*
X199450000Y-54800000D02*
X199450000Y-58950000D01*
X199550000Y-54600000D02*
X199550000Y-58750000D01*
X199650000Y-54450000D02*
X199650000Y-58650000D01*
X199750000Y-54200000D02*
X199750000Y-58600000D01*
X199850000Y-54050000D02*
X199850000Y-58550000D01*
X200000000Y-53950000D02*
X200000000Y-58500000D01*
X200150000Y-53850000D02*
X200150000Y-58400000D01*
X200300000Y-53800000D02*
X200300000Y-58400000D01*
X200450000Y-53800000D02*
X200450000Y-58400000D01*
X200600000Y-53800000D02*
X200600000Y-58350000D01*
X200750000Y-53800000D02*
X200750000Y-58400000D01*
X200900000Y-53800000D02*
X200900000Y-58400000D01*
X201050000Y-53800000D02*
X201050000Y-58400000D01*
D13*
X201150000Y-45348460D02*
X201150000Y-46999460D01*
X201150000Y-50051000D02*
X192850000Y-50048460D01*
D11*
X201200000Y-53800000D02*
X201200000Y-58400000D01*
X201350000Y-53800000D02*
X201350000Y-58400000D01*
X201500000Y-53800000D02*
X201500000Y-58400000D01*
X201650000Y-53800000D02*
X201650000Y-58400000D01*
X201800000Y-53800000D02*
X201800000Y-58400000D01*
X201950000Y-53800000D02*
X201950000Y-58400000D01*
X202100000Y-53800000D02*
X202100000Y-58400000D01*
X202250000Y-53800000D02*
X202250000Y-58400000D01*
X202400000Y-53800000D02*
X202400000Y-58400000D01*
X202550000Y-53800000D02*
X202550000Y-58400000D01*
X202700000Y-53800000D02*
X202700000Y-58400000D01*
X202850000Y-53800000D02*
X202850000Y-58400000D01*
X203000000Y-53800000D02*
X203000000Y-58400000D01*
X203050000Y-53775000D02*
X200450000Y-53775000D01*
X203050000Y-58425000D02*
X200475000Y-58425000D01*
X203150000Y-53800000D02*
X203150000Y-58350000D01*
X203300000Y-53850000D02*
X203300000Y-58350000D01*
X203450000Y-53900000D02*
X203450000Y-58300000D01*
X203600000Y-54000000D02*
X203600000Y-58200000D01*
X203700000Y-54100000D02*
X203700000Y-58050000D01*
X203800000Y-54200000D02*
X203800000Y-57950000D01*
X203900000Y-54350000D02*
X203900000Y-57900000D01*
X204050000Y-57425000D02*
X204050000Y-54775000D01*
X199300000Y-59600000D02*
G75*
G02*
X200475000Y-58425000I1175002J-2D01*
G01*
X199587801Y-54478096D02*
G75*
G02*
X197450000Y-55975000I-2137800J778095D01*
G01*
X199587801Y-54478096D02*
G75*
G02*
X200449005Y-53776209I900000J-225000D01*
G01*
X203050000Y-53775000D02*
G75*
G02*
X204050000Y-54775000I1J-999999D01*
G01*
X204050000Y-57425000D02*
G75*
G02*
X203050000Y-58425000I-999999J-1D01*
G01*
D12*
X201150000Y-46364460D02*
X200142000Y-45351000D01*
X201150000Y-45348460D01*
X201150000Y-46364460D01*
G36*
X201150000Y-46364460D02*
G01*
X200142000Y-45351000D01*
X201150000Y-45348460D01*
X201150000Y-46364460D01*
G37*
D13*
X135700000Y-59498460D02*
X144000000Y-59498460D01*
D11*
X137300000Y-71150000D02*
X138325000Y-70125000D01*
X137300000Y-73750000D02*
X137300000Y-71150000D01*
X137300000Y-73750000D02*
X138325000Y-74775000D01*
X137450000Y-71000000D02*
X137450000Y-73900000D01*
X137600000Y-70900000D02*
X137600000Y-74050000D01*
X137750000Y-70700000D02*
X137750000Y-74200000D01*
X137900000Y-70550000D02*
X137900000Y-74350000D01*
X138050000Y-70400000D02*
X138050000Y-74500000D01*
X138200000Y-70300000D02*
X138200000Y-74650000D01*
X138350000Y-70150000D02*
X138350000Y-74750000D01*
X138500000Y-70150000D02*
X138500000Y-74750000D01*
X138650000Y-70150000D02*
X138650000Y-74750000D01*
X138800000Y-70150000D02*
X138800000Y-74750000D01*
X138950000Y-70150000D02*
X138950000Y-74750000D01*
X139100000Y-70150000D02*
X139100000Y-74750000D01*
X139250000Y-70150000D02*
X139250000Y-74750000D01*
X139400000Y-70150000D02*
X139400000Y-74750000D01*
X139550000Y-70150000D02*
X139550000Y-74750000D01*
X139700000Y-70150000D02*
X139700000Y-74750000D01*
X139850000Y-70150000D02*
X139850000Y-74750000D01*
X140000000Y-70150000D02*
X140000000Y-74750000D01*
X140150000Y-70150000D02*
X140150000Y-74750000D01*
X140300000Y-70125000D02*
X138325000Y-70125000D01*
X140300000Y-70150000D02*
X140300000Y-74750000D01*
X140450000Y-70150000D02*
X140450000Y-74700000D01*
X140600000Y-70100000D02*
X140600000Y-74750000D01*
X140750000Y-70100000D02*
X140750000Y-74750000D01*
X140875000Y-74775000D02*
X138325000Y-74775000D01*
X140875000Y-74775000D02*
X142150000Y-73750000D01*
X140900000Y-70100000D02*
X140900000Y-74700000D01*
X141050000Y-70050000D02*
X141050000Y-74600000D01*
X141200000Y-69950000D02*
X141200000Y-74500000D01*
X141350000Y-69900000D02*
X141350000Y-74350000D01*
X141500000Y-69800000D02*
X141500000Y-74250000D01*
X141650000Y-69700000D02*
X141650000Y-74100000D01*
X141800000Y-69600000D02*
X141800000Y-74000000D01*
X141950000Y-69450000D02*
X141950000Y-73900000D01*
X142100000Y-69300000D02*
X142100000Y-73750000D01*
X142200000Y-69100000D02*
X142200000Y-73250000D01*
X142300000Y-68950000D02*
X142300000Y-73100000D01*
X142400000Y-68750000D02*
X142400000Y-72900000D01*
X142500000Y-68600000D02*
X142500000Y-72800000D01*
X142600000Y-68350000D02*
X142600000Y-72750000D01*
X142700000Y-68200000D02*
X142700000Y-72700000D01*
X142850000Y-68100000D02*
X142850000Y-72650000D01*
X143000000Y-68000000D02*
X143000000Y-72550000D01*
X143150000Y-67950000D02*
X143150000Y-72550000D01*
X143300000Y-67950000D02*
X143300000Y-72550000D01*
X143450000Y-67950000D02*
X143450000Y-72500000D01*
X143600000Y-67950000D02*
X143600000Y-72550000D01*
X143750000Y-67950000D02*
X143750000Y-72550000D01*
X143900000Y-67950000D02*
X143900000Y-72550000D01*
D13*
X144000000Y-59498460D02*
X144000000Y-61149460D01*
X144000000Y-64201000D02*
X135700000Y-64198460D01*
D11*
X144050000Y-67950000D02*
X144050000Y-72550000D01*
X144200000Y-67950000D02*
X144200000Y-72550000D01*
X144350000Y-67950000D02*
X144350000Y-72550000D01*
X144500000Y-67950000D02*
X144500000Y-72550000D01*
X144650000Y-67950000D02*
X144650000Y-72550000D01*
X144800000Y-67950000D02*
X144800000Y-72550000D01*
X144950000Y-67950000D02*
X144950000Y-72550000D01*
X145100000Y-67950000D02*
X145100000Y-72550000D01*
X145250000Y-67950000D02*
X145250000Y-72550000D01*
X145400000Y-67950000D02*
X145400000Y-72550000D01*
X145550000Y-67950000D02*
X145550000Y-72550000D01*
X145700000Y-67950000D02*
X145700000Y-72550000D01*
X145850000Y-67950000D02*
X145850000Y-72550000D01*
X145900000Y-67925000D02*
X143300000Y-67925000D01*
X145900000Y-72575000D02*
X143325000Y-72575000D01*
X146000000Y-67950000D02*
X146000000Y-72500000D01*
X146150000Y-68000000D02*
X146150000Y-72500000D01*
X146300000Y-68050000D02*
X146300000Y-72450000D01*
X146450000Y-68150000D02*
X146450000Y-72350000D01*
X146550000Y-68250000D02*
X146550000Y-72200000D01*
X146650000Y-68350000D02*
X146650000Y-72100000D01*
X146750000Y-68500000D02*
X146750000Y-72050000D01*
X146900000Y-71575000D02*
X146900000Y-68925000D01*
X142150000Y-73750000D02*
G75*
G02*
X143325000Y-72575000I1175002J-2D01*
G01*
X142437801Y-68628096D02*
G75*
G02*
X140300000Y-70125000I-2137800J778095D01*
G01*
X142437801Y-68628096D02*
G75*
G02*
X143299005Y-67926209I900000J-225000D01*
G01*
X145900000Y-67925000D02*
G75*
G02*
X146900000Y-68925000I1J-999999D01*
G01*
X146900000Y-71575000D02*
G75*
G02*
X145900000Y-72575000I-999999J-1D01*
G01*
D12*
X144000000Y-60514460D02*
X142992000Y-59501000D01*
X144000000Y-59498460D01*
X144000000Y-60514460D01*
G36*
X144000000Y-60514460D02*
G01*
X142992000Y-59501000D01*
X144000000Y-59498460D01*
X144000000Y-60514460D01*
G37*
D13*
X173800000Y-59498460D02*
X182100000Y-59498460D01*
D11*
X175400000Y-71150000D02*
X176425000Y-70125000D01*
X175400000Y-73750000D02*
X175400000Y-71150000D01*
X175400000Y-73750000D02*
X176425000Y-74775000D01*
X175550000Y-71000000D02*
X175550000Y-73900000D01*
X175700000Y-70900000D02*
X175700000Y-74050000D01*
X175850000Y-70700000D02*
X175850000Y-74200000D01*
X176000000Y-70550000D02*
X176000000Y-74350000D01*
X176150000Y-70400000D02*
X176150000Y-74500000D01*
X176300000Y-70300000D02*
X176300000Y-74650000D01*
X176450000Y-70150000D02*
X176450000Y-74750000D01*
X176600000Y-70150000D02*
X176600000Y-74750000D01*
X176750000Y-70150000D02*
X176750000Y-74750000D01*
X176900000Y-70150000D02*
X176900000Y-74750000D01*
X177050000Y-70150000D02*
X177050000Y-74750000D01*
X177200000Y-70150000D02*
X177200000Y-74750000D01*
X177350000Y-70150000D02*
X177350000Y-74750000D01*
X177500000Y-70150000D02*
X177500000Y-74750000D01*
X177650000Y-70150000D02*
X177650000Y-74750000D01*
X177800000Y-70150000D02*
X177800000Y-74750000D01*
X177950000Y-70150000D02*
X177950000Y-74750000D01*
X178100000Y-70150000D02*
X178100000Y-74750000D01*
X178250000Y-70150000D02*
X178250000Y-74750000D01*
X178400000Y-70125000D02*
X176425000Y-70125000D01*
X178400000Y-70150000D02*
X178400000Y-74750000D01*
X178550000Y-70150000D02*
X178550000Y-74700000D01*
X178700000Y-70100000D02*
X178700000Y-74750000D01*
X178850000Y-70100000D02*
X178850000Y-74750000D01*
X178975000Y-74775000D02*
X176425000Y-74775000D01*
X178975000Y-74775000D02*
X180250000Y-73750000D01*
X179000000Y-70100000D02*
X179000000Y-74700000D01*
X179150000Y-70050000D02*
X179150000Y-74600000D01*
X179300000Y-69950000D02*
X179300000Y-74500000D01*
X179450000Y-69900000D02*
X179450000Y-74350000D01*
X179600000Y-69800000D02*
X179600000Y-74250000D01*
X179750000Y-69700000D02*
X179750000Y-74100000D01*
X179900000Y-69600000D02*
X179900000Y-74000000D01*
X180050000Y-69450000D02*
X180050000Y-73900000D01*
X180200000Y-69300000D02*
X180200000Y-73750000D01*
X180300000Y-69100000D02*
X180300000Y-73250000D01*
X180400000Y-68950000D02*
X180400000Y-73100000D01*
X180500000Y-68750000D02*
X180500000Y-72900000D01*
X180600000Y-68600000D02*
X180600000Y-72800000D01*
X180700000Y-68350000D02*
X180700000Y-72750000D01*
X180800000Y-68200000D02*
X180800000Y-72700000D01*
X180950000Y-68100000D02*
X180950000Y-72650000D01*
X181100000Y-68000000D02*
X181100000Y-72550000D01*
X181250000Y-67950000D02*
X181250000Y-72550000D01*
X181400000Y-67950000D02*
X181400000Y-72550000D01*
X181550000Y-67950000D02*
X181550000Y-72500000D01*
X181700000Y-67950000D02*
X181700000Y-72550000D01*
X181850000Y-67950000D02*
X181850000Y-72550000D01*
X182000000Y-67950000D02*
X182000000Y-72550000D01*
D13*
X182100000Y-59498460D02*
X182100000Y-61149460D01*
X182100000Y-64201000D02*
X173800000Y-64198460D01*
D11*
X182150000Y-67950000D02*
X182150000Y-72550000D01*
X182300000Y-67950000D02*
X182300000Y-72550000D01*
X182450000Y-67950000D02*
X182450000Y-72550000D01*
X182600000Y-67950000D02*
X182600000Y-72550000D01*
X182750000Y-67950000D02*
X182750000Y-72550000D01*
X182900000Y-67950000D02*
X182900000Y-72550000D01*
X183050000Y-67950000D02*
X183050000Y-72550000D01*
X183200000Y-67950000D02*
X183200000Y-72550000D01*
X183350000Y-67950000D02*
X183350000Y-72550000D01*
X183500000Y-67950000D02*
X183500000Y-72550000D01*
X183650000Y-67950000D02*
X183650000Y-72550000D01*
X183800000Y-67950000D02*
X183800000Y-72550000D01*
X183950000Y-67950000D02*
X183950000Y-72550000D01*
X184000000Y-67925000D02*
X181400000Y-67925000D01*
X184000000Y-72575000D02*
X181425000Y-72575000D01*
X184100000Y-67950000D02*
X184100000Y-72500000D01*
X184250000Y-68000000D02*
X184250000Y-72500000D01*
X184400000Y-68050000D02*
X184400000Y-72450000D01*
X184550000Y-68150000D02*
X184550000Y-72350000D01*
X184650000Y-68250000D02*
X184650000Y-72200000D01*
X184750000Y-68350000D02*
X184750000Y-72100000D01*
X184850000Y-68500000D02*
X184850000Y-72050000D01*
X185000000Y-71575000D02*
X185000000Y-68925000D01*
X180250000Y-73750000D02*
G75*
G02*
X181425000Y-72575000I1175002J-2D01*
G01*
X180537801Y-68628096D02*
G75*
G02*
X178400000Y-70125000I-2137800J778095D01*
G01*
X180537801Y-68628096D02*
G75*
G02*
X181399005Y-67926209I900000J-225000D01*
G01*
X184000000Y-67925000D02*
G75*
G02*
X185000000Y-68925000I1J-999999D01*
G01*
X185000000Y-71575000D02*
G75*
G02*
X184000000Y-72575000I-999999J-1D01*
G01*
D12*
X182100000Y-60514460D02*
X181092000Y-59501000D01*
X182100000Y-59498460D01*
X182100000Y-60514460D01*
G36*
X182100000Y-60514460D02*
G01*
X181092000Y-59501000D01*
X182100000Y-59498460D01*
X182100000Y-60514460D01*
G37*
D13*
X154750000Y-56998460D02*
X163050000Y-56998460D01*
D11*
X156350000Y-68650000D02*
X157375000Y-67625000D01*
X156350000Y-71250000D02*
X156350000Y-68650000D01*
X156350000Y-71250000D02*
X157375000Y-72275000D01*
X156500000Y-68500000D02*
X156500000Y-71400000D01*
X156650000Y-68400000D02*
X156650000Y-71550000D01*
X156800000Y-68200000D02*
X156800000Y-71700000D01*
X156950000Y-68050000D02*
X156950000Y-71850000D01*
X157100000Y-67900000D02*
X157100000Y-72000000D01*
X157250000Y-67800000D02*
X157250000Y-72150000D01*
X157400000Y-67650000D02*
X157400000Y-72250000D01*
X157550000Y-67650000D02*
X157550000Y-72250000D01*
X157700000Y-67650000D02*
X157700000Y-72250000D01*
X157850000Y-67650000D02*
X157850000Y-72250000D01*
X158000000Y-67650000D02*
X158000000Y-72250000D01*
X158150000Y-67650000D02*
X158150000Y-72250000D01*
X158300000Y-67650000D02*
X158300000Y-72250000D01*
X158450000Y-67650000D02*
X158450000Y-72250000D01*
X158600000Y-67650000D02*
X158600000Y-72250000D01*
X158750000Y-67650000D02*
X158750000Y-72250000D01*
X158900000Y-67650000D02*
X158900000Y-72250000D01*
X159050000Y-67650000D02*
X159050000Y-72250000D01*
X159200000Y-67650000D02*
X159200000Y-72250000D01*
X159350000Y-67625000D02*
X157375000Y-67625000D01*
X159350000Y-67650000D02*
X159350000Y-72250000D01*
X159500000Y-67650000D02*
X159500000Y-72200000D01*
X159650000Y-67600000D02*
X159650000Y-72250000D01*
X159800000Y-67600000D02*
X159800000Y-72250000D01*
X159925000Y-72275000D02*
X157375000Y-72275000D01*
X159925000Y-72275000D02*
X161200000Y-71250000D01*
X159950000Y-67600000D02*
X159950000Y-72200000D01*
X160100000Y-67550000D02*
X160100000Y-72100000D01*
X160250000Y-67450000D02*
X160250000Y-72000000D01*
X160400000Y-67400000D02*
X160400000Y-71850000D01*
X160550000Y-67300000D02*
X160550000Y-71750000D01*
X160700000Y-67200000D02*
X160700000Y-71600000D01*
X160850000Y-67100000D02*
X160850000Y-71500000D01*
X161000000Y-66950000D02*
X161000000Y-71400000D01*
X161150000Y-66800000D02*
X161150000Y-71250000D01*
X161250000Y-66600000D02*
X161250000Y-70750000D01*
X161350000Y-66450000D02*
X161350000Y-70600000D01*
X161450000Y-66250000D02*
X161450000Y-70400000D01*
X161550000Y-66100000D02*
X161550000Y-70300000D01*
X161650000Y-65850000D02*
X161650000Y-70250000D01*
X161750000Y-65700000D02*
X161750000Y-70200000D01*
X161900000Y-65600000D02*
X161900000Y-70150000D01*
X162050000Y-65500000D02*
X162050000Y-70050000D01*
X162200000Y-65450000D02*
X162200000Y-70050000D01*
X162350000Y-65450000D02*
X162350000Y-70050000D01*
X162500000Y-65450000D02*
X162500000Y-70000000D01*
X162650000Y-65450000D02*
X162650000Y-70050000D01*
X162800000Y-65450000D02*
X162800000Y-70050000D01*
X162950000Y-65450000D02*
X162950000Y-70050000D01*
D13*
X163050000Y-56998460D02*
X163050000Y-58649460D01*
X163050000Y-61701000D02*
X154750000Y-61698460D01*
D11*
X163100000Y-65450000D02*
X163100000Y-70050000D01*
X163250000Y-65450000D02*
X163250000Y-70050000D01*
X163400000Y-65450000D02*
X163400000Y-70050000D01*
X163550000Y-65450000D02*
X163550000Y-70050000D01*
X163700000Y-65450000D02*
X163700000Y-70050000D01*
X163850000Y-65450000D02*
X163850000Y-70050000D01*
X164000000Y-65450000D02*
X164000000Y-70050000D01*
X164150000Y-65450000D02*
X164150000Y-70050000D01*
X164300000Y-65450000D02*
X164300000Y-70050000D01*
X164450000Y-65450000D02*
X164450000Y-70050000D01*
X164600000Y-65450000D02*
X164600000Y-70050000D01*
X164750000Y-65450000D02*
X164750000Y-70050000D01*
X164900000Y-65450000D02*
X164900000Y-70050000D01*
X164950000Y-65425000D02*
X162350000Y-65425000D01*
X164950000Y-70075000D02*
X162375000Y-70075000D01*
X165050000Y-65450000D02*
X165050000Y-70000000D01*
X165200000Y-65500000D02*
X165200000Y-70000000D01*
X165350000Y-65550000D02*
X165350000Y-69950000D01*
X165500000Y-65650000D02*
X165500000Y-69850000D01*
X165600000Y-65750000D02*
X165600000Y-69700000D01*
X165700000Y-65850000D02*
X165700000Y-69600000D01*
X165800000Y-66000000D02*
X165800000Y-69550000D01*
X165950000Y-69075000D02*
X165950000Y-66425000D01*
X161200000Y-71250000D02*
G75*
G02*
X162375000Y-70075000I1175002J-2D01*
G01*
X161487801Y-66128096D02*
G75*
G02*
X159350000Y-67625000I-2137800J778095D01*
G01*
X161487801Y-66128096D02*
G75*
G02*
X162349005Y-65426209I900000J-225000D01*
G01*
X164950000Y-65425000D02*
G75*
G02*
X165950000Y-66425000I1J-999999D01*
G01*
X165950000Y-69075000D02*
G75*
G02*
X164950000Y-70075000I-999999J-1D01*
G01*
D12*
X163050000Y-58014460D02*
X162042000Y-57001000D01*
X163050000Y-56998460D01*
X163050000Y-58014460D01*
G36*
X163050000Y-58014460D02*
G01*
X162042000Y-57001000D01*
X163050000Y-56998460D01*
X163050000Y-58014460D01*
G37*
D13*
X173800000Y-78548460D02*
X182100000Y-78548460D01*
D11*
X175400000Y-90200000D02*
X176425000Y-89175000D01*
X175400000Y-92800000D02*
X175400000Y-90200000D01*
X175400000Y-92800000D02*
X176425000Y-93825000D01*
X175550000Y-90050000D02*
X175550000Y-92950000D01*
X175700000Y-89950000D02*
X175700000Y-93100000D01*
X175850000Y-89750000D02*
X175850000Y-93250000D01*
X176000000Y-89600000D02*
X176000000Y-93400000D01*
X176150000Y-89450000D02*
X176150000Y-93550000D01*
X176300000Y-89350000D02*
X176300000Y-93700000D01*
X176450000Y-89200000D02*
X176450000Y-93800000D01*
X176600000Y-89200000D02*
X176600000Y-93800000D01*
X176750000Y-89200000D02*
X176750000Y-93800000D01*
X176900000Y-89200000D02*
X176900000Y-93800000D01*
X177050000Y-89200000D02*
X177050000Y-93800000D01*
X177200000Y-89200000D02*
X177200000Y-93800000D01*
X177350000Y-89200000D02*
X177350000Y-93800000D01*
X177500000Y-89200000D02*
X177500000Y-93800000D01*
X177650000Y-89200000D02*
X177650000Y-93800000D01*
X177800000Y-89200000D02*
X177800000Y-93800000D01*
X177950000Y-89200000D02*
X177950000Y-93800000D01*
X178100000Y-89200000D02*
X178100000Y-93800000D01*
X178250000Y-89200000D02*
X178250000Y-93800000D01*
X178400000Y-89175000D02*
X176425000Y-89175000D01*
X178400000Y-89200000D02*
X178400000Y-93800000D01*
X178550000Y-89200000D02*
X178550000Y-93750000D01*
X178700000Y-89150000D02*
X178700000Y-93800000D01*
X178850000Y-89150000D02*
X178850000Y-93800000D01*
X178975000Y-93825000D02*
X176425000Y-93825000D01*
X178975000Y-93825000D02*
X180250000Y-92800000D01*
X179000000Y-89150000D02*
X179000000Y-93750000D01*
X179150000Y-89100000D02*
X179150000Y-93650000D01*
X179300000Y-89000000D02*
X179300000Y-93550000D01*
X179450000Y-88950000D02*
X179450000Y-93400000D01*
X179600000Y-88850000D02*
X179600000Y-93300000D01*
X179750000Y-88750000D02*
X179750000Y-93150000D01*
X179900000Y-88650000D02*
X179900000Y-93050000D01*
X180050000Y-88500000D02*
X180050000Y-92950000D01*
X180200000Y-88350000D02*
X180200000Y-92800000D01*
X180300000Y-88150000D02*
X180300000Y-92300000D01*
X180400000Y-88000000D02*
X180400000Y-92150000D01*
X180500000Y-87800000D02*
X180500000Y-91950000D01*
X180600000Y-87650000D02*
X180600000Y-91850000D01*
X180700000Y-87400000D02*
X180700000Y-91800000D01*
X180800000Y-87250000D02*
X180800000Y-91750000D01*
X180950000Y-87150000D02*
X180950000Y-91700000D01*
X181100000Y-87050000D02*
X181100000Y-91600000D01*
X181250000Y-87000000D02*
X181250000Y-91600000D01*
X181400000Y-87000000D02*
X181400000Y-91600000D01*
X181550000Y-87000000D02*
X181550000Y-91550000D01*
X181700000Y-87000000D02*
X181700000Y-91600000D01*
X181850000Y-87000000D02*
X181850000Y-91600000D01*
X182000000Y-87000000D02*
X182000000Y-91600000D01*
D13*
X182100000Y-78548460D02*
X182100000Y-80199460D01*
X182100000Y-83251000D02*
X173800000Y-83248460D01*
D11*
X182150000Y-87000000D02*
X182150000Y-91600000D01*
X182300000Y-87000000D02*
X182300000Y-91600000D01*
X182450000Y-87000000D02*
X182450000Y-91600000D01*
X182600000Y-87000000D02*
X182600000Y-91600000D01*
X182750000Y-87000000D02*
X182750000Y-91600000D01*
X182900000Y-87000000D02*
X182900000Y-91600000D01*
X183050000Y-87000000D02*
X183050000Y-91600000D01*
X183200000Y-87000000D02*
X183200000Y-91600000D01*
X183350000Y-87000000D02*
X183350000Y-91600000D01*
X183500000Y-87000000D02*
X183500000Y-91600000D01*
X183650000Y-87000000D02*
X183650000Y-91600000D01*
X183800000Y-87000000D02*
X183800000Y-91600000D01*
X183950000Y-87000000D02*
X183950000Y-91600000D01*
X184000000Y-86975000D02*
X181400000Y-86975000D01*
X184000000Y-91625000D02*
X181425000Y-91625000D01*
X184100000Y-87000000D02*
X184100000Y-91550000D01*
X184250000Y-87050000D02*
X184250000Y-91550000D01*
X184400000Y-87100000D02*
X184400000Y-91500000D01*
X184550000Y-87200000D02*
X184550000Y-91400000D01*
X184650000Y-87300000D02*
X184650000Y-91250000D01*
X184750000Y-87400000D02*
X184750000Y-91150000D01*
X184850000Y-87550000D02*
X184850000Y-91100000D01*
X185000000Y-90625000D02*
X185000000Y-87975000D01*
X180250000Y-92800000D02*
G75*
G02*
X181425000Y-91625000I1175002J-2D01*
G01*
X180537801Y-87678096D02*
G75*
G02*
X178400000Y-89175000I-2137800J778095D01*
G01*
X180537801Y-87678096D02*
G75*
G02*
X181399005Y-86976209I900000J-225000D01*
G01*
X184000000Y-86975000D02*
G75*
G02*
X185000000Y-87975000I1J-999999D01*
G01*
X185000000Y-90625000D02*
G75*
G02*
X184000000Y-91625000I-999999J-1D01*
G01*
D12*
X182100000Y-79564460D02*
X181092000Y-78551000D01*
X182100000Y-78548460D01*
X182100000Y-79564460D01*
G36*
X182100000Y-79564460D02*
G01*
X181092000Y-78551000D01*
X182100000Y-78548460D01*
X182100000Y-79564460D01*
G37*
D13*
X211900000Y-45348460D02*
X220200000Y-45348460D01*
D11*
X213500000Y-57000000D02*
X214525000Y-55975000D01*
X213500000Y-59600000D02*
X213500000Y-57000000D01*
X213500000Y-59600000D02*
X214525000Y-60625000D01*
X213650000Y-56850000D02*
X213650000Y-59750000D01*
X213800000Y-56750000D02*
X213800000Y-59900000D01*
X213950000Y-56550000D02*
X213950000Y-60050000D01*
X214100000Y-56400000D02*
X214100000Y-60200000D01*
X214250000Y-56250000D02*
X214250000Y-60350000D01*
X214400000Y-56150000D02*
X214400000Y-60500000D01*
X214550000Y-56000000D02*
X214550000Y-60600000D01*
X214700000Y-56000000D02*
X214700000Y-60600000D01*
X214850000Y-56000000D02*
X214850000Y-60600000D01*
X215000000Y-56000000D02*
X215000000Y-60600000D01*
X215150000Y-56000000D02*
X215150000Y-60600000D01*
X215300000Y-56000000D02*
X215300000Y-60600000D01*
X215450000Y-56000000D02*
X215450000Y-60600000D01*
X215600000Y-56000000D02*
X215600000Y-60600000D01*
X215750000Y-56000000D02*
X215750000Y-60600000D01*
X215900000Y-56000000D02*
X215900000Y-60600000D01*
X216050000Y-56000000D02*
X216050000Y-60600000D01*
X216200000Y-56000000D02*
X216200000Y-60600000D01*
X216350000Y-56000000D02*
X216350000Y-60600000D01*
X216500000Y-55975000D02*
X214525000Y-55975000D01*
X216500000Y-56000000D02*
X216500000Y-60600000D01*
X216650000Y-56000000D02*
X216650000Y-60550000D01*
X216800000Y-55950000D02*
X216800000Y-60600000D01*
X216950000Y-55950000D02*
X216950000Y-60600000D01*
X217075000Y-60625000D02*
X214525000Y-60625000D01*
X217075000Y-60625000D02*
X218350000Y-59600000D01*
X217100000Y-55950000D02*
X217100000Y-60550000D01*
X217250000Y-55900000D02*
X217250000Y-60450000D01*
X217400000Y-55800000D02*
X217400000Y-60350000D01*
X217550000Y-55750000D02*
X217550000Y-60200000D01*
X217700000Y-55650000D02*
X217700000Y-60100000D01*
X217850000Y-55550000D02*
X217850000Y-59950000D01*
X218000000Y-55450000D02*
X218000000Y-59850000D01*
X218150000Y-55300000D02*
X218150000Y-59750000D01*
X218300000Y-55150000D02*
X218300000Y-59600000D01*
X218400000Y-54950000D02*
X218400000Y-59100000D01*
X218500000Y-54800000D02*
X218500000Y-58950000D01*
X218600000Y-54600000D02*
X218600000Y-58750000D01*
X218700000Y-54450000D02*
X218700000Y-58650000D01*
X218800000Y-54200000D02*
X218800000Y-58600000D01*
X218900000Y-54050000D02*
X218900000Y-58550000D01*
X219050000Y-53950000D02*
X219050000Y-58500000D01*
X219200000Y-53850000D02*
X219200000Y-58400000D01*
X219350000Y-53800000D02*
X219350000Y-58400000D01*
X219500000Y-53800000D02*
X219500000Y-58400000D01*
X219650000Y-53800000D02*
X219650000Y-58350000D01*
X219800000Y-53800000D02*
X219800000Y-58400000D01*
X219950000Y-53800000D02*
X219950000Y-58400000D01*
X220100000Y-53800000D02*
X220100000Y-58400000D01*
D13*
X220200000Y-45348460D02*
X220200000Y-46999460D01*
X220200000Y-50051000D02*
X211900000Y-50048460D01*
D11*
X220250000Y-53800000D02*
X220250000Y-58400000D01*
X220400000Y-53800000D02*
X220400000Y-58400000D01*
X220550000Y-53800000D02*
X220550000Y-58400000D01*
X220700000Y-53800000D02*
X220700000Y-58400000D01*
X220850000Y-53800000D02*
X220850000Y-58400000D01*
X221000000Y-53800000D02*
X221000000Y-58400000D01*
X221150000Y-53800000D02*
X221150000Y-58400000D01*
X221300000Y-53800000D02*
X221300000Y-58400000D01*
X221450000Y-53800000D02*
X221450000Y-58400000D01*
X221600000Y-53800000D02*
X221600000Y-58400000D01*
X221750000Y-53800000D02*
X221750000Y-58400000D01*
X221900000Y-53800000D02*
X221900000Y-58400000D01*
X222050000Y-53800000D02*
X222050000Y-58400000D01*
X222100000Y-53775000D02*
X219500000Y-53775000D01*
X222100000Y-58425000D02*
X219525000Y-58425000D01*
X222200000Y-53800000D02*
X222200000Y-58350000D01*
X222350000Y-53850000D02*
X222350000Y-58350000D01*
X222500000Y-53900000D02*
X222500000Y-58300000D01*
X222650000Y-54000000D02*
X222650000Y-58200000D01*
X222750000Y-54100000D02*
X222750000Y-58050000D01*
X222850000Y-54200000D02*
X222850000Y-57950000D01*
X222950000Y-54350000D02*
X222950000Y-57900000D01*
X223100000Y-57425000D02*
X223100000Y-54775000D01*
X218350000Y-59600000D02*
G75*
G02*
X219525000Y-58425000I1175002J-2D01*
G01*
X218637801Y-54478096D02*
G75*
G02*
X216500000Y-55975000I-2137800J778095D01*
G01*
X218637801Y-54478096D02*
G75*
G02*
X219499005Y-53776209I900000J-225000D01*
G01*
X222100000Y-53775000D02*
G75*
G02*
X223100000Y-54775000I1J-999999D01*
G01*
X223100000Y-57425000D02*
G75*
G02*
X222100000Y-58425000I-999999J-1D01*
G01*
D12*
X220200000Y-46364460D02*
X219192000Y-45351000D01*
X220200000Y-45348460D01*
X220200000Y-46364460D01*
G36*
X220200000Y-46364460D02*
G01*
X219192000Y-45351000D01*
X220200000Y-45348460D01*
X220200000Y-46364460D01*
G37*
D13*
X116650000Y-62048460D02*
X124950000Y-62048460D01*
D11*
X118250000Y-73700000D02*
X119275000Y-72675000D01*
X118250000Y-76300000D02*
X118250000Y-73700000D01*
X118250000Y-76300000D02*
X119275000Y-77325000D01*
X118400000Y-73550000D02*
X118400000Y-76450000D01*
X118550000Y-73450000D02*
X118550000Y-76600000D01*
X118700000Y-73250000D02*
X118700000Y-76750000D01*
X118850000Y-73100000D02*
X118850000Y-76900000D01*
X119000000Y-72950000D02*
X119000000Y-77050000D01*
X119150000Y-72850000D02*
X119150000Y-77200000D01*
X119300000Y-72700000D02*
X119300000Y-77300000D01*
X119450000Y-72700000D02*
X119450000Y-77300000D01*
X119600000Y-72700000D02*
X119600000Y-77300000D01*
X119750000Y-72700000D02*
X119750000Y-77300000D01*
X119900000Y-72700000D02*
X119900000Y-77300000D01*
X120050000Y-72700000D02*
X120050000Y-77300000D01*
X120200000Y-72700000D02*
X120200000Y-77300000D01*
X120350000Y-72700000D02*
X120350000Y-77300000D01*
X120500000Y-72700000D02*
X120500000Y-77300000D01*
X120650000Y-72700000D02*
X120650000Y-77300000D01*
X120800000Y-72700000D02*
X120800000Y-77300000D01*
X120950000Y-72700000D02*
X120950000Y-77300000D01*
X121100000Y-72700000D02*
X121100000Y-77300000D01*
X121250000Y-72675000D02*
X119275000Y-72675000D01*
X121250000Y-72700000D02*
X121250000Y-77300000D01*
X121400000Y-72700000D02*
X121400000Y-77250000D01*
X121550000Y-72650000D02*
X121550000Y-77300000D01*
X121700000Y-72650000D02*
X121700000Y-77300000D01*
X121825000Y-77325000D02*
X119275000Y-77325000D01*
X121825000Y-77325000D02*
X123100000Y-76300000D01*
X121850000Y-72650000D02*
X121850000Y-77250000D01*
X122000000Y-72600000D02*
X122000000Y-77150000D01*
X122150000Y-72500000D02*
X122150000Y-77050000D01*
X122300000Y-72450000D02*
X122300000Y-76900000D01*
X122450000Y-72350000D02*
X122450000Y-76800000D01*
X122600000Y-72250000D02*
X122600000Y-76650000D01*
X122750000Y-72150000D02*
X122750000Y-76550000D01*
X122900000Y-72000000D02*
X122900000Y-76450000D01*
X123050000Y-71850000D02*
X123050000Y-76300000D01*
X123150000Y-71650000D02*
X123150000Y-75800000D01*
X123250000Y-71500000D02*
X123250000Y-75650000D01*
X123350000Y-71300000D02*
X123350000Y-75450000D01*
X123450000Y-71150000D02*
X123450000Y-75350000D01*
X123550000Y-70900000D02*
X123550000Y-75300000D01*
X123650000Y-70750000D02*
X123650000Y-75250000D01*
X123800000Y-70650000D02*
X123800000Y-75200000D01*
X123950000Y-70550000D02*
X123950000Y-75100000D01*
X124100000Y-70500000D02*
X124100000Y-75100000D01*
X124250000Y-70500000D02*
X124250000Y-75100000D01*
X124400000Y-70500000D02*
X124400000Y-75050000D01*
X124550000Y-70500000D02*
X124550000Y-75100000D01*
X124700000Y-70500000D02*
X124700000Y-75100000D01*
X124850000Y-70500000D02*
X124850000Y-75100000D01*
D13*
X124950000Y-62048460D02*
X124950000Y-63699460D01*
X124950000Y-66751000D02*
X116650000Y-66748460D01*
D11*
X125000000Y-70500000D02*
X125000000Y-75100000D01*
X125150000Y-70500000D02*
X125150000Y-75100000D01*
X125300000Y-70500000D02*
X125300000Y-75100000D01*
X125450000Y-70500000D02*
X125450000Y-75100000D01*
X125600000Y-70500000D02*
X125600000Y-75100000D01*
X125750000Y-70500000D02*
X125750000Y-75100000D01*
X125900000Y-70500000D02*
X125900000Y-75100000D01*
X126050000Y-70500000D02*
X126050000Y-75100000D01*
X126200000Y-70500000D02*
X126200000Y-75100000D01*
X126350000Y-70500000D02*
X126350000Y-75100000D01*
X126500000Y-70500000D02*
X126500000Y-75100000D01*
X126650000Y-70500000D02*
X126650000Y-75100000D01*
X126800000Y-70500000D02*
X126800000Y-75100000D01*
X126850000Y-70475000D02*
X124250000Y-70475000D01*
X126850000Y-75125000D02*
X124275000Y-75125000D01*
X126950000Y-70500000D02*
X126950000Y-75050000D01*
X127100000Y-70550000D02*
X127100000Y-75050000D01*
X127250000Y-70600000D02*
X127250000Y-75000000D01*
X127400000Y-70700000D02*
X127400000Y-74900000D01*
X127500000Y-70800000D02*
X127500000Y-74750000D01*
X127600000Y-70900000D02*
X127600000Y-74650000D01*
X127700000Y-71050000D02*
X127700000Y-74600000D01*
X127850000Y-74125000D02*
X127850000Y-71475000D01*
X123100000Y-76300000D02*
G75*
G02*
X124275000Y-75125000I1175002J-2D01*
G01*
X123387801Y-71178096D02*
G75*
G02*
X121250000Y-72675000I-2137800J778095D01*
G01*
X123387801Y-71178096D02*
G75*
G02*
X124249005Y-70476209I900000J-225000D01*
G01*
X126850000Y-70475000D02*
G75*
G02*
X127850000Y-71475000I1J-999999D01*
G01*
X127850000Y-74125000D02*
G75*
G02*
X126850000Y-75125000I-999999J-1D01*
G01*
D12*
X124950000Y-63064460D02*
X123942000Y-62051000D01*
X124950000Y-62048460D01*
X124950000Y-63064460D01*
G36*
X124950000Y-63064460D02*
G01*
X123942000Y-62051000D01*
X124950000Y-62048460D01*
X124950000Y-63064460D01*
G37*
D13*
X173800000Y-116648460D02*
X182100000Y-116648460D01*
D11*
X175400000Y-128300000D02*
X176425000Y-127275000D01*
X175400000Y-130900000D02*
X175400000Y-128300000D01*
X175400000Y-130900000D02*
X176425000Y-131925000D01*
X175550000Y-128150000D02*
X175550000Y-131050000D01*
X175700000Y-128050000D02*
X175700000Y-131200000D01*
X175850000Y-127850000D02*
X175850000Y-131350000D01*
X176000000Y-127700000D02*
X176000000Y-131500000D01*
X176150000Y-127550000D02*
X176150000Y-131650000D01*
X176300000Y-127450000D02*
X176300000Y-131800000D01*
X176450000Y-127300000D02*
X176450000Y-131900000D01*
X176600000Y-127300000D02*
X176600000Y-131900000D01*
X176750000Y-127300000D02*
X176750000Y-131900000D01*
X176900000Y-127300000D02*
X176900000Y-131900000D01*
X177050000Y-127300000D02*
X177050000Y-131900000D01*
X177200000Y-127300000D02*
X177200000Y-131900000D01*
X177350000Y-127300000D02*
X177350000Y-131900000D01*
X177500000Y-127300000D02*
X177500000Y-131900000D01*
X177650000Y-127300000D02*
X177650000Y-131900000D01*
X177800000Y-127300000D02*
X177800000Y-131900000D01*
X177950000Y-127300000D02*
X177950000Y-131900000D01*
X178100000Y-127300000D02*
X178100000Y-131900000D01*
X178250000Y-127300000D02*
X178250000Y-131900000D01*
X178400000Y-127275000D02*
X176425000Y-127275000D01*
X178400000Y-127300000D02*
X178400000Y-131900000D01*
X178550000Y-127300000D02*
X178550000Y-131850000D01*
X178700000Y-127250000D02*
X178700000Y-131900000D01*
X178850000Y-127250000D02*
X178850000Y-131900000D01*
X178975000Y-131925000D02*
X176425000Y-131925000D01*
X178975000Y-131925000D02*
X180250000Y-130900000D01*
X179000000Y-127250000D02*
X179000000Y-131850000D01*
X179150000Y-127200000D02*
X179150000Y-131750000D01*
X179300000Y-127100000D02*
X179300000Y-131650000D01*
X179450000Y-127050000D02*
X179450000Y-131500000D01*
X179600000Y-126950000D02*
X179600000Y-131400000D01*
X179750000Y-126850000D02*
X179750000Y-131250000D01*
X179900000Y-126750000D02*
X179900000Y-131150000D01*
X180050000Y-126600000D02*
X180050000Y-131050000D01*
X180200000Y-126450000D02*
X180200000Y-130900000D01*
X180300000Y-126250000D02*
X180300000Y-130400000D01*
X180400000Y-126100000D02*
X180400000Y-130250000D01*
X180500000Y-125900000D02*
X180500000Y-130050000D01*
X180600000Y-125750000D02*
X180600000Y-129950000D01*
X180700000Y-125500000D02*
X180700000Y-129900000D01*
X180800000Y-125350000D02*
X180800000Y-129850000D01*
X180950000Y-125250000D02*
X180950000Y-129800000D01*
X181100000Y-125150000D02*
X181100000Y-129700000D01*
X181250000Y-125100000D02*
X181250000Y-129700000D01*
X181400000Y-125100000D02*
X181400000Y-129700000D01*
X181550000Y-125100000D02*
X181550000Y-129650000D01*
X181700000Y-125100000D02*
X181700000Y-129700000D01*
X181850000Y-125100000D02*
X181850000Y-129700000D01*
X182000000Y-125100000D02*
X182000000Y-129700000D01*
D13*
X182100000Y-116648460D02*
X182100000Y-118299460D01*
X182100000Y-121351000D02*
X173800000Y-121348460D01*
D11*
X182150000Y-125100000D02*
X182150000Y-129700000D01*
X182300000Y-125100000D02*
X182300000Y-129700000D01*
X182450000Y-125100000D02*
X182450000Y-129700000D01*
X182600000Y-125100000D02*
X182600000Y-129700000D01*
X182750000Y-125100000D02*
X182750000Y-129700000D01*
X182900000Y-125100000D02*
X182900000Y-129700000D01*
X183050000Y-125100000D02*
X183050000Y-129700000D01*
X183200000Y-125100000D02*
X183200000Y-129700000D01*
X183350000Y-125100000D02*
X183350000Y-129700000D01*
X183500000Y-125100000D02*
X183500000Y-129700000D01*
X183650000Y-125100000D02*
X183650000Y-129700000D01*
X183800000Y-125100000D02*
X183800000Y-129700000D01*
X183950000Y-125100000D02*
X183950000Y-129700000D01*
X184000000Y-125075000D02*
X181400000Y-125075000D01*
X184000000Y-129725000D02*
X181425000Y-129725000D01*
X184100000Y-125100000D02*
X184100000Y-129650000D01*
X184250000Y-125150000D02*
X184250000Y-129650000D01*
X184400000Y-125200000D02*
X184400000Y-129600000D01*
X184550000Y-125300000D02*
X184550000Y-129500000D01*
X184650000Y-125400000D02*
X184650000Y-129350000D01*
X184750000Y-125500000D02*
X184750000Y-129250000D01*
X184850000Y-125650000D02*
X184850000Y-129200000D01*
X185000000Y-128725000D02*
X185000000Y-126075000D01*
X180250000Y-130900000D02*
G75*
G02*
X181425000Y-129725000I1175002J-2D01*
G01*
X180537801Y-125778096D02*
G75*
G02*
X178400000Y-127275000I-2137800J778095D01*
G01*
X180537801Y-125778096D02*
G75*
G02*
X181399005Y-125076209I900000J-225000D01*
G01*
X184000000Y-125075000D02*
G75*
G02*
X185000000Y-126075000I1J-999999D01*
G01*
X185000000Y-128725000D02*
G75*
G02*
X184000000Y-129725000I-999999J-1D01*
G01*
D12*
X182100000Y-117664460D02*
X181092000Y-116651000D01*
X182100000Y-116648460D01*
X182100000Y-117664460D01*
G36*
X182100000Y-117664460D02*
G01*
X181092000Y-116651000D01*
X182100000Y-116648460D01*
X182100000Y-117664460D01*
G37*
D13*
X192850000Y-64398460D02*
X201150000Y-64398460D01*
D11*
X194450000Y-76050000D02*
X195475000Y-75025000D01*
X194450000Y-78650000D02*
X194450000Y-76050000D01*
X194450000Y-78650000D02*
X195475000Y-79675000D01*
X194600000Y-75900000D02*
X194600000Y-78800000D01*
X194750000Y-75800000D02*
X194750000Y-78950000D01*
X194900000Y-75600000D02*
X194900000Y-79100000D01*
X195050000Y-75450000D02*
X195050000Y-79250000D01*
X195200000Y-75300000D02*
X195200000Y-79400000D01*
X195350000Y-75200000D02*
X195350000Y-79550000D01*
X195500000Y-75050000D02*
X195500000Y-79650000D01*
X195650000Y-75050000D02*
X195650000Y-79650000D01*
X195800000Y-75050000D02*
X195800000Y-79650000D01*
X195950000Y-75050000D02*
X195950000Y-79650000D01*
X196100000Y-75050000D02*
X196100000Y-79650000D01*
X196250000Y-75050000D02*
X196250000Y-79650000D01*
X196400000Y-75050000D02*
X196400000Y-79650000D01*
X196550000Y-75050000D02*
X196550000Y-79650000D01*
X196700000Y-75050000D02*
X196700000Y-79650000D01*
X196850000Y-75050000D02*
X196850000Y-79650000D01*
X197000000Y-75050000D02*
X197000000Y-79650000D01*
X197150000Y-75050000D02*
X197150000Y-79650000D01*
X197300000Y-75050000D02*
X197300000Y-79650000D01*
X197450000Y-75025000D02*
X195475000Y-75025000D01*
X197450000Y-75050000D02*
X197450000Y-79650000D01*
X197600000Y-75050000D02*
X197600000Y-79600000D01*
X197750000Y-75000000D02*
X197750000Y-79650000D01*
X197900000Y-75000000D02*
X197900000Y-79650000D01*
X198025000Y-79675000D02*
X195475000Y-79675000D01*
X198025000Y-79675000D02*
X199300000Y-78650000D01*
X198050000Y-75000000D02*
X198050000Y-79600000D01*
X198200000Y-74950000D02*
X198200000Y-79500000D01*
X198350000Y-74850000D02*
X198350000Y-79400000D01*
X198500000Y-74800000D02*
X198500000Y-79250000D01*
X198650000Y-74700000D02*
X198650000Y-79150000D01*
X198800000Y-74600000D02*
X198800000Y-79000000D01*
X198950000Y-74500000D02*
X198950000Y-78900000D01*
X199100000Y-74350000D02*
X199100000Y-78800000D01*
X199250000Y-74200000D02*
X199250000Y-78650000D01*
X199350000Y-74000000D02*
X199350000Y-78150000D01*
X199450000Y-73850000D02*
X199450000Y-78000000D01*
X199550000Y-73650000D02*
X199550000Y-77800000D01*
X199650000Y-73500000D02*
X199650000Y-77700000D01*
X199750000Y-73250000D02*
X199750000Y-77650000D01*
X199850000Y-73100000D02*
X199850000Y-77600000D01*
X200000000Y-73000000D02*
X200000000Y-77550000D01*
X200150000Y-72900000D02*
X200150000Y-77450000D01*
X200300000Y-72850000D02*
X200300000Y-77450000D01*
X200450000Y-72850000D02*
X200450000Y-77450000D01*
X200600000Y-72850000D02*
X200600000Y-77400000D01*
X200750000Y-72850000D02*
X200750000Y-77450000D01*
X200900000Y-72850000D02*
X200900000Y-77450000D01*
X201050000Y-72850000D02*
X201050000Y-77450000D01*
D13*
X201150000Y-64398460D02*
X201150000Y-66049460D01*
X201150000Y-69101000D02*
X192850000Y-69098460D01*
D11*
X201200000Y-72850000D02*
X201200000Y-77450000D01*
X201350000Y-72850000D02*
X201350000Y-77450000D01*
X201500000Y-72850000D02*
X201500000Y-77450000D01*
X201650000Y-72850000D02*
X201650000Y-77450000D01*
X201800000Y-72850000D02*
X201800000Y-77450000D01*
X201950000Y-72850000D02*
X201950000Y-77450000D01*
X202100000Y-72850000D02*
X202100000Y-77450000D01*
X202250000Y-72850000D02*
X202250000Y-77450000D01*
X202400000Y-72850000D02*
X202400000Y-77450000D01*
X202550000Y-72850000D02*
X202550000Y-77450000D01*
X202700000Y-72850000D02*
X202700000Y-77450000D01*
X202850000Y-72850000D02*
X202850000Y-77450000D01*
X203000000Y-72850000D02*
X203000000Y-77450000D01*
X203050000Y-72825000D02*
X200450000Y-72825000D01*
X203050000Y-77475000D02*
X200475000Y-77475000D01*
X203150000Y-72850000D02*
X203150000Y-77400000D01*
X203300000Y-72900000D02*
X203300000Y-77400000D01*
X203450000Y-72950000D02*
X203450000Y-77350000D01*
X203600000Y-73050000D02*
X203600000Y-77250000D01*
X203700000Y-73150000D02*
X203700000Y-77100000D01*
X203800000Y-73250000D02*
X203800000Y-77000000D01*
X203900000Y-73400000D02*
X203900000Y-76950000D01*
X204050000Y-76475000D02*
X204050000Y-73825000D01*
X199300000Y-78650000D02*
G75*
G02*
X200475000Y-77475000I1175002J-2D01*
G01*
X199587801Y-73528096D02*
G75*
G02*
X197450000Y-75025000I-2137800J778095D01*
G01*
X199587801Y-73528096D02*
G75*
G02*
X200449005Y-72826209I900000J-225000D01*
G01*
X203050000Y-72825000D02*
G75*
G02*
X204050000Y-73825000I1J-999999D01*
G01*
X204050000Y-76475000D02*
G75*
G02*
X203050000Y-77475000I-999999J-1D01*
G01*
D12*
X201150000Y-65414460D02*
X200142000Y-64401000D01*
X201150000Y-64398460D01*
X201150000Y-65414460D01*
G36*
X201150000Y-65414460D02*
G01*
X200142000Y-64401000D01*
X201150000Y-64398460D01*
X201150000Y-65414460D01*
G37*
D13*
X173800000Y-97598460D02*
X182100000Y-97598460D01*
D11*
X175400000Y-109250000D02*
X176425000Y-108225000D01*
X175400000Y-111850000D02*
X175400000Y-109250000D01*
X175400000Y-111850000D02*
X176425000Y-112875000D01*
X175550000Y-109100000D02*
X175550000Y-112000000D01*
X175700000Y-109000000D02*
X175700000Y-112150000D01*
X175850000Y-108800000D02*
X175850000Y-112300000D01*
X176000000Y-108650000D02*
X176000000Y-112450000D01*
X176150000Y-108500000D02*
X176150000Y-112600000D01*
X176300000Y-108400000D02*
X176300000Y-112750000D01*
X176450000Y-108250000D02*
X176450000Y-112850000D01*
X176600000Y-108250000D02*
X176600000Y-112850000D01*
X176750000Y-108250000D02*
X176750000Y-112850000D01*
X176900000Y-108250000D02*
X176900000Y-112850000D01*
X177050000Y-108250000D02*
X177050000Y-112850000D01*
X177200000Y-108250000D02*
X177200000Y-112850000D01*
X177350000Y-108250000D02*
X177350000Y-112850000D01*
X177500000Y-108250000D02*
X177500000Y-112850000D01*
X177650000Y-108250000D02*
X177650000Y-112850000D01*
X177800000Y-108250000D02*
X177800000Y-112850000D01*
X177950000Y-108250000D02*
X177950000Y-112850000D01*
X178100000Y-108250000D02*
X178100000Y-112850000D01*
X178250000Y-108250000D02*
X178250000Y-112850000D01*
X178400000Y-108225000D02*
X176425000Y-108225000D01*
X178400000Y-108250000D02*
X178400000Y-112850000D01*
X178550000Y-108250000D02*
X178550000Y-112800000D01*
X178700000Y-108200000D02*
X178700000Y-112850000D01*
X178850000Y-108200000D02*
X178850000Y-112850000D01*
X178975000Y-112875000D02*
X176425000Y-112875000D01*
X178975000Y-112875000D02*
X180250000Y-111850000D01*
X179000000Y-108200000D02*
X179000000Y-112800000D01*
X179150000Y-108150000D02*
X179150000Y-112700000D01*
X179300000Y-108050000D02*
X179300000Y-112600000D01*
X179450000Y-108000000D02*
X179450000Y-112450000D01*
X179600000Y-107900000D02*
X179600000Y-112350000D01*
X179750000Y-107800000D02*
X179750000Y-112200000D01*
X179900000Y-107700000D02*
X179900000Y-112100000D01*
X180050000Y-107550000D02*
X180050000Y-112000000D01*
X180200000Y-107400000D02*
X180200000Y-111850000D01*
X180300000Y-107200000D02*
X180300000Y-111350000D01*
X180400000Y-107050000D02*
X180400000Y-111200000D01*
X180500000Y-106850000D02*
X180500000Y-111000000D01*
X180600000Y-106700000D02*
X180600000Y-110900000D01*
X180700000Y-106450000D02*
X180700000Y-110850000D01*
X180800000Y-106300000D02*
X180800000Y-110800000D01*
X180950000Y-106200000D02*
X180950000Y-110750000D01*
X181100000Y-106100000D02*
X181100000Y-110650000D01*
X181250000Y-106050000D02*
X181250000Y-110650000D01*
X181400000Y-106050000D02*
X181400000Y-110650000D01*
X181550000Y-106050000D02*
X181550000Y-110600000D01*
X181700000Y-106050000D02*
X181700000Y-110650000D01*
X181850000Y-106050000D02*
X181850000Y-110650000D01*
X182000000Y-106050000D02*
X182000000Y-110650000D01*
D13*
X182100000Y-97598460D02*
X182100000Y-99249460D01*
X182100000Y-102301000D02*
X173800000Y-102298460D01*
D11*
X182150000Y-106050000D02*
X182150000Y-110650000D01*
X182300000Y-106050000D02*
X182300000Y-110650000D01*
X182450000Y-106050000D02*
X182450000Y-110650000D01*
X182600000Y-106050000D02*
X182600000Y-110650000D01*
X182750000Y-106050000D02*
X182750000Y-110650000D01*
X182900000Y-106050000D02*
X182900000Y-110650000D01*
X183050000Y-106050000D02*
X183050000Y-110650000D01*
X183200000Y-106050000D02*
X183200000Y-110650000D01*
X183350000Y-106050000D02*
X183350000Y-110650000D01*
X183500000Y-106050000D02*
X183500000Y-110650000D01*
X183650000Y-106050000D02*
X183650000Y-110650000D01*
X183800000Y-106050000D02*
X183800000Y-110650000D01*
X183950000Y-106050000D02*
X183950000Y-110650000D01*
X184000000Y-106025000D02*
X181400000Y-106025000D01*
X184000000Y-110675000D02*
X181425000Y-110675000D01*
X184100000Y-106050000D02*
X184100000Y-110600000D01*
X184250000Y-106100000D02*
X184250000Y-110600000D01*
X184400000Y-106150000D02*
X184400000Y-110550000D01*
X184550000Y-106250000D02*
X184550000Y-110450000D01*
X184650000Y-106350000D02*
X184650000Y-110300000D01*
X184750000Y-106450000D02*
X184750000Y-110200000D01*
X184850000Y-106600000D02*
X184850000Y-110150000D01*
X185000000Y-109675000D02*
X185000000Y-107025000D01*
X180250000Y-111850000D02*
G75*
G02*
X181425000Y-110675000I1175002J-2D01*
G01*
X180537801Y-106728096D02*
G75*
G02*
X178400000Y-108225000I-2137800J778095D01*
G01*
X180537801Y-106728096D02*
G75*
G02*
X181399005Y-106026209I900000J-225000D01*
G01*
X184000000Y-106025000D02*
G75*
G02*
X185000000Y-107025000I1J-999999D01*
G01*
X185000000Y-109675000D02*
G75*
G02*
X184000000Y-110675000I-999999J-1D01*
G01*
D12*
X182100000Y-98614460D02*
X181092000Y-97601000D01*
X182100000Y-97598460D01*
X182100000Y-98614460D01*
G36*
X182100000Y-98614460D02*
G01*
X181092000Y-97601000D01*
X182100000Y-97598460D01*
X182100000Y-98614460D01*
G37*
D13*
X192850000Y-83448460D02*
X201150000Y-83448460D01*
D11*
X194450000Y-95100000D02*
X195475000Y-94075000D01*
X194450000Y-97700000D02*
X194450000Y-95100000D01*
X194450000Y-97700000D02*
X195475000Y-98725000D01*
X194600000Y-94950000D02*
X194600000Y-97850000D01*
X194750000Y-94850000D02*
X194750000Y-98000000D01*
X194900000Y-94650000D02*
X194900000Y-98150000D01*
X195050000Y-94500000D02*
X195050000Y-98300000D01*
X195200000Y-94350000D02*
X195200000Y-98450000D01*
X195350000Y-94250000D02*
X195350000Y-98600000D01*
X195500000Y-94100000D02*
X195500000Y-98700000D01*
X195650000Y-94100000D02*
X195650000Y-98700000D01*
X195800000Y-94100000D02*
X195800000Y-98700000D01*
X195950000Y-94100000D02*
X195950000Y-98700000D01*
X196100000Y-94100000D02*
X196100000Y-98700000D01*
X196250000Y-94100000D02*
X196250000Y-98700000D01*
X196400000Y-94100000D02*
X196400000Y-98700000D01*
X196550000Y-94100000D02*
X196550000Y-98700000D01*
X196700000Y-94100000D02*
X196700000Y-98700000D01*
X196850000Y-94100000D02*
X196850000Y-98700000D01*
X197000000Y-94100000D02*
X197000000Y-98700000D01*
X197150000Y-94100000D02*
X197150000Y-98700000D01*
X197300000Y-94100000D02*
X197300000Y-98700000D01*
X197450000Y-94075000D02*
X195475000Y-94075000D01*
X197450000Y-94100000D02*
X197450000Y-98700000D01*
X197600000Y-94100000D02*
X197600000Y-98650000D01*
X197750000Y-94050000D02*
X197750000Y-98700000D01*
X197900000Y-94050000D02*
X197900000Y-98700000D01*
X198025000Y-98725000D02*
X195475000Y-98725000D01*
X198025000Y-98725000D02*
X199300000Y-97700000D01*
X198050000Y-94050000D02*
X198050000Y-98650000D01*
X198200000Y-94000000D02*
X198200000Y-98550000D01*
X198350000Y-93900000D02*
X198350000Y-98450000D01*
X198500000Y-93850000D02*
X198500000Y-98300000D01*
X198650000Y-93750000D02*
X198650000Y-98200000D01*
X198800000Y-93650000D02*
X198800000Y-98050000D01*
X198950000Y-93550000D02*
X198950000Y-97950000D01*
X199100000Y-93400000D02*
X199100000Y-97850000D01*
X199250000Y-93250000D02*
X199250000Y-97700000D01*
X199350000Y-93050000D02*
X199350000Y-97200000D01*
X199450000Y-92900000D02*
X199450000Y-97050000D01*
X199550000Y-92700000D02*
X199550000Y-96850000D01*
X199650000Y-92550000D02*
X199650000Y-96750000D01*
X199750000Y-92300000D02*
X199750000Y-96700000D01*
X199850000Y-92150000D02*
X199850000Y-96650000D01*
X200000000Y-92050000D02*
X200000000Y-96600000D01*
X200150000Y-91950000D02*
X200150000Y-96500000D01*
X200300000Y-91900000D02*
X200300000Y-96500000D01*
X200450000Y-91900000D02*
X200450000Y-96500000D01*
X200600000Y-91900000D02*
X200600000Y-96450000D01*
X200750000Y-91900000D02*
X200750000Y-96500000D01*
X200900000Y-91900000D02*
X200900000Y-96500000D01*
X201050000Y-91900000D02*
X201050000Y-96500000D01*
D13*
X201150000Y-83448460D02*
X201150000Y-85099460D01*
X201150000Y-88151000D02*
X192850000Y-88148460D01*
D11*
X201200000Y-91900000D02*
X201200000Y-96500000D01*
X201350000Y-91900000D02*
X201350000Y-96500000D01*
X201500000Y-91900000D02*
X201500000Y-96500000D01*
X201650000Y-91900000D02*
X201650000Y-96500000D01*
X201800000Y-91900000D02*
X201800000Y-96500000D01*
X201950000Y-91900000D02*
X201950000Y-96500000D01*
X202100000Y-91900000D02*
X202100000Y-96500000D01*
X202250000Y-91900000D02*
X202250000Y-96500000D01*
X202400000Y-91900000D02*
X202400000Y-96500000D01*
X202550000Y-91900000D02*
X202550000Y-96500000D01*
X202700000Y-91900000D02*
X202700000Y-96500000D01*
X202850000Y-91900000D02*
X202850000Y-96500000D01*
X203000000Y-91900000D02*
X203000000Y-96500000D01*
X203050000Y-91875000D02*
X200450000Y-91875000D01*
X203050000Y-96525000D02*
X200475000Y-96525000D01*
X203150000Y-91900000D02*
X203150000Y-96450000D01*
X203300000Y-91950000D02*
X203300000Y-96450000D01*
X203450000Y-92000000D02*
X203450000Y-96400000D01*
X203600000Y-92100000D02*
X203600000Y-96300000D01*
X203700000Y-92200000D02*
X203700000Y-96150000D01*
X203800000Y-92300000D02*
X203800000Y-96050000D01*
X203900000Y-92450000D02*
X203900000Y-96000000D01*
X204050000Y-95525000D02*
X204050000Y-92875000D01*
X199300000Y-97700000D02*
G75*
G02*
X200475000Y-96525000I1175002J-2D01*
G01*
X199587801Y-92578096D02*
G75*
G02*
X197450000Y-94075000I-2137800J778095D01*
G01*
X199587801Y-92578096D02*
G75*
G02*
X200449005Y-91876209I900000J-225000D01*
G01*
X203050000Y-91875000D02*
G75*
G02*
X204050000Y-92875000I1J-999999D01*
G01*
X204050000Y-95525000D02*
G75*
G02*
X203050000Y-96525000I-999999J-1D01*
G01*
D12*
X201150000Y-84464460D02*
X200142000Y-83451000D01*
X201150000Y-83448460D01*
X201150000Y-84464460D01*
G36*
X201150000Y-84464460D02*
G01*
X200142000Y-83451000D01*
X201150000Y-83448460D01*
X201150000Y-84464460D01*
G37*
D13*
X154750000Y-114148460D02*
X163050000Y-114148460D01*
D11*
X156350000Y-125800000D02*
X157375000Y-124775000D01*
X156350000Y-128400000D02*
X156350000Y-125800000D01*
X156350000Y-128400000D02*
X157375000Y-129425000D01*
X156500000Y-125650000D02*
X156500000Y-128550000D01*
X156650000Y-125550000D02*
X156650000Y-128700000D01*
X156800000Y-125350000D02*
X156800000Y-128850000D01*
X156950000Y-125200000D02*
X156950000Y-129000000D01*
X157100000Y-125050000D02*
X157100000Y-129150000D01*
X157250000Y-124950000D02*
X157250000Y-129300000D01*
X157400000Y-124800000D02*
X157400000Y-129400000D01*
X157550000Y-124800000D02*
X157550000Y-129400000D01*
X157700000Y-124800000D02*
X157700000Y-129400000D01*
X157850000Y-124800000D02*
X157850000Y-129400000D01*
X158000000Y-124800000D02*
X158000000Y-129400000D01*
X158150000Y-124800000D02*
X158150000Y-129400000D01*
X158300000Y-124800000D02*
X158300000Y-129400000D01*
X158450000Y-124800000D02*
X158450000Y-129400000D01*
X158600000Y-124800000D02*
X158600000Y-129400000D01*
X158750000Y-124800000D02*
X158750000Y-129400000D01*
X158900000Y-124800000D02*
X158900000Y-129400000D01*
X159050000Y-124800000D02*
X159050000Y-129400000D01*
X159200000Y-124800000D02*
X159200000Y-129400000D01*
X159350000Y-124775000D02*
X157375000Y-124775000D01*
X159350000Y-124800000D02*
X159350000Y-129400000D01*
X159500000Y-124800000D02*
X159500000Y-129350000D01*
X159650000Y-124750000D02*
X159650000Y-129400000D01*
X159800000Y-124750000D02*
X159800000Y-129400000D01*
X159925000Y-129425000D02*
X157375000Y-129425000D01*
X159925000Y-129425000D02*
X161200000Y-128400000D01*
X159950000Y-124750000D02*
X159950000Y-129350000D01*
X160100000Y-124700000D02*
X160100000Y-129250000D01*
X160250000Y-124600000D02*
X160250000Y-129150000D01*
X160400000Y-124550000D02*
X160400000Y-129000000D01*
X160550000Y-124450000D02*
X160550000Y-128900000D01*
X160700000Y-124350000D02*
X160700000Y-128750000D01*
X160850000Y-124250000D02*
X160850000Y-128650000D01*
X161000000Y-124100000D02*
X161000000Y-128550000D01*
X161150000Y-123950000D02*
X161150000Y-128400000D01*
X161250000Y-123750000D02*
X161250000Y-127900000D01*
X161350000Y-123600000D02*
X161350000Y-127750000D01*
X161450000Y-123400000D02*
X161450000Y-127550000D01*
X161550000Y-123250000D02*
X161550000Y-127450000D01*
X161650000Y-123000000D02*
X161650000Y-127400000D01*
X161750000Y-122850000D02*
X161750000Y-127350000D01*
X161900000Y-122750000D02*
X161900000Y-127300000D01*
X162050000Y-122650000D02*
X162050000Y-127200000D01*
X162200000Y-122600000D02*
X162200000Y-127200000D01*
X162350000Y-122600000D02*
X162350000Y-127200000D01*
X162500000Y-122600000D02*
X162500000Y-127150000D01*
X162650000Y-122600000D02*
X162650000Y-127200000D01*
X162800000Y-122600000D02*
X162800000Y-127200000D01*
X162950000Y-122600000D02*
X162950000Y-127200000D01*
D13*
X163050000Y-114148460D02*
X163050000Y-115799460D01*
X163050000Y-118851000D02*
X154750000Y-118848460D01*
D11*
X163100000Y-122600000D02*
X163100000Y-127200000D01*
X163250000Y-122600000D02*
X163250000Y-127200000D01*
X163400000Y-122600000D02*
X163400000Y-127200000D01*
X163550000Y-122600000D02*
X163550000Y-127200000D01*
X163700000Y-122600000D02*
X163700000Y-127200000D01*
X163850000Y-122600000D02*
X163850000Y-127200000D01*
X164000000Y-122600000D02*
X164000000Y-127200000D01*
X164150000Y-122600000D02*
X164150000Y-127200000D01*
X164300000Y-122600000D02*
X164300000Y-127200000D01*
X164450000Y-122600000D02*
X164450000Y-127200000D01*
X164600000Y-122600000D02*
X164600000Y-127200000D01*
X164750000Y-122600000D02*
X164750000Y-127200000D01*
X164900000Y-122600000D02*
X164900000Y-127200000D01*
X164950000Y-122575000D02*
X162350000Y-122575000D01*
X164950000Y-127225000D02*
X162375000Y-127225000D01*
X165050000Y-122600000D02*
X165050000Y-127150000D01*
X165200000Y-122650000D02*
X165200000Y-127150000D01*
X165350000Y-122700000D02*
X165350000Y-127100000D01*
X165500000Y-122800000D02*
X165500000Y-127000000D01*
X165600000Y-122900000D02*
X165600000Y-126850000D01*
X165700000Y-123000000D02*
X165700000Y-126750000D01*
X165800000Y-123150000D02*
X165800000Y-126700000D01*
X165950000Y-126225000D02*
X165950000Y-123575000D01*
X161200000Y-128400000D02*
G75*
G02*
X162375000Y-127225000I1175002J-2D01*
G01*
X161487801Y-123278096D02*
G75*
G02*
X159350000Y-124775000I-2137800J778095D01*
G01*
X161487801Y-123278096D02*
G75*
G02*
X162349005Y-122576209I900000J-225000D01*
G01*
X164950000Y-122575000D02*
G75*
G02*
X165950000Y-123575000I1J-999999D01*
G01*
X165950000Y-126225000D02*
G75*
G02*
X164950000Y-127225000I-999999J-1D01*
G01*
D12*
X163050000Y-115164460D02*
X162042000Y-114151000D01*
X163050000Y-114148460D01*
X163050000Y-115164460D01*
G36*
X163050000Y-115164460D02*
G01*
X162042000Y-114151000D01*
X163050000Y-114148460D01*
X163050000Y-115164460D01*
G37*
D13*
X154750000Y-76048460D02*
X163050000Y-76048460D01*
D11*
X156350000Y-87700000D02*
X157375000Y-86675000D01*
X156350000Y-90300000D02*
X156350000Y-87700000D01*
X156350000Y-90300000D02*
X157375000Y-91325000D01*
X156500000Y-87550000D02*
X156500000Y-90450000D01*
X156650000Y-87450000D02*
X156650000Y-90600000D01*
X156800000Y-87250000D02*
X156800000Y-90750000D01*
X156950000Y-87100000D02*
X156950000Y-90900000D01*
X157100000Y-86950000D02*
X157100000Y-91050000D01*
X157250000Y-86850000D02*
X157250000Y-91200000D01*
X157400000Y-86700000D02*
X157400000Y-91300000D01*
X157550000Y-86700000D02*
X157550000Y-91300000D01*
X157700000Y-86700000D02*
X157700000Y-91300000D01*
X157850000Y-86700000D02*
X157850000Y-91300000D01*
X158000000Y-86700000D02*
X158000000Y-91300000D01*
X158150000Y-86700000D02*
X158150000Y-91300000D01*
X158300000Y-86700000D02*
X158300000Y-91300000D01*
X158450000Y-86700000D02*
X158450000Y-91300000D01*
X158600000Y-86700000D02*
X158600000Y-91300000D01*
X158750000Y-86700000D02*
X158750000Y-91300000D01*
X158900000Y-86700000D02*
X158900000Y-91300000D01*
X159050000Y-86700000D02*
X159050000Y-91300000D01*
X159200000Y-86700000D02*
X159200000Y-91300000D01*
X159350000Y-86675000D02*
X157375000Y-86675000D01*
X159350000Y-86700000D02*
X159350000Y-91300000D01*
X159500000Y-86700000D02*
X159500000Y-91250000D01*
X159650000Y-86650000D02*
X159650000Y-91300000D01*
X159800000Y-86650000D02*
X159800000Y-91300000D01*
X159925000Y-91325000D02*
X157375000Y-91325000D01*
X159925000Y-91325000D02*
X161200000Y-90300000D01*
X159950000Y-86650000D02*
X159950000Y-91250000D01*
X160100000Y-86600000D02*
X160100000Y-91150000D01*
X160250000Y-86500000D02*
X160250000Y-91050000D01*
X160400000Y-86450000D02*
X160400000Y-90900000D01*
X160550000Y-86350000D02*
X160550000Y-90800000D01*
X160700000Y-86250000D02*
X160700000Y-90650000D01*
X160850000Y-86150000D02*
X160850000Y-90550000D01*
X161000000Y-86000000D02*
X161000000Y-90450000D01*
X161150000Y-85850000D02*
X161150000Y-90300000D01*
X161250000Y-85650000D02*
X161250000Y-89800000D01*
X161350000Y-85500000D02*
X161350000Y-89650000D01*
X161450000Y-85300000D02*
X161450000Y-89450000D01*
X161550000Y-85150000D02*
X161550000Y-89350000D01*
X161650000Y-84900000D02*
X161650000Y-89300000D01*
X161750000Y-84750000D02*
X161750000Y-89250000D01*
X161900000Y-84650000D02*
X161900000Y-89200000D01*
X162050000Y-84550000D02*
X162050000Y-89100000D01*
X162200000Y-84500000D02*
X162200000Y-89100000D01*
X162350000Y-84500000D02*
X162350000Y-89100000D01*
X162500000Y-84500000D02*
X162500000Y-89050000D01*
X162650000Y-84500000D02*
X162650000Y-89100000D01*
X162800000Y-84500000D02*
X162800000Y-89100000D01*
X162950000Y-84500000D02*
X162950000Y-89100000D01*
D13*
X163050000Y-76048460D02*
X163050000Y-77699460D01*
X163050000Y-80751000D02*
X154750000Y-80748460D01*
D11*
X163100000Y-84500000D02*
X163100000Y-89100000D01*
X163250000Y-84500000D02*
X163250000Y-89100000D01*
X163400000Y-84500000D02*
X163400000Y-89100000D01*
X163550000Y-84500000D02*
X163550000Y-89100000D01*
X163700000Y-84500000D02*
X163700000Y-89100000D01*
X163850000Y-84500000D02*
X163850000Y-89100000D01*
X164000000Y-84500000D02*
X164000000Y-89100000D01*
X164150000Y-84500000D02*
X164150000Y-89100000D01*
X164300000Y-84500000D02*
X164300000Y-89100000D01*
X164450000Y-84500000D02*
X164450000Y-89100000D01*
X164600000Y-84500000D02*
X164600000Y-89100000D01*
X164750000Y-84500000D02*
X164750000Y-89100000D01*
X164900000Y-84500000D02*
X164900000Y-89100000D01*
X164950000Y-84475000D02*
X162350000Y-84475000D01*
X164950000Y-89125000D02*
X162375000Y-89125000D01*
X165050000Y-84500000D02*
X165050000Y-89050000D01*
X165200000Y-84550000D02*
X165200000Y-89050000D01*
X165350000Y-84600000D02*
X165350000Y-89000000D01*
X165500000Y-84700000D02*
X165500000Y-88900000D01*
X165600000Y-84800000D02*
X165600000Y-88750000D01*
X165700000Y-84900000D02*
X165700000Y-88650000D01*
X165800000Y-85050000D02*
X165800000Y-88600000D01*
X165950000Y-88125000D02*
X165950000Y-85475000D01*
X161200000Y-90300000D02*
G75*
G02*
X162375000Y-89125000I1175002J-2D01*
G01*
X161487801Y-85178096D02*
G75*
G02*
X159350000Y-86675000I-2137800J778095D01*
G01*
X161487801Y-85178096D02*
G75*
G02*
X162349005Y-84476209I900000J-225000D01*
G01*
X164950000Y-84475000D02*
G75*
G02*
X165950000Y-85475000I1J-999999D01*
G01*
X165950000Y-88125000D02*
G75*
G02*
X164950000Y-89125000I-999999J-1D01*
G01*
D12*
X163050000Y-77064460D02*
X162042000Y-76051000D01*
X163050000Y-76048460D01*
X163050000Y-77064460D01*
G36*
X163050000Y-77064460D02*
G01*
X162042000Y-76051000D01*
X163050000Y-76048460D01*
X163050000Y-77064460D01*
G37*
D13*
X135700000Y-40448460D02*
X144000000Y-40448460D01*
D11*
X137300000Y-52100000D02*
X138325000Y-51075000D01*
X137300000Y-54700000D02*
X137300000Y-52100000D01*
X137300000Y-54700000D02*
X138325000Y-55725000D01*
X137450000Y-51950000D02*
X137450000Y-54850000D01*
X137600000Y-51850000D02*
X137600000Y-55000000D01*
X137750000Y-51650000D02*
X137750000Y-55150000D01*
X137900000Y-51500000D02*
X137900000Y-55300000D01*
X138050000Y-51350000D02*
X138050000Y-55450000D01*
X138200000Y-51250000D02*
X138200000Y-55600000D01*
X138350000Y-51100000D02*
X138350000Y-55700000D01*
X138500000Y-51100000D02*
X138500000Y-55700000D01*
X138650000Y-51100000D02*
X138650000Y-55700000D01*
X138800000Y-51100000D02*
X138800000Y-55700000D01*
X138950000Y-51100000D02*
X138950000Y-55700000D01*
X139100000Y-51100000D02*
X139100000Y-55700000D01*
X139250000Y-51100000D02*
X139250000Y-55700000D01*
X139400000Y-51100000D02*
X139400000Y-55700000D01*
X139550000Y-51100000D02*
X139550000Y-55700000D01*
X139700000Y-51100000D02*
X139700000Y-55700000D01*
X139850000Y-51100000D02*
X139850000Y-55700000D01*
X140000000Y-51100000D02*
X140000000Y-55700000D01*
X140150000Y-51100000D02*
X140150000Y-55700000D01*
X140300000Y-51075000D02*
X138325000Y-51075000D01*
X140300000Y-51100000D02*
X140300000Y-55700000D01*
X140450000Y-51100000D02*
X140450000Y-55650000D01*
X140600000Y-51050000D02*
X140600000Y-55700000D01*
X140750000Y-51050000D02*
X140750000Y-55700000D01*
X140875000Y-55725000D02*
X138325000Y-55725000D01*
X140875000Y-55725000D02*
X142150000Y-54700000D01*
X140900000Y-51050000D02*
X140900000Y-55650000D01*
X141050000Y-51000000D02*
X141050000Y-55550000D01*
X141200000Y-50900000D02*
X141200000Y-55450000D01*
X141350000Y-50850000D02*
X141350000Y-55300000D01*
X141500000Y-50750000D02*
X141500000Y-55200000D01*
X141650000Y-50650000D02*
X141650000Y-55050000D01*
X141800000Y-50550000D02*
X141800000Y-54950000D01*
X141950000Y-50400000D02*
X141950000Y-54850000D01*
X142100000Y-50250000D02*
X142100000Y-54700000D01*
X142200000Y-50050000D02*
X142200000Y-54200000D01*
X142300000Y-49900000D02*
X142300000Y-54050000D01*
X142400000Y-49700000D02*
X142400000Y-53850000D01*
X142500000Y-49550000D02*
X142500000Y-53750000D01*
X142600000Y-49300000D02*
X142600000Y-53700000D01*
X142700000Y-49150000D02*
X142700000Y-53650000D01*
X142850000Y-49050000D02*
X142850000Y-53600000D01*
X143000000Y-48950000D02*
X143000000Y-53500000D01*
X143150000Y-48900000D02*
X143150000Y-53500000D01*
X143300000Y-48900000D02*
X143300000Y-53500000D01*
X143450000Y-48900000D02*
X143450000Y-53450000D01*
X143600000Y-48900000D02*
X143600000Y-53500000D01*
X143750000Y-48900000D02*
X143750000Y-53500000D01*
X143900000Y-48900000D02*
X143900000Y-53500000D01*
D13*
X144000000Y-40448460D02*
X144000000Y-42099460D01*
X144000000Y-45151000D02*
X135700000Y-45148460D01*
D11*
X144050000Y-48900000D02*
X144050000Y-53500000D01*
X144200000Y-48900000D02*
X144200000Y-53500000D01*
X144350000Y-48900000D02*
X144350000Y-53500000D01*
X144500000Y-48900000D02*
X144500000Y-53500000D01*
X144650000Y-48900000D02*
X144650000Y-53500000D01*
X144800000Y-48900000D02*
X144800000Y-53500000D01*
X144950000Y-48900000D02*
X144950000Y-53500000D01*
X145100000Y-48900000D02*
X145100000Y-53500000D01*
X145250000Y-48900000D02*
X145250000Y-53500000D01*
X145400000Y-48900000D02*
X145400000Y-53500000D01*
X145550000Y-48900000D02*
X145550000Y-53500000D01*
X145700000Y-48900000D02*
X145700000Y-53500000D01*
X145850000Y-48900000D02*
X145850000Y-53500000D01*
X145900000Y-48875000D02*
X143300000Y-48875000D01*
X145900000Y-53525000D02*
X143325000Y-53525000D01*
X146000000Y-48900000D02*
X146000000Y-53450000D01*
X146150000Y-48950000D02*
X146150000Y-53450000D01*
X146300000Y-49000000D02*
X146300000Y-53400000D01*
X146450000Y-49100000D02*
X146450000Y-53300000D01*
X146550000Y-49200000D02*
X146550000Y-53150000D01*
X146650000Y-49300000D02*
X146650000Y-53050000D01*
X146750000Y-49450000D02*
X146750000Y-53000000D01*
X146900000Y-52525000D02*
X146900000Y-49875000D01*
X142150000Y-54700000D02*
G75*
G02*
X143325000Y-53525000I1175002J-2D01*
G01*
X142437801Y-49578096D02*
G75*
G02*
X140300000Y-51075000I-2137800J778095D01*
G01*
X142437801Y-49578096D02*
G75*
G02*
X143299005Y-48876209I900000J-225000D01*
G01*
X145900000Y-48875000D02*
G75*
G02*
X146900000Y-49875000I1J-999999D01*
G01*
X146900000Y-52525000D02*
G75*
G02*
X145900000Y-53525000I-999999J-1D01*
G01*
D12*
X144000000Y-41464460D02*
X142992000Y-40451000D01*
X144000000Y-40448460D01*
X144000000Y-41464460D01*
G36*
X144000000Y-41464460D02*
G01*
X142992000Y-40451000D01*
X144000000Y-40448460D01*
X144000000Y-41464460D01*
G37*
D11*
X107950744Y-126747115D02*
X109348367Y-131963114D01*
X109020447Y-129773372D02*
X109270472Y-128774630D01*
X109270472Y-128774630D02*
X109986372Y-129514553D01*
X109399633Y-126358886D02*
X107950744Y-126747115D01*
X109727553Y-128548628D02*
X108761628Y-128807447D01*
X109986372Y-129514553D02*
X109020447Y-129773372D01*
X110797256Y-131574885D02*
X109348367Y-131963114D01*
X110797256Y-131574885D02*
X109399633Y-126358886D01*
D13*
X135700000Y-97598460D02*
X144000000Y-97598460D01*
D11*
X137300000Y-109250000D02*
X138325000Y-108225000D01*
X137300000Y-111850000D02*
X137300000Y-109250000D01*
X137300000Y-111850000D02*
X138325000Y-112875000D01*
X137450000Y-109100000D02*
X137450000Y-112000000D01*
X137600000Y-109000000D02*
X137600000Y-112150000D01*
X137750000Y-108800000D02*
X137750000Y-112300000D01*
X137900000Y-108650000D02*
X137900000Y-112450000D01*
X138050000Y-108500000D02*
X138050000Y-112600000D01*
X138200000Y-108400000D02*
X138200000Y-112750000D01*
X138350000Y-108250000D02*
X138350000Y-112850000D01*
X138500000Y-108250000D02*
X138500000Y-112850000D01*
X138650000Y-108250000D02*
X138650000Y-112850000D01*
X138800000Y-108250000D02*
X138800000Y-112850000D01*
X138950000Y-108250000D02*
X138950000Y-112850000D01*
X139100000Y-108250000D02*
X139100000Y-112850000D01*
X139250000Y-108250000D02*
X139250000Y-112850000D01*
X139400000Y-108250000D02*
X139400000Y-112850000D01*
X139550000Y-108250000D02*
X139550000Y-112850000D01*
X139700000Y-108250000D02*
X139700000Y-112850000D01*
X139850000Y-108250000D02*
X139850000Y-112850000D01*
X140000000Y-108250000D02*
X140000000Y-112850000D01*
X140150000Y-108250000D02*
X140150000Y-112850000D01*
X140300000Y-108225000D02*
X138325000Y-108225000D01*
X140300000Y-108250000D02*
X140300000Y-112850000D01*
X140450000Y-108250000D02*
X140450000Y-112800000D01*
X140600000Y-108200000D02*
X140600000Y-112850000D01*
X140750000Y-108200000D02*
X140750000Y-112850000D01*
X140875000Y-112875000D02*
X138325000Y-112875000D01*
X140875000Y-112875000D02*
X142150000Y-111850000D01*
X140900000Y-108200000D02*
X140900000Y-112800000D01*
X141050000Y-108150000D02*
X141050000Y-112700000D01*
X141200000Y-108050000D02*
X141200000Y-112600000D01*
X141350000Y-108000000D02*
X141350000Y-112450000D01*
X141500000Y-107900000D02*
X141500000Y-112350000D01*
X141650000Y-107800000D02*
X141650000Y-112200000D01*
X141800000Y-107700000D02*
X141800000Y-112100000D01*
X141950000Y-107550000D02*
X141950000Y-112000000D01*
X142100000Y-107400000D02*
X142100000Y-111850000D01*
X142200000Y-107200000D02*
X142200000Y-111350000D01*
X142300000Y-107050000D02*
X142300000Y-111200000D01*
X142400000Y-106850000D02*
X142400000Y-111000000D01*
X142500000Y-106700000D02*
X142500000Y-110900000D01*
X142600000Y-106450000D02*
X142600000Y-110850000D01*
X142700000Y-106300000D02*
X142700000Y-110800000D01*
X142850000Y-106200000D02*
X142850000Y-110750000D01*
X143000000Y-106100000D02*
X143000000Y-110650000D01*
X143150000Y-106050000D02*
X143150000Y-110650000D01*
X143300000Y-106050000D02*
X143300000Y-110650000D01*
X143450000Y-106050000D02*
X143450000Y-110600000D01*
X143600000Y-106050000D02*
X143600000Y-110650000D01*
X143750000Y-106050000D02*
X143750000Y-110650000D01*
X143900000Y-106050000D02*
X143900000Y-110650000D01*
D13*
X144000000Y-97598460D02*
X144000000Y-99249460D01*
X144000000Y-102301000D02*
X135700000Y-102298460D01*
D11*
X144050000Y-106050000D02*
X144050000Y-110650000D01*
X144200000Y-106050000D02*
X144200000Y-110650000D01*
X144350000Y-106050000D02*
X144350000Y-110650000D01*
X144500000Y-106050000D02*
X144500000Y-110650000D01*
X144650000Y-106050000D02*
X144650000Y-110650000D01*
X144800000Y-106050000D02*
X144800000Y-110650000D01*
X144950000Y-106050000D02*
X144950000Y-110650000D01*
X145100000Y-106050000D02*
X145100000Y-110650000D01*
X145250000Y-106050000D02*
X145250000Y-110650000D01*
X145400000Y-106050000D02*
X145400000Y-110650000D01*
X145550000Y-106050000D02*
X145550000Y-110650000D01*
X145700000Y-106050000D02*
X145700000Y-110650000D01*
X145850000Y-106050000D02*
X145850000Y-110650000D01*
X145900000Y-106025000D02*
X143300000Y-106025000D01*
X145900000Y-110675000D02*
X143325000Y-110675000D01*
X146000000Y-106050000D02*
X146000000Y-110600000D01*
X146150000Y-106100000D02*
X146150000Y-110600000D01*
X146300000Y-106150000D02*
X146300000Y-110550000D01*
X146450000Y-106250000D02*
X146450000Y-110450000D01*
X146550000Y-106350000D02*
X146550000Y-110300000D01*
X146650000Y-106450000D02*
X146650000Y-110200000D01*
X146750000Y-106600000D02*
X146750000Y-110150000D01*
X146900000Y-109675000D02*
X146900000Y-107025000D01*
X142150000Y-111850000D02*
G75*
G02*
X143325000Y-110675000I1175002J-2D01*
G01*
X142437801Y-106728096D02*
G75*
G02*
X140300000Y-108225000I-2137800J778095D01*
G01*
X142437801Y-106728096D02*
G75*
G02*
X143299005Y-106026209I900000J-225000D01*
G01*
X145900000Y-106025000D02*
G75*
G02*
X146900000Y-107025000I1J-999999D01*
G01*
X146900000Y-109675000D02*
G75*
G02*
X145900000Y-110675000I-999999J-1D01*
G01*
D12*
X144000000Y-98614460D02*
X142992000Y-97601000D01*
X144000000Y-97598460D01*
X144000000Y-98614460D01*
G36*
X144000000Y-98614460D02*
G01*
X142992000Y-97601000D01*
X144000000Y-97598460D01*
X144000000Y-98614460D01*
G37*
D11*
X149595000Y-79220000D02*
X149595000Y-84620000D01*
X149845000Y-82420000D02*
X150345000Y-81520000D01*
X150345000Y-81520000D02*
X150845000Y-82420000D01*
X150845000Y-81420000D02*
X149845000Y-81420000D01*
X150845000Y-82420000D02*
X149845000Y-82420000D01*
X151095000Y-79220000D02*
X149595000Y-79220000D01*
X151095000Y-84620000D02*
X149595000Y-84620000D01*
X151095000Y-84620000D02*
X151095000Y-79220000D01*
X168595000Y-81630000D02*
X168595000Y-87030000D01*
X168845000Y-84830000D02*
X169345000Y-83930000D01*
X169345000Y-83930000D02*
X169845000Y-84830000D01*
X169845000Y-83830000D02*
X168845000Y-83830000D01*
X169845000Y-84830000D02*
X168845000Y-84830000D01*
X170095000Y-81630000D02*
X168595000Y-81630000D01*
X170095000Y-87030000D02*
X168595000Y-87030000D01*
X170095000Y-87030000D02*
X170095000Y-81630000D01*
X187695000Y-86530000D02*
X187695000Y-91930000D01*
X187945000Y-89730000D02*
X188445000Y-88830000D01*
X188445000Y-88830000D02*
X188945000Y-89730000D01*
X188945000Y-88730000D02*
X187945000Y-88730000D01*
X188945000Y-89730000D02*
X187945000Y-89730000D01*
X189195000Y-86530000D02*
X187695000Y-86530000D01*
X189195000Y-91930000D02*
X187695000Y-91930000D01*
X189195000Y-91930000D02*
X189195000Y-86530000D01*
X206695000Y-86530000D02*
X206695000Y-91930000D01*
X206945000Y-89730000D02*
X207445000Y-88830000D01*
X207445000Y-88830000D02*
X207945000Y-89730000D01*
X207945000Y-88730000D02*
X206945000Y-88730000D01*
X207945000Y-89730000D02*
X206945000Y-89730000D01*
X208195000Y-86530000D02*
X206695000Y-86530000D01*
X208195000Y-91930000D02*
X206695000Y-91930000D01*
X208195000Y-91930000D02*
X208195000Y-86530000D01*
X130495000Y-119730000D02*
X130495000Y-125130000D01*
X130745000Y-122930000D02*
X131245000Y-122030000D01*
X131245000Y-122030000D02*
X131745000Y-122930000D01*
X131745000Y-121930000D02*
X130745000Y-121930000D01*
X131745000Y-122930000D02*
X130745000Y-122930000D01*
X131995000Y-119730000D02*
X130495000Y-119730000D01*
X131995000Y-125130000D02*
X130495000Y-125130000D01*
X131995000Y-125130000D02*
X131995000Y-119730000D01*
X149595000Y-117320000D02*
X149595000Y-122720000D01*
X149845000Y-120520000D02*
X150345000Y-119620000D01*
X150345000Y-119620000D02*
X150845000Y-120520000D01*
X150845000Y-119520000D02*
X149845000Y-119520000D01*
X150845000Y-120520000D02*
X149845000Y-120520000D01*
X151095000Y-117320000D02*
X149595000Y-117320000D01*
X151095000Y-122720000D02*
X149595000Y-122720000D01*
X151095000Y-122720000D02*
X151095000Y-117320000D01*
X206745000Y-105530000D02*
X206745000Y-110930000D01*
X206995000Y-108730000D02*
X207495000Y-107830000D01*
X207495000Y-107830000D02*
X207995000Y-108730000D01*
X207995000Y-107730000D02*
X206995000Y-107730000D01*
X207995000Y-108730000D02*
X206995000Y-108730000D01*
X208245000Y-105530000D02*
X206745000Y-105530000D01*
X208245000Y-110930000D02*
X206745000Y-110930000D01*
X208245000Y-110930000D02*
X208245000Y-105530000D01*
X130495000Y-100730000D02*
X130495000Y-106130000D01*
X130745000Y-103930000D02*
X131245000Y-103030000D01*
X131245000Y-103030000D02*
X131745000Y-103930000D01*
X131745000Y-102930000D02*
X130745000Y-102930000D01*
X131745000Y-103930000D02*
X130745000Y-103930000D01*
X131995000Y-100730000D02*
X130495000Y-100730000D01*
X131995000Y-106130000D02*
X130495000Y-106130000D01*
X131995000Y-106130000D02*
X131995000Y-100730000D01*
X149595000Y-98220000D02*
X149595000Y-103620000D01*
X149845000Y-101420000D02*
X150345000Y-100520000D01*
X150345000Y-100520000D02*
X150845000Y-101420000D01*
X150845000Y-100420000D02*
X149845000Y-100420000D01*
X150845000Y-101420000D02*
X149845000Y-101420000D01*
X151095000Y-98220000D02*
X149595000Y-98220000D01*
X151095000Y-103620000D02*
X149595000Y-103620000D01*
X151095000Y-103620000D02*
X151095000Y-98220000D01*
X168595000Y-100730000D02*
X168595000Y-106130000D01*
X168845000Y-103930000D02*
X169345000Y-103030000D01*
X169345000Y-103030000D02*
X169845000Y-103930000D01*
X169845000Y-102930000D02*
X168845000Y-102930000D01*
X169845000Y-103930000D02*
X168845000Y-103930000D01*
X170095000Y-100730000D02*
X168595000Y-100730000D01*
X170095000Y-106130000D02*
X168595000Y-106130000D01*
X170095000Y-106130000D02*
X170095000Y-100730000D01*
X187695000Y-105530000D02*
X187695000Y-110930000D01*
X187945000Y-108730000D02*
X188445000Y-107830000D01*
X188445000Y-107830000D02*
X188945000Y-108730000D01*
X188945000Y-107730000D02*
X187945000Y-107730000D01*
X188945000Y-108730000D02*
X187945000Y-108730000D01*
X189195000Y-105530000D02*
X187695000Y-105530000D01*
X189195000Y-110930000D02*
X187695000Y-110930000D01*
X189195000Y-110930000D02*
X189195000Y-105530000D01*
X130495000Y-81630000D02*
X130495000Y-87030000D01*
X130745000Y-84830000D02*
X131245000Y-83930000D01*
X131245000Y-83930000D02*
X131745000Y-84830000D01*
X131745000Y-83830000D02*
X130745000Y-83830000D01*
X131745000Y-84830000D02*
X130745000Y-84830000D01*
X131995000Y-81630000D02*
X130495000Y-81630000D01*
X131995000Y-87030000D02*
X130495000Y-87030000D01*
X131995000Y-87030000D02*
X131995000Y-81630000D01*
X168595000Y-119830000D02*
X168595000Y-125230000D01*
X168845000Y-123030000D02*
X169345000Y-122130000D01*
X169345000Y-122130000D02*
X169845000Y-123030000D01*
X169845000Y-122030000D02*
X168845000Y-122030000D01*
X169845000Y-123030000D02*
X168845000Y-123030000D01*
X170095000Y-119830000D02*
X168595000Y-119830000D01*
X170095000Y-125230000D02*
X168595000Y-125230000D01*
X170095000Y-125230000D02*
X170095000Y-119830000D01*
D13*
X135700000Y-116648460D02*
X144000000Y-116648460D01*
D11*
X137300000Y-128300000D02*
X138325000Y-127275000D01*
X137300000Y-130900000D02*
X137300000Y-128300000D01*
X137300000Y-130900000D02*
X138325000Y-131925000D01*
X137450000Y-128150000D02*
X137450000Y-131050000D01*
X137600000Y-128050000D02*
X137600000Y-131200000D01*
X137750000Y-127850000D02*
X137750000Y-131350000D01*
X137900000Y-127700000D02*
X137900000Y-131500000D01*
X138050000Y-127550000D02*
X138050000Y-131650000D01*
X138200000Y-127450000D02*
X138200000Y-131800000D01*
X138350000Y-127300000D02*
X138350000Y-131900000D01*
X138500000Y-127300000D02*
X138500000Y-131900000D01*
X138650000Y-127300000D02*
X138650000Y-131900000D01*
X138800000Y-127300000D02*
X138800000Y-131900000D01*
X138950000Y-127300000D02*
X138950000Y-131900000D01*
X139100000Y-127300000D02*
X139100000Y-131900000D01*
X139250000Y-127300000D02*
X139250000Y-131900000D01*
X139400000Y-127300000D02*
X139400000Y-131900000D01*
X139550000Y-127300000D02*
X139550000Y-131900000D01*
X139700000Y-127300000D02*
X139700000Y-131900000D01*
X139850000Y-127300000D02*
X139850000Y-131900000D01*
X140000000Y-127300000D02*
X140000000Y-131900000D01*
X140150000Y-127300000D02*
X140150000Y-131900000D01*
X140300000Y-127275000D02*
X138325000Y-127275000D01*
X140300000Y-127300000D02*
X140300000Y-131900000D01*
X140450000Y-127300000D02*
X140450000Y-131850000D01*
X140600000Y-127250000D02*
X140600000Y-131900000D01*
X140750000Y-127250000D02*
X140750000Y-131900000D01*
X140875000Y-131925000D02*
X138325000Y-131925000D01*
X140875000Y-131925000D02*
X142150000Y-130900000D01*
X140900000Y-127250000D02*
X140900000Y-131850000D01*
X141050000Y-127200000D02*
X141050000Y-131750000D01*
X141200000Y-127100000D02*
X141200000Y-131650000D01*
X141350000Y-127050000D02*
X141350000Y-131500000D01*
X141500000Y-126950000D02*
X141500000Y-131400000D01*
X141650000Y-126850000D02*
X141650000Y-131250000D01*
X141800000Y-126750000D02*
X141800000Y-131150000D01*
X141950000Y-126600000D02*
X141950000Y-131050000D01*
X142100000Y-126450000D02*
X142100000Y-130900000D01*
X142200000Y-126250000D02*
X142200000Y-130400000D01*
X142300000Y-126100000D02*
X142300000Y-130250000D01*
X142400000Y-125900000D02*
X142400000Y-130050000D01*
X142500000Y-125750000D02*
X142500000Y-129950000D01*
X142600000Y-125500000D02*
X142600000Y-129900000D01*
X142700000Y-125350000D02*
X142700000Y-129850000D01*
X142850000Y-125250000D02*
X142850000Y-129800000D01*
X143000000Y-125150000D02*
X143000000Y-129700000D01*
X143150000Y-125100000D02*
X143150000Y-129700000D01*
X143300000Y-125100000D02*
X143300000Y-129700000D01*
X143450000Y-125100000D02*
X143450000Y-129650000D01*
X143600000Y-125100000D02*
X143600000Y-129700000D01*
X143750000Y-125100000D02*
X143750000Y-129700000D01*
X143900000Y-125100000D02*
X143900000Y-129700000D01*
D13*
X144000000Y-116648460D02*
X144000000Y-118299460D01*
X144000000Y-121351000D02*
X135700000Y-121348460D01*
D11*
X144050000Y-125100000D02*
X144050000Y-129700000D01*
X144200000Y-125100000D02*
X144200000Y-129700000D01*
X144350000Y-125100000D02*
X144350000Y-129700000D01*
X144500000Y-125100000D02*
X144500000Y-129700000D01*
X144650000Y-125100000D02*
X144650000Y-129700000D01*
X144800000Y-125100000D02*
X144800000Y-129700000D01*
X144950000Y-125100000D02*
X144950000Y-129700000D01*
X145100000Y-125100000D02*
X145100000Y-129700000D01*
X145250000Y-125100000D02*
X145250000Y-129700000D01*
X145400000Y-125100000D02*
X145400000Y-129700000D01*
X145550000Y-125100000D02*
X145550000Y-129700000D01*
X145700000Y-125100000D02*
X145700000Y-129700000D01*
X145850000Y-125100000D02*
X145850000Y-129700000D01*
X145900000Y-125075000D02*
X143300000Y-125075000D01*
X145900000Y-129725000D02*
X143325000Y-129725000D01*
X146000000Y-125100000D02*
X146000000Y-129650000D01*
X146150000Y-125150000D02*
X146150000Y-129650000D01*
X146300000Y-125200000D02*
X146300000Y-129600000D01*
X146450000Y-125300000D02*
X146450000Y-129500000D01*
X146550000Y-125400000D02*
X146550000Y-129350000D01*
X146650000Y-125500000D02*
X146650000Y-129250000D01*
X146750000Y-125650000D02*
X146750000Y-129200000D01*
X146900000Y-128725000D02*
X146900000Y-126075000D01*
X142150000Y-130900000D02*
G75*
G02*
X143325000Y-129725000I1175002J-2D01*
G01*
X142437801Y-125778096D02*
G75*
G02*
X140300000Y-127275000I-2137800J778095D01*
G01*
X142437801Y-125778096D02*
G75*
G02*
X143299005Y-125076209I900000J-225000D01*
G01*
X145900000Y-125075000D02*
G75*
G02*
X146900000Y-126075000I1J-999999D01*
G01*
X146900000Y-128725000D02*
G75*
G02*
X145900000Y-129725000I-999999J-1D01*
G01*
D12*
X144000000Y-117664460D02*
X142992000Y-116651000D01*
X144000000Y-116648460D01*
X144000000Y-117664460D01*
G36*
X144000000Y-117664460D02*
G01*
X142992000Y-116651000D01*
X144000000Y-116648460D01*
X144000000Y-117664460D01*
G37*
D13*
X94089120Y-38557640D02*
X94089120Y-39347640D01*
X96139120Y-40397640D02*
X95939120Y-40397640D01*
X97639120Y-36257640D02*
X97639120Y-37547640D01*
X97639120Y-36257640D02*
X97839120Y-36047640D01*
X98739120Y-36047640D02*
X97839120Y-36047640D01*
X98939120Y-36257640D02*
X98739120Y-36047640D01*
X98939120Y-37547640D02*
X98939120Y-36257640D01*
X99139120Y-40397640D02*
X97439120Y-40397640D01*
X100389120Y-37547640D02*
X94689120Y-37547640D01*
X100989120Y-39347640D02*
X100989120Y-38557640D01*
D14*
X93930120Y-99689840D02*
X94550120Y-99689840D01*
D15*
X95499272Y-80311965D03*
X100579272Y-80311965D03*
X95499272Y-78061965D03*
X100579272Y-78061965D03*
D16*
X89500000Y-87400000D03*
X96500000Y-87400000D03*
X89500000Y-85650000D03*
X96500000Y-85650000D03*
D17*
X98300000Y-89500000D03*
X98300000Y-83550000D03*
X94300000Y-89500000D03*
X94300000Y-83550000D03*
X91300000Y-89500000D03*
X91300000Y-83550000D03*
X99800000Y-87750000D03*
X99800000Y-85300000D03*
D15*
X102700000Y-80300000D03*
X102700000Y-78100000D03*
D18*
X92180000Y-41230000D03*
X92180000Y-43770000D03*
X92180000Y-46310000D03*
X92180000Y-48850000D03*
X92180000Y-51390000D03*
X92180000Y-53930000D03*
X92180000Y-56470000D03*
X92180000Y-59010000D03*
X92180000Y-61550000D03*
X92180000Y-64090000D03*
X92180000Y-66630000D03*
X92180000Y-69170000D03*
X107420000Y-69170000D03*
X107420000Y-66630000D03*
X107420000Y-64090000D03*
X107420000Y-61550000D03*
X107420000Y-59010000D03*
X107420000Y-56470000D03*
X107420000Y-53930000D03*
X107420000Y-51390000D03*
X107420000Y-48850000D03*
X107420000Y-46310000D03*
X107420000Y-43770000D03*
X107420000Y-41230000D03*
D15*
X96700000Y-74600000D03*
X99240000Y-74600000D03*
X101780000Y-74600000D03*
X104320000Y-74600000D03*
%LPC*%
D19*
X95499272Y-80311965D03*
X100579272Y-80311965D03*
X95499272Y-78061965D03*
X100579272Y-78061965D03*
D20*
X89500000Y-87400000D03*
X96500000Y-87400000D03*
X89500000Y-85650000D03*
X96500000Y-85650000D03*
D21*
X98300000Y-89500000D03*
X98300000Y-83550000D03*
X94300000Y-89500000D03*
X94300000Y-83550000D03*
X91300000Y-89500000D03*
X91300000Y-83550000D03*
X99800000Y-87750000D03*
X99800000Y-85300000D03*
D19*
X102700000Y-80300000D03*
X102700000Y-78100000D03*
D22*
X103000000Y-119000000D03*
D23*
X92180000Y-41230000D03*
X108718815Y-42425745D03*
X92180000Y-43770000D03*
X108718815Y-44965745D03*
X92180000Y-46310000D03*
X108718815Y-47505745D03*
X92180000Y-48850000D03*
X108718815Y-50045745D03*
X92180000Y-51390000D03*
X108718815Y-52585745D03*
X92180000Y-53930000D03*
X108718815Y-55125745D03*
X92180000Y-56470000D03*
X108718815Y-57665745D03*
X92180000Y-59010000D03*
X108718815Y-60205745D03*
X92180000Y-61550000D03*
X108718815Y-62745745D03*
X92180000Y-64090000D03*
X108718815Y-65285745D03*
X92180000Y-66630000D03*
X108718815Y-67825745D03*
X92180000Y-69170000D03*
X108718815Y-70365745D03*
X93478815Y-70365745D03*
X107420000Y-69170000D03*
X93478815Y-67825745D03*
X107420000Y-66630000D03*
X93478815Y-65285745D03*
X107420000Y-64090000D03*
X93478815Y-62745745D03*
X107420000Y-61550000D03*
X93478815Y-60205745D03*
X107420000Y-59010000D03*
X93478815Y-57665745D03*
X107420000Y-56470000D03*
X93478815Y-55125745D03*
X107420000Y-53930000D03*
X93478815Y-52585745D03*
X107420000Y-51390000D03*
X93478815Y-50045745D03*
X107420000Y-48850000D03*
X93478815Y-47505745D03*
X107420000Y-46310000D03*
X93478815Y-44965745D03*
X107420000Y-43770000D03*
X93478815Y-42425745D03*
X107420000Y-41230000D03*
D24*
X104300000Y-69800380D03*
X104300000Y-68799620D03*
X101700000Y-69800380D03*
X101700000Y-68799620D03*
X99200000Y-69800380D03*
X99200000Y-68799620D03*
D25*
X90000000Y-74250000D03*
X90000000Y-80750000D03*
D26*
X94000000Y-74499620D03*
X94000000Y-75500380D03*
D27*
X128705000Y-44452000D03*
X128705000Y-48002000D03*
X131245000Y-44455000D03*
X131245000Y-48005000D03*
X150345000Y-41955000D03*
X150345000Y-45505000D03*
X169345000Y-44455000D03*
X169345000Y-48005000D03*
X188445000Y-49225000D03*
X188445000Y-52775000D03*
X207545000Y-49355000D03*
X207545000Y-52905000D03*
X128705000Y-82555000D03*
X128705000Y-86105000D03*
X128705000Y-101655000D03*
X128705000Y-105205000D03*
D28*
X105225000Y-97000000D03*
X108775000Y-97000000D03*
D29*
X95544195Y-124463500D03*
X92469805Y-126238500D03*
D30*
X126050000Y-50000000D03*
D31*
X125770000Y-45800000D03*
D32*
X125550000Y-53700000D03*
X120550000Y-55900000D03*
D33*
X120550000Y-50000000D03*
D32*
X115550000Y-53700000D03*
D31*
X115330000Y-45800000D03*
D30*
X115050000Y-50000000D03*
D34*
X117800000Y-46001000D03*
X117800000Y-44601000D03*
X123300000Y-44601000D03*
X123300000Y-46001000D03*
D35*
X117750000Y-55900000D03*
X128450000Y-53700000D03*
D30*
X164150000Y-45000000D03*
D31*
X163870000Y-40800000D03*
D32*
X163650000Y-48700000D03*
X158650000Y-50900000D03*
D33*
X158650000Y-45000000D03*
D32*
X153650000Y-48700000D03*
D31*
X153430000Y-40800000D03*
D30*
X153150000Y-45000000D03*
D34*
X155900000Y-41001000D03*
X155900000Y-39601000D03*
X161400000Y-39601000D03*
X161400000Y-41001000D03*
D35*
X155850000Y-50900000D03*
X166550000Y-48700000D03*
D30*
X126050000Y-88100000D03*
D31*
X125770000Y-83900000D03*
D32*
X125550000Y-91800000D03*
X120550000Y-94000000D03*
D33*
X120550000Y-88100000D03*
D32*
X115550000Y-91800000D03*
D31*
X115330000Y-83900000D03*
D30*
X115050000Y-88100000D03*
D34*
X117800000Y-84101000D03*
X117800000Y-82701000D03*
X123300000Y-82701000D03*
X123300000Y-84101000D03*
D35*
X117750000Y-94000000D03*
X128450000Y-91800000D03*
D30*
X145100000Y-85600000D03*
D31*
X144820000Y-81400000D03*
D32*
X144600000Y-89300000D03*
X139600000Y-91500000D03*
D33*
X139600000Y-85600000D03*
D32*
X134600000Y-89300000D03*
D31*
X134380000Y-81400000D03*
D30*
X134100000Y-85600000D03*
D34*
X136850000Y-81601000D03*
X136850000Y-80201000D03*
X142350000Y-80201000D03*
X142350000Y-81601000D03*
D35*
X136800000Y-91500000D03*
X147500000Y-89300000D03*
D30*
X126050000Y-107150000D03*
D31*
X125770000Y-102950000D03*
D32*
X125550000Y-110850000D03*
X120550000Y-113050000D03*
D33*
X120550000Y-107150000D03*
D32*
X115550000Y-110850000D03*
D31*
X115330000Y-102950000D03*
D30*
X115050000Y-107150000D03*
D34*
X117800000Y-103151000D03*
X117800000Y-101751000D03*
X123300000Y-101751000D03*
X123300000Y-103151000D03*
D35*
X117750000Y-113050000D03*
X128450000Y-110850000D03*
D30*
X164150000Y-102150000D03*
D31*
X163870000Y-97950000D03*
D32*
X163650000Y-105850000D03*
X158650000Y-108050000D03*
D33*
X158650000Y-102150000D03*
D32*
X153650000Y-105850000D03*
D31*
X153430000Y-97950000D03*
D30*
X153150000Y-102150000D03*
D34*
X155900000Y-98151000D03*
X155900000Y-96751000D03*
X161400000Y-96751000D03*
X161400000Y-98151000D03*
D35*
X155850000Y-108050000D03*
X166550000Y-105850000D03*
D30*
X202250000Y-109550000D03*
D31*
X201970000Y-105350000D03*
D32*
X201750000Y-113250000D03*
X196750000Y-115450000D03*
D33*
X196750000Y-109550000D03*
D32*
X191750000Y-113250000D03*
D31*
X191530000Y-105350000D03*
D30*
X191250000Y-109550000D03*
D34*
X194000000Y-105551000D03*
X194000000Y-104151000D03*
X199500000Y-104151000D03*
X199500000Y-105551000D03*
D35*
X193950000Y-115450000D03*
X204650000Y-113250000D03*
D30*
X99460000Y-138163140D03*
D31*
X102957307Y-135820653D03*
D32*
X96005706Y-139580127D03*
X91600450Y-136350000D03*
D33*
X96710000Y-133400000D03*
D32*
X91005706Y-130919873D03*
D31*
X97737307Y-126779347D03*
D30*
X93960000Y-128636860D03*
D36*
X98798236Y-129018930D03*
X100010671Y-128318930D03*
X102760671Y-133082070D03*
X101548236Y-133782070D03*
D37*
X90200450Y-133925129D03*
X97455706Y-142091601D03*
D38*
X91500000Y-93500000D03*
D24*
X96700000Y-69800380D03*
X96700000Y-68799620D03*
D19*
X96700000Y-74600000D03*
X99240000Y-74600000D03*
X101780000Y-74600000D03*
X104320000Y-74600000D03*
D38*
X107000000Y-93500000D03*
D30*
X122912592Y-126976495D03*
D31*
X121555093Y-122992076D03*
D32*
X123387260Y-130679830D03*
X119127032Y-134098962D03*
D33*
X117600000Y-128400000D03*
D32*
X113728001Y-133268021D03*
D31*
X111470827Y-125694147D03*
D30*
X112287408Y-129823505D03*
D39*
X113908687Y-125249015D03*
X113546340Y-123896719D03*
X118858932Y-122473214D03*
X119221279Y-123825510D03*
D40*
X116422440Y-134823656D03*
X126188444Y-129929255D03*
D30*
X221300000Y-71450000D03*
D31*
X221020000Y-67250000D03*
D32*
X220800000Y-75150000D03*
X215800000Y-77350000D03*
D33*
X215800000Y-71450000D03*
D32*
X210800000Y-75150000D03*
D31*
X210580000Y-67250000D03*
D30*
X210300000Y-71450000D03*
D34*
X213050000Y-67451000D03*
X213050000Y-66051000D03*
X218550000Y-66051000D03*
X218550000Y-67451000D03*
D35*
X213000000Y-77350000D03*
X223700000Y-75150000D03*
D30*
X221300000Y-90500000D03*
D31*
X221020000Y-86300000D03*
D32*
X220800000Y-94200000D03*
X215800000Y-96400000D03*
D33*
X215800000Y-90500000D03*
D32*
X210800000Y-94200000D03*
D31*
X210580000Y-86300000D03*
D30*
X210300000Y-90500000D03*
D34*
X213050000Y-86501000D03*
X213050000Y-85101000D03*
X218550000Y-85101000D03*
X218550000Y-86501000D03*
D35*
X213000000Y-96400000D03*
X223700000Y-94200000D03*
D30*
X221300000Y-109550000D03*
D31*
X221020000Y-105350000D03*
D32*
X220800000Y-113250000D03*
X215800000Y-115450000D03*
D33*
X215800000Y-109550000D03*
D32*
X210800000Y-113250000D03*
D31*
X210580000Y-105350000D03*
D30*
X210300000Y-109550000D03*
D34*
X213050000Y-105551000D03*
X213050000Y-104151000D03*
X218550000Y-104151000D03*
X218550000Y-105551000D03*
D35*
X213000000Y-115450000D03*
X223700000Y-113250000D03*
D30*
X183200000Y-47500000D03*
D31*
X182920000Y-43300000D03*
D32*
X182700000Y-51200000D03*
X177700000Y-53400000D03*
D33*
X177700000Y-47500000D03*
D32*
X172700000Y-51200000D03*
D31*
X172480000Y-43300000D03*
D30*
X172200000Y-47500000D03*
D34*
X174950000Y-43501000D03*
X174950000Y-42101000D03*
X180450000Y-42101000D03*
X180450000Y-43501000D03*
D35*
X174900000Y-53400000D03*
X185600000Y-51200000D03*
D22*
X206000000Y-61500000D03*
D27*
X128705000Y-63555000D03*
X128705000Y-67105000D03*
X131245000Y-63555000D03*
X131245000Y-67105000D03*
X150345000Y-61045000D03*
X150345000Y-64595000D03*
X169345000Y-63455000D03*
X169345000Y-67005000D03*
X188445000Y-68255000D03*
X188445000Y-71805000D03*
X207445000Y-68255000D03*
X207445000Y-71805000D03*
D30*
X202250000Y-52400000D03*
D31*
X201970000Y-48200000D03*
D32*
X201750000Y-56100000D03*
X196750000Y-58300000D03*
D33*
X196750000Y-52400000D03*
D32*
X191750000Y-56100000D03*
D31*
X191530000Y-48200000D03*
D30*
X191250000Y-52400000D03*
D34*
X194000000Y-48401000D03*
X194000000Y-47001000D03*
X199500000Y-47001000D03*
X199500000Y-48401000D03*
D35*
X193950000Y-58300000D03*
X204650000Y-56100000D03*
D30*
X145100000Y-66550000D03*
D31*
X144820000Y-62350000D03*
D32*
X144600000Y-70250000D03*
X139600000Y-72450000D03*
D33*
X139600000Y-66550000D03*
D32*
X134600000Y-70250000D03*
D31*
X134380000Y-62350000D03*
D30*
X134100000Y-66550000D03*
D34*
X136850000Y-62551000D03*
X136850000Y-61151000D03*
X142350000Y-61151000D03*
X142350000Y-62551000D03*
D35*
X136800000Y-72450000D03*
X147500000Y-70250000D03*
D30*
X183200000Y-66550000D03*
D31*
X182920000Y-62350000D03*
D32*
X182700000Y-70250000D03*
X177700000Y-72450000D03*
D33*
X177700000Y-66550000D03*
D32*
X172700000Y-70250000D03*
D31*
X172480000Y-62350000D03*
D30*
X172200000Y-66550000D03*
D34*
X174950000Y-62551000D03*
X174950000Y-61151000D03*
X180450000Y-61151000D03*
X180450000Y-62551000D03*
D35*
X174900000Y-72450000D03*
X185600000Y-70250000D03*
D30*
X164150000Y-64050000D03*
D31*
X163870000Y-59850000D03*
D32*
X163650000Y-67750000D03*
X158650000Y-69950000D03*
D33*
X158650000Y-64050000D03*
D32*
X153650000Y-67750000D03*
D31*
X153430000Y-59850000D03*
D30*
X153150000Y-64050000D03*
D34*
X155900000Y-60051000D03*
X155900000Y-58651000D03*
X161400000Y-58651000D03*
X161400000Y-60051000D03*
D35*
X155850000Y-69950000D03*
X166550000Y-67750000D03*
D30*
X183200000Y-85600000D03*
D31*
X182920000Y-81400000D03*
D32*
X182700000Y-89300000D03*
X177700000Y-91500000D03*
D33*
X177700000Y-85600000D03*
D32*
X172700000Y-89300000D03*
D31*
X172480000Y-81400000D03*
D30*
X172200000Y-85600000D03*
D34*
X174950000Y-81601000D03*
X174950000Y-80201000D03*
X180450000Y-80201000D03*
X180450000Y-81601000D03*
D35*
X174900000Y-91500000D03*
X185600000Y-89300000D03*
D30*
X221300000Y-52400000D03*
D31*
X221020000Y-48200000D03*
D32*
X220800000Y-56100000D03*
X215800000Y-58300000D03*
D33*
X215800000Y-52400000D03*
D32*
X210800000Y-56100000D03*
D31*
X210580000Y-48200000D03*
D30*
X210300000Y-52400000D03*
D34*
X213050000Y-48401000D03*
X213050000Y-47001000D03*
X218550000Y-47001000D03*
X218550000Y-48401000D03*
D35*
X213000000Y-58300000D03*
X223700000Y-56100000D03*
D30*
X126050000Y-69100000D03*
D31*
X125770000Y-64900000D03*
D32*
X125550000Y-72800000D03*
X120550000Y-75000000D03*
D33*
X120550000Y-69100000D03*
D32*
X115550000Y-72800000D03*
D31*
X115330000Y-64900000D03*
D30*
X115050000Y-69100000D03*
D34*
X117800000Y-65101000D03*
X117800000Y-63701000D03*
X123300000Y-63701000D03*
X123300000Y-65101000D03*
D35*
X117750000Y-75000000D03*
X128450000Y-72800000D03*
D30*
X183200000Y-123700000D03*
D31*
X182920000Y-119500000D03*
D32*
X182700000Y-127400000D03*
X177700000Y-129600000D03*
D33*
X177700000Y-123700000D03*
D32*
X172700000Y-127400000D03*
D31*
X172480000Y-119500000D03*
D30*
X172200000Y-123700000D03*
D34*
X174950000Y-119701000D03*
X174950000Y-118301000D03*
X180450000Y-118301000D03*
X180450000Y-119701000D03*
D35*
X174900000Y-129600000D03*
X185600000Y-127400000D03*
D30*
X202250000Y-71450000D03*
D31*
X201970000Y-67250000D03*
D32*
X201750000Y-75150000D03*
X196750000Y-77350000D03*
D33*
X196750000Y-71450000D03*
D32*
X191750000Y-75150000D03*
D31*
X191530000Y-67250000D03*
D30*
X191250000Y-71450000D03*
D34*
X194000000Y-67451000D03*
X194000000Y-66051000D03*
X199500000Y-66051000D03*
X199500000Y-67451000D03*
D35*
X193950000Y-77350000D03*
X204650000Y-75150000D03*
D30*
X183200000Y-104650000D03*
D31*
X182920000Y-100450000D03*
D32*
X182700000Y-108350000D03*
X177700000Y-110550000D03*
D33*
X177700000Y-104650000D03*
D32*
X172700000Y-108350000D03*
D31*
X172480000Y-100450000D03*
D30*
X172200000Y-104650000D03*
D34*
X174950000Y-100651000D03*
X174950000Y-99251000D03*
X180450000Y-99251000D03*
X180450000Y-100651000D03*
D35*
X174900000Y-110550000D03*
X185600000Y-108350000D03*
D30*
X202250000Y-90500000D03*
D31*
X201970000Y-86300000D03*
D32*
X201750000Y-94200000D03*
X196750000Y-96400000D03*
D33*
X196750000Y-90500000D03*
D32*
X191750000Y-94200000D03*
D31*
X191530000Y-86300000D03*
D30*
X191250000Y-90500000D03*
D34*
X194000000Y-86501000D03*
X194000000Y-85101000D03*
X199500000Y-85101000D03*
X199500000Y-86501000D03*
D35*
X193950000Y-96400000D03*
X204650000Y-94200000D03*
D30*
X164150000Y-121200000D03*
D31*
X163870000Y-117000000D03*
D32*
X163650000Y-124900000D03*
X158650000Y-127100000D03*
D33*
X158650000Y-121200000D03*
D32*
X153650000Y-124900000D03*
D31*
X153430000Y-117000000D03*
D30*
X153150000Y-121200000D03*
D34*
X155900000Y-117201000D03*
X155900000Y-115801000D03*
X161400000Y-115801000D03*
X161400000Y-117201000D03*
D35*
X155850000Y-127100000D03*
X166550000Y-124900000D03*
D30*
X164150000Y-83100000D03*
D31*
X163870000Y-78900000D03*
D32*
X163650000Y-86800000D03*
X158650000Y-89000000D03*
D33*
X158650000Y-83100000D03*
D32*
X153650000Y-86800000D03*
D31*
X153430000Y-78900000D03*
D30*
X153150000Y-83100000D03*
D34*
X155900000Y-79101000D03*
X155900000Y-77701000D03*
X161400000Y-77701000D03*
X161400000Y-79101000D03*
D35*
X155850000Y-89000000D03*
X166550000Y-86800000D03*
D30*
X145100000Y-47500000D03*
D31*
X144820000Y-43300000D03*
D32*
X144600000Y-51200000D03*
X139600000Y-53400000D03*
D33*
X139600000Y-47500000D03*
D32*
X134600000Y-51200000D03*
D31*
X134380000Y-43300000D03*
D30*
X134100000Y-47500000D03*
D34*
X136850000Y-43501000D03*
X136850000Y-42101000D03*
X142350000Y-42101000D03*
X142350000Y-43501000D03*
D35*
X136800000Y-53400000D03*
X147500000Y-51200000D03*
D41*
X108914596Y-127446482D03*
X109833404Y-130875518D03*
D30*
X145100000Y-104650000D03*
D31*
X144820000Y-100450000D03*
D32*
X144600000Y-108350000D03*
X139600000Y-110550000D03*
D33*
X139600000Y-104650000D03*
D32*
X134600000Y-108350000D03*
D31*
X134380000Y-100450000D03*
D30*
X134100000Y-104650000D03*
D34*
X136850000Y-100651000D03*
X136850000Y-99251000D03*
X142350000Y-99251000D03*
X142350000Y-100651000D03*
D35*
X136800000Y-110550000D03*
X147500000Y-108350000D03*
D22*
X206000000Y-100000000D03*
D27*
X150345000Y-80145000D03*
X150345000Y-83695000D03*
X169345000Y-82555000D03*
X169345000Y-86105000D03*
X188445000Y-87455000D03*
X188445000Y-91005000D03*
X207445000Y-87455000D03*
X207445000Y-91005000D03*
X131245000Y-120655000D03*
X131245000Y-124205000D03*
X150345000Y-118245000D03*
X150345000Y-121795000D03*
X207495000Y-106455000D03*
X207495000Y-110005000D03*
X131245000Y-101655000D03*
X131245000Y-105205000D03*
X150345000Y-99145000D03*
X150345000Y-102695000D03*
X169345000Y-101655000D03*
X169345000Y-105205000D03*
X188445000Y-106455000D03*
X188445000Y-110005000D03*
X131245000Y-82555000D03*
X131245000Y-86105000D03*
X169345000Y-120755000D03*
X169345000Y-124305000D03*
D30*
X145100000Y-123700000D03*
D31*
X144820000Y-119500000D03*
D32*
X144600000Y-127400000D03*
X139600000Y-129600000D03*
D33*
X139600000Y-123700000D03*
D32*
X134600000Y-127400000D03*
D31*
X134380000Y-119500000D03*
D30*
X134100000Y-123700000D03*
D34*
X136850000Y-119701000D03*
X136850000Y-118301000D03*
X142350000Y-118301000D03*
X142350000Y-119701000D03*
D35*
X136800000Y-129600000D03*
X147500000Y-127400000D03*
D22*
X130527120Y-57573640D03*
X130375120Y-95852640D03*
D42*
X101189120Y-40057640D03*
X101189120Y-37847640D03*
D43*
X99039120Y-38947640D03*
X96039120Y-38947640D03*
D42*
X93889120Y-40057640D03*
X93889120Y-37847640D03*
D44*
X99789120Y-40707640D03*
X96789120Y-40707640D03*
X95289120Y-40707640D03*
D45*
X97239120Y-111902640D03*
X102239120Y-111902640D03*
X99739120Y-111902640D03*
D46*
X94241070Y-104402640D03*
X105237170Y-104402640D03*
D47*
X102239120Y-97402640D03*
X97239120Y-97402640D03*
D48*
X96790120Y-94929840D03*
X103140120Y-94949640D03*
X96790120Y-99869840D03*
X103150120Y-99889840D03*
X97440120Y-114619840D03*
X99980120Y-114639840D03*
X102520120Y-114619840D03*
X93615120Y-100679840D03*
X93615120Y-110809840D03*
X106315120Y-110824640D03*
X106315120Y-100664640D03*
X91075120Y-103204640D03*
X108954120Y-103277440D03*
X91060120Y-105729840D03*
X108939120Y-105802640D03*
X91060120Y-108269840D03*
X108939120Y-108342640D03*
D49*
X105939120Y-89602640D03*
D50*
X107939120Y-89602640D03*
X103939120Y-89602640D03*
D43*
X96039120Y-38947640D03*
X99039120Y-38947640D03*
%LPD*%
M02*
